NoNameFixed-2048.ufo
<glyph name="exclam" format="2">
  <advance width="1075"/>
  <unicode hex="0021"/>
  <outline>
    <contour>
      <point x="639" y="1157" type="curve" smooth="yes"/>
      <point x="639" y="1049"/>
      <point x="631" y="936"/>
      <point x="629" y="829" type="curve" smooth="yes"/>
      <point x="621" y="475" type="line" smooth="yes"/>
      <point x="616" y="393"/>
      <point x="610" y="377"/>
      <point x="537" y="377" type="curve" smooth="yes"/>
      <point x="510" y="377"/>
      <point x="457" y="377"/>
      <point x="455" y="430" type="curve" smooth="yes"/>
      <point x="449" y="678" type="line"/>
      <point x="434" y="1157" type="line" smooth="yes"/>
      <point x="434" y="1266"/>
      <point x="518" y="1274"/>
      <point x="537" y="1274" type="curve" smooth="yes"/>
      <point x="555" y="1274"/>
      <point x="639" y="1266"/>
    </contour>
    <component base="dotaccent" xOffset="-2" yOffset="-1034"/>
  </outline>
</glyph>
<glyph name="quotedbl" format="2">
  <advance width="1075"/>
  <unicode hex="0022"/>
  <outline>
    <contour>
      <point x="809" y="1161" type="curve" smooth="yes"/>
      <point x="782" y="743" type="line" smooth="yes"/>
      <point x="780" y="709"/>
      <point x="770" y="672"/>
      <point x="719" y="672" type="curve" smooth="yes"/>
      <point x="662" y="672"/>
      <point x="655" y="715"/>
      <point x="653" y="745" type="curve" smooth="yes"/>
      <point x="627" y="1161" type="line" smooth="yes"/>
      <point x="621" y="1251"/>
      <point x="680" y="1274"/>
      <point x="719" y="1274" type="curve" smooth="yes"/>
      <point x="745" y="1274"/>
      <point x="815" y="1257"/>
    </contour>
    <contour>
      <point x="446" y="1161" type="curve" smooth="yes"/>
      <point x="420" y="743" type="line" smooth="yes"/>
      <point x="418" y="709"/>
      <point x="408" y="672"/>
      <point x="356" y="672" type="curve" smooth="yes"/>
      <point x="299" y="672"/>
      <point x="293" y="715"/>
      <point x="291" y="745" type="curve" smooth="yes"/>
      <point x="264" y="1161" type="line" smooth="yes"/>
      <point x="258" y="1251"/>
      <point x="317" y="1274"/>
      <point x="356" y="1274" type="curve" smooth="yes"/>
      <point x="383" y="1274"/>
      <point x="453" y="1257"/>
    </contour>
  </outline>
</glyph>
<glyph name="numbersign" format="2">
  <advance width="1075"/>
  <unicode hex="0023"/>
  <outline>
    <contour>
      <point x="1001" y="406" type="curve" smooth="yes"/>
      <point x="1001" y="334"/>
      <point x="930" y="334"/>
      <point x="905" y="334" type="curve" smooth="yes"/>
      <point x="750" y="334" type="line"/>
      <point x="717" y="84" type="line" smooth="yes"/>
      <point x="713" y="59"/>
      <point x="707" y="0"/>
      <point x="643" y="0" type="curve" smooth="yes"/>
      <point x="600" y="0"/>
      <point x="571" y="35"/>
      <point x="571" y="72" type="curve"/>
      <point x="571" y="72"/>
      <point x="571" y="82"/>
      <point x="604" y="334" type="curve"/>
      <point x="393" y="334" type="line"/>
      <point x="360" y="84" type="line" smooth="yes"/>
      <point x="356" y="59"/>
      <point x="350" y="0"/>
      <point x="287" y="0" type="curve" smooth="yes"/>
      <point x="244" y="0"/>
      <point x="215" y="35"/>
      <point x="215" y="72" type="curve"/>
      <point x="215" y="72"/>
      <point x="215" y="82"/>
      <point x="248" y="334" type="curve"/>
      <point x="168" y="334" type="line" smooth="yes"/>
      <point x="143" y="334"/>
      <point x="72" y="334"/>
      <point x="72" y="406" type="curve" smooth="yes"/>
      <point x="72" y="477"/>
      <point x="143" y="477"/>
      <point x="168" y="477" type="curve" smooth="yes"/>
      <point x="268" y="477" type="line"/>
      <point x="305" y="776" type="line"/>
      <point x="168" y="776" type="line" smooth="yes"/>
      <point x="143" y="776"/>
      <point x="72" y="776"/>
      <point x="72" y="848" type="curve" smooth="yes"/>
      <point x="72" y="920"/>
      <point x="143" y="920"/>
      <point x="168" y="920" type="curve" smooth="yes"/>
      <point x="326" y="920" type="line"/>
      <point x="356" y="1167" type="line" smooth="yes"/>
      <point x="358" y="1192"/>
      <point x="367" y="1251"/>
      <point x="430" y="1251" type="curve" smooth="yes"/>
      <point x="461" y="1251"/>
      <point x="510" y="1231"/>
      <point x="500" y="1155" type="curve" smooth="yes"/>
      <point x="471" y="920" type="line"/>
      <point x="682" y="920" type="line"/>
      <point x="713" y="1167" type="line" smooth="yes"/>
      <point x="715" y="1192"/>
      <point x="723" y="1251"/>
      <point x="786" y="1251" type="curve" smooth="yes"/>
      <point x="817" y="1251"/>
      <point x="866" y="1231"/>
      <point x="856" y="1155" type="curve" smooth="yes"/>
      <point x="827" y="920" type="line"/>
      <point x="905" y="920" type="line" smooth="yes"/>
      <point x="930" y="920"/>
      <point x="1001" y="920"/>
      <point x="1001" y="848" type="curve" smooth="yes"/>
      <point x="1001" y="776"/>
      <point x="930" y="776"/>
      <point x="905" y="776" type="curve" smooth="yes"/>
      <point x="807" y="776" type="line"/>
      <point x="770" y="477" type="line"/>
      <point x="905" y="477" type="line" smooth="yes"/>
      <point x="930" y="477"/>
      <point x="1001" y="477"/>
    </contour>
    <contour>
      <point x="662" y="776" type="line"/>
      <point x="451" y="776" type="line"/>
      <point x="414" y="477" type="line"/>
      <point x="625" y="477" type="line"/>
    </contour>
  </outline>
</glyph>
<glyph name="dollar" format="2">
  <advance width="1075"/>
  <unicode hex="0024"/>
  <outline>
    <contour>
      <point x="954" y="350" type="curve" smooth="yes"/>
      <point x="954" y="207"/>
      <point x="850" y="31"/>
      <point x="600" y="-8" type="curve"/>
      <point x="600" y="-86" type="line" smooth="yes"/>
      <point x="600" y="-119"/>
      <point x="600" y="-170"/>
      <point x="539" y="-170" type="curve" smooth="yes"/>
      <point x="475" y="-170"/>
      <point x="475" y="-119"/>
      <point x="475" y="-86" type="curve" smooth="yes"/>
      <point x="475" y="-10" type="line"/>
      <point x="238" y="12"/>
      <point x="119" y="170"/>
      <point x="119" y="340" type="curve" smooth="yes"/>
      <point x="119" y="434"/>
      <point x="193" y="442"/>
      <point x="211" y="442" type="curve" smooth="yes"/>
      <point x="252" y="442"/>
      <point x="301" y="408"/>
      <point x="301" y="350" type="curve" smooth="yes"/>
      <point x="301" y="303"/>
      <point x="281" y="287"/>
      <point x="268" y="279" type="curve"/>
      <point x="299" y="174"/>
      <point x="383" y="129"/>
      <point x="475" y="117" type="curve"/>
      <point x="475" y="592" type="line"/>
      <point x="131" y="655"/>
      <point x="119" y="877"/>
      <point x="119" y="926" type="curve" smooth="yes"/>
      <point x="119" y="1077"/>
      <point x="250" y="1233"/>
      <point x="475" y="1260" type="curve"/>
      <point x="475" y="1337" type="line" smooth="yes"/>
      <point x="475" y="1370"/>
      <point x="475" y="1421"/>
      <point x="539" y="1421" type="curve" smooth="yes"/>
      <point x="600" y="1421"/>
      <point x="600" y="1370"/>
      <point x="600" y="1337" type="curve" smooth="yes"/>
      <point x="600" y="1262" type="line"/>
      <point x="842" y="1241"/>
      <point x="954" y="1094"/>
      <point x="954" y="936" type="curve" smooth="yes"/>
      <point x="954" y="860"/>
      <point x="905" y="836"/>
      <point x="862" y="836" type="curve" smooth="yes"/>
      <point x="807" y="836"/>
      <point x="772" y="879"/>
      <point x="772" y="926" type="curve" smooth="yes"/>
      <point x="772" y="952"/>
      <point x="782" y="977"/>
      <point x="803" y="993" type="curve"/>
      <point x="770" y="1098"/>
      <point x="668" y="1126"/>
      <point x="600" y="1135" type="curve"/>
      <point x="600" y="709" type="line"/>
      <point x="897" y="653"/>
      <point x="954" y="451"/>
    </contour>
    <contour>
      <point x="475" y="735" type="curve"/>
      <point x="475" y="1135" type="line"/>
      <point x="348" y="1114"/>
      <point x="250" y="1032"/>
      <point x="250" y="934" type="curve" smooth="yes"/>
      <point x="250" y="829"/>
      <point x="358" y="756"/>
    </contour>
    <contour>
      <point x="823" y="342" type="curve" smooth="yes"/>
      <point x="823" y="446"/>
      <point x="735" y="539"/>
      <point x="600" y="565" type="curve"/>
      <point x="600" y="119" type="line"/>
      <point x="731" y="141"/>
      <point x="823" y="238"/>
    </contour>
  </outline>
</glyph>
<glyph name="percent" format="2">
  <advance width="1075"/>
  <unicode hex="0025"/>
  <outline>
    <contour>
      <point x="428" y="1147" type="curve" smooth="yes"/>
      <point x="428" y="993"/>
      <point x="350" y="874"/>
      <point x="250" y="874" type="curve" smooth="yes"/>
      <point x="152" y="874"/>
      <point x="72" y="989"/>
      <point x="72" y="1149" type="curve" smooth="yes"/>
      <point x="72" y="1303"/>
      <point x="150" y="1421"/>
      <point x="250" y="1421" type="curve" smooth="yes"/>
      <point x="348" y="1421"/>
      <point x="428" y="1307"/>
    </contour>
    <contour>
      <point x="313" y="1149" type="curve" smooth="yes"/>
      <point x="313" y="1233"/>
      <point x="276" y="1294"/>
      <point x="250" y="1294" type="curve" smooth="yes"/>
      <point x="223" y="1294"/>
      <point x="186" y="1233"/>
      <point x="186" y="1149" type="curve" smooth="yes"/>
      <point x="186" y="1059"/>
      <point x="225" y="1001"/>
      <point x="250" y="1001" type="curve" smooth="yes"/>
      <point x="274" y="1001"/>
      <point x="313" y="1059"/>
    </contour>
    <component base="percent.arabic.comp"/>
    <component base="perthousandzero" xOffset="285"/>
  </outline>
</glyph>
<glyph name="ampersand" format="2">
  <advance width="1075"/>
  <unicode hex="0026"/>
  <outline>
    <contour>
      <point x="1004" y="819" type="curve" smooth="yes"/>
      <point x="1004" y="758"/>
      <point x="952" y="758"/>
      <point x="922" y="758" type="curve" smooth="yes"/>
      <point x="858" y="758" type="line"/>
      <point x="735" y="438" type="line" smooth="yes"/>
      <point x="715" y="387"/>
      <point x="674" y="293"/>
      <point x="631" y="221" type="curve"/>
      <point x="649" y="197"/>
      <point x="727" y="102"/>
      <point x="803" y="102" type="curve" smooth="yes"/>
      <point x="836" y="102"/>
      <point x="874" y="129"/>
      <point x="883" y="219" type="curve"/>
      <point x="883" y="229"/>
      <point x="887" y="283"/>
      <point x="940" y="283" type="curve"/>
      <point x="940" y="283"/>
      <point x="997" y="283"/>
      <point x="997" y="215" type="curve" smooth="yes"/>
      <point x="997" y="117"/>
      <point x="938" y="-23"/>
      <point x="803" y="-23" type="curve" smooth="yes"/>
      <point x="684" y="-23"/>
      <point x="596" y="82"/>
      <point x="563" y="121" type="curve"/>
      <point x="500" y="43"/>
      <point x="416" y="-23"/>
      <point x="309" y="-23" type="curve" smooth="yes"/>
      <point x="154" y="-23"/>
      <point x="57" y="125"/>
      <point x="57" y="281" type="curve" smooth="yes"/>
      <point x="57" y="375"/>
      <point x="90" y="446"/>
      <point x="129" y="496" type="curve"/>
      <point x="133" y="498"/>
      <point x="252" y="629"/>
      <point x="268" y="645" type="curve"/>
      <point x="225" y="774"/>
      <point x="211" y="889"/>
      <point x="211" y="977" type="curve" smooth="yes"/>
      <point x="211" y="1182"/>
      <point x="322" y="1274"/>
      <point x="424" y="1274" type="curve" smooth="yes"/>
      <point x="569" y="1274"/>
      <point x="612" y="1118"/>
      <point x="612" y="993" type="curve" smooth="yes"/>
      <point x="612" y="946"/>
      <point x="612" y="825"/>
      <point x="406" y="610" type="curve"/>
      <point x="446" y="500"/>
      <point x="530" y="371"/>
      <point x="557" y="328" type="curve"/>
      <point x="612" y="436"/>
      <point x="680" y="612"/>
      <point x="735" y="758" type="curve"/>
      <point x="700" y="758"/>
      <point x="651" y="758"/>
      <point x="651" y="821" type="curve" smooth="yes"/>
      <point x="651" y="883"/>
      <point x="702" y="883"/>
      <point x="733" y="883" type="curve" smooth="yes"/>
      <point x="922" y="883" type="line" smooth="yes"/>
      <point x="954" y="883"/>
      <point x="1004" y="883"/>
    </contour>
    <contour>
      <point x="498" y="993" type="curve" smooth="yes"/>
      <point x="498" y="1012"/>
      <point x="494" y="1149"/>
      <point x="424" y="1149" type="curve" smooth="yes"/>
      <point x="379" y="1149"/>
      <point x="326" y="1096"/>
      <point x="326" y="977" type="curve" smooth="yes"/>
      <point x="326" y="961"/>
      <point x="328" y="852"/>
      <point x="358" y="745" type="curve"/>
      <point x="461" y="860"/>
      <point x="498" y="934"/>
    </contour>
    <contour>
      <point x="489" y="221" type="curve"/>
      <point x="455" y="270"/>
      <point x="444" y="289"/>
      <point x="399" y="369" type="curve" smooth="yes"/>
      <point x="371" y="416"/>
      <point x="332" y="483"/>
      <point x="317" y="516" type="curve"/>
      <point x="221" y="410"/>
      <point x="199" y="385"/>
      <point x="199" y="287" type="curve" smooth="yes"/>
      <point x="199" y="231"/>
      <point x="219" y="102"/>
      <point x="311" y="102" type="curve" smooth="yes"/>
      <point x="340" y="102"/>
      <point x="414" y="113"/>
    </contour>
  </outline>
</glyph>
<glyph name="quotesingle" format="2">
  <advance width="1075"/>
  <unicode hex="0027"/>
  <outline>
    <contour>
      <point x="627" y="1157" type="curve" smooth="yes"/>
      <point x="600" y="748" type="line" smooth="yes"/>
      <point x="598" y="715"/>
      <point x="596" y="672"/>
      <point x="537" y="672" type="curve" smooth="yes"/>
      <point x="477" y="672"/>
      <point x="475" y="715"/>
      <point x="473" y="748" type="curve" smooth="yes"/>
      <point x="449" y="1141" type="line"/>
      <point x="444" y="1182" type="line"/>
      <point x="444" y="1233"/>
      <point x="485" y="1274"/>
      <point x="537" y="1274" type="curve" smooth="yes"/>
      <point x="586" y="1274"/>
      <point x="633" y="1243"/>
    </contour>
  </outline>
</glyph>
<glyph name="parenleft" format="2">
  <advance width="1075"/>
  <unicode hex="0028"/>
  <outline>
    <contour>
      <point x="895" y="-111" type="curve" smooth="yes"/>
      <point x="895" y="-127"/>
      <point x="885" y="-168"/>
      <point x="831" y="-168" type="curve" smooth="yes"/>
      <point x="782" y="-168"/>
      <point x="629" y="-53"/>
      <point x="520" y="96" type="curve" smooth="yes"/>
      <point x="449" y="199"/>
      <point x="354" y="383"/>
      <point x="354" y="627" type="curve" smooth="yes"/>
      <point x="354" y="1151"/>
      <point x="772" y="1421"/>
      <point x="831" y="1421" type="curve" smooth="yes"/>
      <point x="885" y="1421"/>
      <point x="895" y="1380"/>
      <point x="895" y="1364" type="curve" smooth="yes"/>
      <point x="895" y="1333"/>
      <point x="881" y="1325"/>
      <point x="848" y="1303" type="curve" smooth="yes"/>
      <point x="573" y="1116"/>
      <point x="496" y="831"/>
      <point x="496" y="627" type="curve" smooth="yes"/>
      <point x="496" y="397"/>
      <point x="590" y="125"/>
      <point x="844" y="-47" type="curve" smooth="yes"/>
      <point x="881" y="-72"/>
      <point x="895" y="-80"/>
    </contour>
  </outline>
</glyph>
<glyph name="parenright" format="2">
  <advance width="1075"/>
  <unicode hex="0029"/>
  <outline>
    <contour>
      <point x="721" y="627" type="curve" smooth="yes"/>
      <point x="721" y="102"/>
      <point x="303" y="-168"/>
      <point x="244" y="-168" type="curve" smooth="yes"/>
      <point x="193" y="-168"/>
      <point x="180" y="-127"/>
      <point x="180" y="-111" type="curve" smooth="yes"/>
      <point x="180" y="-80"/>
      <point x="197" y="-70"/>
      <point x="227" y="-49" type="curve" smooth="yes"/>
      <point x="504" y="137"/>
      <point x="580" y="422"/>
      <point x="580" y="627" type="curve" smooth="yes"/>
      <point x="580" y="760"/>
      <point x="549" y="1090"/>
      <point x="213" y="1313" type="curve" smooth="yes"/>
      <point x="203" y="1319"/>
      <point x="180" y="1333"/>
      <point x="180" y="1364" type="curve" smooth="yes"/>
      <point x="180" y="1380"/>
      <point x="193" y="1421"/>
      <point x="244" y="1421" type="curve" smooth="yes"/>
      <point x="293" y="1421"/>
      <point x="446" y="1307"/>
      <point x="555" y="1157" type="curve" smooth="yes"/>
      <point x="627" y="1055"/>
      <point x="721" y="870"/>
    </contour>
  </outline>
</glyph>
<glyph name="asterisk" format="2">
  <advance width="1075"/>
  <unicode hex="002A"/>
  <outline>
    <contour>
      <point x="934" y="438" type="curve" smooth="yes"/>
      <point x="934" y="408"/>
      <point x="907" y="371"/>
      <point x="866" y="371" type="curve" smooth="yes"/>
      <point x="850" y="371"/>
      <point x="846" y="371"/>
      <point x="791" y="403" type="curve" smooth="yes"/>
      <point x="647" y="489"/>
      <point x="723" y="449"/>
      <point x="598" y="518" type="curve"/>
      <point x="602" y="465"/>
      <point x="604" y="330"/>
      <point x="604" y="270" type="curve" smooth="yes"/>
      <point x="604" y="252"/>
      <point x="604" y="184"/>
      <point x="537" y="184" type="curve" smooth="yes"/>
      <point x="469" y="184"/>
      <point x="469" y="252"/>
      <point x="469" y="270" type="curve" smooth="yes"/>
      <point x="469" y="330"/>
      <point x="471" y="465"/>
      <point x="475" y="518" type="curve"/>
      <point x="221" y="371" type="line"/>
      <point x="139" y="371"/>
      <point x="139" y="430"/>
      <point x="139" y="438" type="curve" smooth="yes"/>
      <point x="139" y="479"/>
      <point x="166" y="492"/>
      <point x="190" y="506" type="curve" smooth="yes"/>
      <point x="412" y="627" type="line"/>
      <point x="188" y="748" type="line" smooth="yes"/>
      <point x="162" y="762"/>
      <point x="139" y="774"/>
      <point x="139" y="813" type="curve" smooth="yes"/>
      <point x="139" y="844"/>
      <point x="166" y="881"/>
      <point x="207" y="881" type="curve" smooth="yes"/>
      <point x="221" y="881"/>
      <point x="225" y="881"/>
      <point x="254" y="862" type="curve" smooth="yes"/>
      <point x="475" y="733" type="line"/>
      <point x="471" y="786"/>
      <point x="469" y="922"/>
      <point x="469" y="981" type="curve" smooth="yes"/>
      <point x="469" y="999"/>
      <point x="469" y="1067"/>
      <point x="537" y="1067" type="curve" smooth="yes"/>
      <point x="604" y="1067"/>
      <point x="604" y="999"/>
      <point x="604" y="981" type="curve" smooth="yes"/>
      <point x="604" y="922"/>
      <point x="602" y="786"/>
      <point x="598" y="733" type="curve"/>
      <point x="852" y="881" type="line"/>
      <point x="934" y="881"/>
      <point x="934" y="821"/>
      <point x="934" y="813" type="curve" smooth="yes"/>
      <point x="934" y="774"/>
      <point x="907" y="760"/>
      <point x="883" y="745" type="curve" smooth="yes"/>
      <point x="662" y="625" type="line"/>
      <point x="715" y="596"/>
      <point x="854" y="528"/>
      <point x="905" y="494" type="curve"/>
      <point x="909" y="492"/>
      <point x="934" y="473"/>
    </contour>
  </outline>
</glyph>
<glyph name="plus" format="2">
  <advance width="1075"/>
  <unicode hex="002B"/>
  <outline>
    <contour>
      <point x="995" y="627" type="curve" smooth="yes"/>
      <point x="995" y="555"/>
      <point x="924" y="555"/>
      <point x="899" y="555" type="curve" smooth="yes"/>
      <point x="608" y="555" type="line"/>
      <point x="608" y="262" type="line" smooth="yes"/>
      <point x="608" y="238"/>
      <point x="608" y="166"/>
      <point x="537" y="166" type="curve" smooth="yes"/>
      <point x="465" y="166"/>
      <point x="465" y="238"/>
      <point x="465" y="262" type="curve" smooth="yes"/>
      <point x="465" y="555" type="line"/>
      <point x="174" y="555" type="line" smooth="yes"/>
      <point x="150" y="555"/>
      <point x="78" y="555"/>
      <point x="78" y="627" type="curve" smooth="yes"/>
      <point x="78" y="698"/>
      <point x="150" y="698"/>
      <point x="174" y="698" type="curve" smooth="yes"/>
      <point x="465" y="698" type="line"/>
      <point x="465" y="991" type="line" smooth="yes"/>
      <point x="465" y="1016"/>
      <point x="465" y="1087"/>
      <point x="537" y="1087" type="curve" smooth="yes"/>
      <point x="608" y="1087"/>
      <point x="608" y="1016"/>
      <point x="608" y="991" type="curve" smooth="yes"/>
      <point x="608" y="698" type="line"/>
      <point x="899" y="698" type="line" smooth="yes"/>
      <point x="924" y="698"/>
      <point x="995" y="698"/>
    </contour>
  </outline>
</glyph>
<glyph name="comma" format="2">
  <advance width="1075"/>
  <unicode hex="002C"/>
  <outline>
    <contour>
      <point x="709" y="51" type="curve" smooth="yes"/>
      <point x="709" y="-174"/>
      <point x="500" y="-285"/>
      <point x="434" y="-285" type="curve" smooth="yes"/>
      <point x="399" y="-285"/>
      <point x="369" y="-250"/>
      <point x="369" y="-219" type="curve" smooth="yes"/>
      <point x="369" y="-178"/>
      <point x="406" y="-168"/>
      <point x="426" y="-162" type="curve" smooth="yes"/>
      <point x="451" y="-154"/>
      <point x="547" y="-121"/>
      <point x="578" y="6" type="curve"/>
      <point x="563" y="2"/>
      <point x="549" y="0"/>
      <point x="537" y="0" type="curve" smooth="yes"/>
      <point x="469" y="0"/>
      <point x="410" y="51"/>
      <point x="410" y="129" type="curve" smooth="yes"/>
      <point x="410" y="195"/>
      <point x="457" y="256"/>
      <point x="539" y="256" type="curve" smooth="yes"/>
      <point x="629" y="256"/>
      <point x="709" y="176"/>
    </contour>
  </outline>
</glyph>
<glyph name="hyphen" format="2">
  <advance width="1075"/>
  <unicode hex="002D"/>
  <outline>
    <contour>
      <point x="958" y="627" type="curve" smooth="yes"/>
      <point x="958" y="555"/>
      <point x="887" y="555"/>
      <point x="862" y="555" type="curve" smooth="yes"/>
      <point x="211" y="555" type="line" smooth="yes"/>
      <point x="186" y="555"/>
      <point x="115" y="555"/>
      <point x="115" y="627" type="curve" smooth="yes"/>
      <point x="115" y="698"/>
      <point x="186" y="698"/>
      <point x="211" y="698" type="curve" smooth="yes"/>
      <point x="862" y="698" type="line" smooth="yes"/>
      <point x="887" y="698"/>
      <point x="958" y="698"/>
    </contour>
  </outline>
</glyph>
<glyph name="period" format="2">
  <advance width="1075"/>
  <unicode hex="002E"/>
  <outline>
    <contour>
      <point x="666" y="127" type="curve" smooth="yes"/>
      <point x="666" y="63"/>
      <point x="614" y="0"/>
      <point x="537" y="0" type="curve" smooth="yes"/>
      <point x="471" y="0"/>
      <point x="410" y="53"/>
      <point x="410" y="129" type="curve" smooth="yes"/>
      <point x="410" y="193"/>
      <point x="461" y="256"/>
      <point x="539" y="256" type="curve" smooth="yes"/>
      <point x="604" y="256"/>
      <point x="666" y="203"/>
    </contour>
  </outline>
</glyph>
<glyph name="slash" format="2">
  <advance width="1075"/>
  <unicode hex="002F"/>
  <outline>
    <contour>
      <point x="954" y="1350" type="curve" smooth="yes"/>
      <point x="954" y="1333"/>
      <point x="952" y="1333"/>
      <point x="938" y="1300" type="curve" smooth="yes"/>
      <point x="262" y="-113" type="line" smooth="yes"/>
      <point x="250" y="-139"/>
      <point x="236" y="-170"/>
      <point x="190" y="-170" type="curve" smooth="yes"/>
      <point x="150" y="-170"/>
      <point x="119" y="-135"/>
      <point x="119" y="-98" type="curve" smooth="yes"/>
      <point x="119" y="-82"/>
      <point x="121" y="-82"/>
      <point x="135" y="-49" type="curve" smooth="yes"/>
      <point x="811" y="1364" type="line" smooth="yes"/>
      <point x="823" y="1391"/>
      <point x="838" y="1421"/>
      <point x="883" y="1421" type="curve" smooth="yes"/>
      <point x="924" y="1421"/>
      <point x="954" y="1386"/>
    </contour>
  </outline>
</glyph>
<glyph name="zero" format="2">
  <advance width="1075"/>
  <unicode hex="0030"/>
  <outline>
    <contour>
      <point x="971" y="625" type="curve" smooth="yes"/>
      <point x="971" y="252"/>
      <point x="766" y="-23"/>
      <point x="537" y="-23" type="curve" smooth="yes"/>
      <point x="311" y="-23"/>
      <point x="102" y="246"/>
      <point x="102" y="627" type="curve" smooth="yes"/>
      <point x="102" y="999"/>
      <point x="307" y="1274"/>
      <point x="537" y="1274" type="curve" smooth="yes"/>
      <point x="762" y="1274"/>
      <point x="971" y="1006"/>
    </contour>
    <contour>
      <point x="829" y="647" type="curve" smooth="yes"/>
      <point x="829" y="948"/>
      <point x="686" y="1149"/>
      <point x="537" y="1149" type="curve" smooth="yes"/>
      <point x="385" y="1149"/>
      <point x="244" y="946"/>
      <point x="244" y="647" type="curve" smooth="yes"/>
      <point x="244" y="344"/>
      <point x="377" y="102"/>
      <point x="537" y="102" type="curve" smooth="yes"/>
      <point x="696" y="102"/>
      <point x="829" y="344"/>
    </contour>
  </outline>
</glyph>
<glyph name="one" format="2">
  <advance width="1075"/>
  <unicode hex="0031"/>
  <outline>
    <contour>
      <point x="905" y="61" type="curve" smooth="yes"/>
      <point x="905" y="0"/>
      <point x="854" y="0"/>
      <point x="823" y="0" type="curve" smooth="yes"/>
      <point x="309" y="0" type="line" smooth="yes"/>
      <point x="279" y="0"/>
      <point x="227" y="0"/>
      <point x="227" y="61" type="curve" smooth="yes"/>
      <point x="227" y="125"/>
      <point x="276" y="125"/>
      <point x="309" y="125" type="curve" smooth="yes"/>
      <point x="496" y="125" type="line"/>
      <point x="496" y="989" type="line"/>
      <point x="406" y="911"/>
      <point x="322" y="899"/>
      <point x="283" y="899" type="curve" smooth="yes"/>
      <point x="252" y="899"/>
      <point x="215" y="909"/>
      <point x="215" y="961" type="curve" smooth="yes"/>
      <point x="215" y="1018"/>
      <point x="258" y="1022"/>
      <point x="291" y="1024" type="curve" smooth="yes"/>
      <point x="330" y="1028"/>
      <point x="436" y="1051"/>
      <point x="514" y="1225" type="curve" smooth="yes"/>
      <point x="524" y="1249"/>
      <point x="537" y="1274"/>
      <point x="575" y="1274" type="curve" smooth="yes"/>
      <point x="637" y="1274"/>
      <point x="637" y="1223"/>
      <point x="637" y="1190" type="curve" smooth="yes"/>
      <point x="637" y="125" type="line"/>
      <point x="823" y="125" type="line" smooth="yes"/>
      <point x="856" y="125"/>
      <point x="905" y="125"/>
    </contour>
  </outline>
</glyph>
<glyph name="two" format="2">
  <advance width="1075"/>
  <unicode hex="0032"/>
  <outline>
    <contour>
      <point x="967" y="84" type="line" smooth="yes"/>
      <point x="967" y="18"/>
      <point x="952" y="0"/>
      <point x="885" y="0" type="curve" smooth="yes"/>
      <point x="190" y="0" type="line" smooth="yes"/>
      <point x="158" y="0"/>
      <point x="106" y="0"/>
      <point x="106" y="63" type="curve" smooth="yes"/>
      <point x="106" y="92"/>
      <point x="119" y="102"/>
      <point x="137" y="119" type="curve" smooth="yes"/>
      <point x="590" y="500" type="line" smooth="yes"/>
      <point x="725" y="612"/>
      <point x="825" y="731"/>
      <point x="825" y="874" type="curve" smooth="yes"/>
      <point x="825" y="1055"/>
      <point x="668" y="1149"/>
      <point x="500" y="1149" type="curve" smooth="yes"/>
      <point x="387" y="1149"/>
      <point x="291" y="1085"/>
      <point x="260" y="991" type="curve"/>
      <point x="279" y="977"/>
      <point x="289" y="950"/>
      <point x="289" y="926" type="curve" smooth="yes"/>
      <point x="289" y="868"/>
      <point x="242" y="834"/>
      <point x="199" y="834" type="curve" smooth="yes"/>
      <point x="164" y="834"/>
      <point x="106" y="856"/>
      <point x="106" y="932" type="curve" smooth="yes"/>
      <point x="106" y="1106"/>
      <point x="268" y="1274"/>
      <point x="510" y="1274" type="curve" smooth="yes"/>
      <point x="760" y="1274"/>
      <point x="967" y="1120"/>
      <point x="967" y="874" type="curve" smooth="yes"/>
      <point x="967" y="711"/>
      <point x="872" y="580"/>
      <point x="743" y="465" type="curve" smooth="yes"/>
      <point x="655" y="383"/>
      <point x="459" y="229"/>
      <point x="338" y="125" type="curve"/>
      <point x="825" y="125" type="line"/>
      <point x="825" y="182"/>
      <point x="825" y="221"/>
      <point x="897" y="221" type="curve" smooth="yes"/>
      <point x="967" y="221"/>
      <point x="967" y="176"/>
      <point x="967" y="137" type="curve" smooth="yes"/>
    </contour>
  </outline>
</glyph>
<glyph name="three" format="2">
  <advance width="1075"/>
  <unicode hex="0033"/>
  <outline>
    <contour>
      <point x="983" y="356" type="curve" smooth="yes"/>
      <point x="983" y="166"/>
      <point x="809" y="-23"/>
      <point x="541" y="-23" type="curve" smooth="yes"/>
      <point x="289" y="-23"/>
      <point x="90" y="96"/>
      <point x="90" y="279" type="curve" smooth="yes"/>
      <point x="90" y="344"/>
      <point x="135" y="375"/>
      <point x="182" y="375" type="curve" smooth="yes"/>
      <point x="233" y="375"/>
      <point x="272" y="334"/>
      <point x="272" y="285" type="curve" smooth="yes"/>
      <point x="272" y="244"/>
      <point x="258" y="231"/>
      <point x="248" y="221" type="curve"/>
      <point x="301" y="125"/>
      <point x="459" y="102"/>
      <point x="541" y="102" type="curve" smooth="yes"/>
      <point x="727" y="102"/>
      <point x="842" y="231"/>
      <point x="842" y="356" type="curve" smooth="yes"/>
      <point x="842" y="475"/>
      <point x="737" y="612"/>
      <point x="535" y="612" type="curve" smooth="yes"/>
      <point x="440" y="612" type="line" smooth="yes"/>
      <point x="408" y="612"/>
      <point x="358" y="612"/>
      <point x="358" y="676" type="curve" smooth="yes"/>
      <point x="358" y="735"/>
      <point x="389" y="735"/>
      <point x="506" y="743" type="curve" smooth="yes"/>
      <point x="580" y="748"/>
      <point x="631" y="752"/>
      <point x="696" y="805" type="curve" smooth="yes"/>
      <point x="752" y="850"/>
      <point x="782" y="922"/>
      <point x="782" y="983" type="curve" smooth="yes"/>
      <point x="782" y="1075"/>
      <point x="680" y="1149"/>
      <point x="541" y="1149" type="curve" smooth="yes"/>
      <point x="522" y="1149"/>
      <point x="377" y="1149"/>
      <point x="313" y="1085" type="curve"/>
      <point x="319" y="1079"/>
      <point x="332" y="1059"/>
      <point x="332" y="1030" type="curve" smooth="yes"/>
      <point x="332" y="973"/>
      <point x="285" y="938"/>
      <point x="242" y="938" type="curve" smooth="yes"/>
      <point x="201" y="938"/>
      <point x="150" y="967"/>
      <point x="150" y="1034" type="curve" smooth="yes"/>
      <point x="150" y="1176"/>
      <point x="293" y="1274"/>
      <point x="539" y="1274" type="curve" smooth="yes"/>
      <point x="774" y="1274"/>
      <point x="924" y="1137"/>
      <point x="924" y="985" type="curve" smooth="yes"/>
      <point x="924" y="874"/>
      <point x="866" y="758"/>
      <point x="752" y="684" type="curve"/>
      <point x="887" y="623"/>
      <point x="983" y="502"/>
    </contour>
  </outline>
</glyph>
<glyph name="four" format="2">
  <advance width="1075"/>
  <unicode hex="0034"/>
  <outline>
    <contour>
      <point x="1014" y="408" type="curve" smooth="yes"/>
      <point x="1014" y="346"/>
      <point x="963" y="346"/>
      <point x="932" y="346" type="curve" smooth="yes"/>
      <point x="772" y="346" type="line"/>
      <point x="772" y="125" type="line"/>
      <point x="899" y="125" type="line" smooth="yes"/>
      <point x="932" y="125"/>
      <point x="981" y="125"/>
      <point x="981" y="61" type="curve" smooth="yes"/>
      <point x="981" y="0"/>
      <point x="930" y="0"/>
      <point x="899" y="0" type="curve" smooth="yes"/>
      <point x="530" y="0" type="line" smooth="yes"/>
      <point x="500" y="0"/>
      <point x="449" y="0"/>
      <point x="449" y="61" type="curve" smooth="yes"/>
      <point x="449" y="125"/>
      <point x="498" y="125"/>
      <point x="530" y="125" type="curve" smooth="yes"/>
      <point x="657" y="125" type="line"/>
      <point x="657" y="346" type="line"/>
      <point x="141" y="346" type="line" smooth="yes"/>
      <point x="78" y="346"/>
      <point x="59" y="360"/>
      <point x="59" y="428" type="curve" smooth="yes"/>
      <point x="59" y="469"/>
      <point x="59" y="473"/>
      <point x="78" y="500" type="curve" smooth="yes"/>
      <point x="545" y="1233" type="line" smooth="yes"/>
      <point x="571" y="1274"/>
      <point x="582" y="1276"/>
      <point x="631" y="1276" type="curve" smooth="yes"/>
      <point x="688" y="1276" type="line" smooth="yes"/>
      <point x="758" y="1276"/>
      <point x="772" y="1260"/>
      <point x="772" y="1192" type="curve" smooth="yes"/>
      <point x="772" y="471" type="line"/>
      <point x="932" y="471" type="line" smooth="yes"/>
      <point x="965" y="471"/>
      <point x="1014" y="471"/>
    </contour>
    <contour>
      <point x="657" y="471" type="line"/>
      <point x="657" y="1186" type="line"/>
      <point x="203" y="471" type="line"/>
    </contour>
  </outline>
</glyph>
<glyph name="five" format="2">
  <advance width="1075"/>
  <unicode hex="0035"/>
  <outline>
    <contour>
      <point x="967" y="389" type="curve" smooth="yes"/>
      <point x="967" y="162"/>
      <point x="764" y="-23"/>
      <point x="508" y="-23" type="curve" smooth="yes"/>
      <point x="279" y="-23"/>
      <point x="106" y="121"/>
      <point x="106" y="291" type="curve" smooth="yes"/>
      <point x="106" y="371"/>
      <point x="168" y="389"/>
      <point x="199" y="389" type="curve" smooth="yes"/>
      <point x="242" y="389"/>
      <point x="289" y="356"/>
      <point x="289" y="297" type="curve" smooth="yes"/>
      <point x="289" y="256"/>
      <point x="272" y="242"/>
      <point x="262" y="231" type="curve"/>
      <point x="319" y="119"/>
      <point x="451" y="102"/>
      <point x="508" y="102" type="curve" smooth="yes"/>
      <point x="680" y="102"/>
      <point x="825" y="225"/>
      <point x="825" y="389" type="curve" smooth="yes"/>
      <point x="825" y="522"/>
      <point x="733" y="672"/>
      <point x="565" y="672" type="curve" smooth="yes"/>
      <point x="446" y="672"/>
      <point x="362" y="635"/>
      <point x="307" y="569" type="curve" smooth="yes"/>
      <point x="291" y="549"/>
      <point x="283" y="539"/>
      <point x="246" y="539" type="curve" smooth="yes"/>
      <point x="180" y="539"/>
      <point x="180" y="586"/>
      <point x="180" y="623" type="curve" smooth="yes"/>
      <point x="180" y="1167" type="line" smooth="yes"/>
      <point x="180" y="1233"/>
      <point x="195" y="1251"/>
      <point x="262" y="1251" type="curve" smooth="yes"/>
      <point x="813" y="1251" type="line" smooth="yes"/>
      <point x="846" y="1251"/>
      <point x="895" y="1251"/>
      <point x="895" y="1188" type="curve" smooth="yes"/>
      <point x="895" y="1126"/>
      <point x="844" y="1126"/>
      <point x="813" y="1126" type="curve" smooth="yes"/>
      <point x="322" y="1126" type="line"/>
      <point x="322" y="737" type="line"/>
      <point x="406" y="782"/>
      <point x="496" y="797"/>
      <point x="567" y="797" type="curve" smooth="yes"/>
      <point x="809" y="797"/>
      <point x="967" y="596"/>
    </contour>
  </outline>
</glyph>
<glyph name="six" format="2">
  <advance width="1075"/>
  <unicode hex="0036"/>
  <outline>
    <contour>
      <point x="965" y="395" type="curve" smooth="yes"/>
      <point x="965" y="150"/>
      <point x="764" y="-23"/>
      <point x="541" y="-23" type="curve" smooth="yes"/>
      <point x="338" y="-23"/>
      <point x="109" y="127"/>
      <point x="109" y="612" type="curve" smooth="yes"/>
      <point x="109" y="1026"/>
      <point x="383" y="1274"/>
      <point x="657" y="1274" type="curve" smooth="yes"/>
      <point x="856" y="1274"/>
      <point x="930" y="1163"/>
      <point x="930" y="1063" type="curve" smooth="yes"/>
      <point x="930" y="1001"/>
      <point x="889" y="967"/>
      <point x="838" y="967" type="curve" smooth="yes"/>
      <point x="784" y="967"/>
      <point x="748" y="1008"/>
      <point x="748" y="1057" type="curve" smooth="yes"/>
      <point x="748" y="1094"/>
      <point x="758" y="1106"/>
      <point x="768" y="1116" type="curve"/>
      <point x="758" y="1126"/>
      <point x="725" y="1149"/>
      <point x="655" y="1149" type="curve" smooth="yes"/>
      <point x="475" y="1149"/>
      <point x="283" y="981"/>
      <point x="254" y="692" type="curve"/>
      <point x="346" y="776"/>
      <point x="453" y="811"/>
      <point x="559" y="811" type="curve" smooth="yes"/>
      <point x="784" y="811"/>
      <point x="965" y="629"/>
    </contour>
    <contour>
      <point x="823" y="395" type="curve" smooth="yes"/>
      <point x="823" y="547"/>
      <point x="715" y="684"/>
      <point x="549" y="684" type="curve" smooth="yes"/>
      <point x="393" y="684"/>
      <point x="270" y="582"/>
      <point x="270" y="455" type="curve" smooth="yes"/>
      <point x="270" y="426"/>
      <point x="266" y="377"/>
      <point x="287" y="328" type="curve"/>
      <point x="328" y="203"/>
      <point x="408" y="102"/>
      <point x="541" y="102" type="curve" smooth="yes"/>
      <point x="688" y="102"/>
      <point x="823" y="219"/>
    </contour>
  </outline>
</glyph>
<glyph name="seven" format="2">
  <advance width="1075"/>
  <unicode hex="0037"/>
  <outline>
    <contour>
      <point x="983" y="1188" type="curve" smooth="yes"/>
      <point x="983" y="1159"/>
      <point x="979" y="1155"/>
      <point x="938" y="1118" type="curve" smooth="yes"/>
      <point x="813" y="997"/>
      <point x="500" y="641"/>
      <point x="489" y="59" type="curve"/>
      <point x="489" y="0"/>
      <point x="455" y="-23"/>
      <point x="420" y="-23" type="curve" smooth="yes"/>
      <point x="348" y="-23"/>
      <point x="348" y="45"/>
      <point x="348" y="74" type="curve" smooth="yes"/>
      <point x="348" y="299"/>
      <point x="418" y="750"/>
      <point x="772" y="1126" type="curve"/>
      <point x="231" y="1126" type="line"/>
      <point x="231" y="1069"/>
      <point x="231" y="1030"/>
      <point x="160" y="1030" type="curve" smooth="yes"/>
      <point x="90" y="1030"/>
      <point x="90" y="1075"/>
      <point x="90" y="1114" type="curve" smooth="yes"/>
      <point x="90" y="1200" type="line" smooth="yes"/>
      <point x="90" y="1239"/>
      <point x="90" y="1284"/>
      <point x="160" y="1284" type="curve" smooth="yes"/>
      <point x="176" y="1284"/>
      <point x="213" y="1284"/>
      <point x="225" y="1251" type="curve"/>
      <point x="901" y="1251" type="line" smooth="yes"/>
      <point x="934" y="1251"/>
      <point x="983" y="1251"/>
    </contour>
  </outline>
</glyph>
<glyph name="eight" format="2">
  <advance width="1075"/>
  <unicode hex="0038"/>
  <outline>
    <contour>
      <point x="983" y="356" type="curve" smooth="yes"/>
      <point x="983" y="158"/>
      <point x="795" y="-23"/>
      <point x="537" y="-23" type="curve" smooth="yes"/>
      <point x="281" y="-23"/>
      <point x="90" y="158"/>
      <point x="90" y="356" type="curve" smooth="yes"/>
      <point x="90" y="510"/>
      <point x="221" y="631"/>
      <point x="375" y="674" type="curve"/>
      <point x="213" y="727"/>
      <point x="119" y="829"/>
      <point x="119" y="946" type="curve" smooth="yes"/>
      <point x="119" y="1112"/>
      <point x="291" y="1274"/>
      <point x="537" y="1274" type="curve" smooth="yes"/>
      <point x="780" y="1274"/>
      <point x="954" y="1114"/>
      <point x="954" y="946" type="curve" smooth="yes"/>
      <point x="954" y="829"/>
      <point x="862" y="729"/>
      <point x="698" y="674" type="curve"/>
      <point x="850" y="631"/>
      <point x="983" y="510"/>
    </contour>
    <contour>
      <point x="813" y="944" type="curve" smooth="yes"/>
      <point x="813" y="1051"/>
      <point x="696" y="1149"/>
      <point x="537" y="1149" type="curve" smooth="yes"/>
      <point x="375" y="1149"/>
      <point x="260" y="1051"/>
      <point x="260" y="944" type="curve" smooth="yes"/>
      <point x="260" y="829"/>
      <point x="387" y="737"/>
      <point x="537" y="737" type="curve" smooth="yes"/>
      <point x="686" y="737"/>
      <point x="813" y="827"/>
    </contour>
    <contour>
      <point x="842" y="358" type="curve" smooth="yes"/>
      <point x="842" y="483"/>
      <point x="725" y="612"/>
      <point x="537" y="612" type="curve" smooth="yes"/>
      <point x="350" y="612"/>
      <point x="231" y="483"/>
      <point x="231" y="358" type="curve" smooth="yes"/>
      <point x="231" y="217"/>
      <point x="367" y="102"/>
      <point x="537" y="102" type="curve" smooth="yes"/>
      <point x="707" y="102"/>
      <point x="842" y="217"/>
    </contour>
  </outline>
</glyph>
<glyph name="nine" format="2">
  <advance width="1075"/>
  <unicode hex="0039"/>
  <outline>
    <contour>
      <point x="965" y="639" type="curve" smooth="yes"/>
      <point x="965" y="233"/>
      <point x="713" y="-23"/>
      <point x="442" y="-23" type="curve" smooth="yes"/>
      <point x="180" y="-23"/>
      <point x="143" y="123"/>
      <point x="143" y="188" type="curve" smooth="yes"/>
      <point x="143" y="250"/>
      <point x="184" y="285"/>
      <point x="236" y="285" type="curve" smooth="yes"/>
      <point x="289" y="285"/>
      <point x="326" y="244"/>
      <point x="326" y="195" type="curve" smooth="yes"/>
      <point x="326" y="160"/>
      <point x="315" y="147"/>
      <point x="307" y="137" type="curve"/>
      <point x="350" y="104"/>
      <point x="424" y="102"/>
      <point x="442" y="102" type="curve" smooth="yes"/>
      <point x="639" y="102"/>
      <point x="799" y="305"/>
      <point x="819" y="559" type="curve"/>
      <point x="727" y="475"/>
      <point x="621" y="440"/>
      <point x="514" y="440" type="curve" smooth="yes"/>
      <point x="289" y="440"/>
      <point x="109" y="623"/>
      <point x="109" y="856" type="curve" smooth="yes"/>
      <point x="109" y="1104"/>
      <point x="315" y="1274"/>
      <point x="543" y="1274" type="curve" smooth="yes"/>
      <point x="737" y="1274"/>
      <point x="965" y="1133"/>
    </contour>
    <contour>
      <point x="805" y="797" type="curve" smooth="yes"/>
      <point x="805" y="942"/>
      <point x="786" y="981"/>
      <point x="721" y="1061" type="curve" smooth="yes"/>
      <point x="688" y="1102"/>
      <point x="631" y="1149"/>
      <point x="543" y="1149" type="curve" smooth="yes"/>
      <point x="395" y="1149"/>
      <point x="250" y="1034"/>
      <point x="250" y="856" type="curve" smooth="yes"/>
      <point x="250" y="705"/>
      <point x="358" y="567"/>
      <point x="524" y="567" type="curve" smooth="yes"/>
      <point x="694" y="567"/>
      <point x="805" y="684"/>
    </contour>
  </outline>
</glyph>
<glyph name="semicolon" format="2">
  <advance width="1075"/>
  <unicode hex="003B"/>
  <outline>
    <contour>
      <point x="676" y="55" type="curve" smooth="yes"/>
      <point x="676" y="-174"/>
      <point x="479" y="-285"/>
      <point x="434" y="-285" type="curve" smooth="yes"/>
      <point x="399" y="-285"/>
      <point x="369" y="-250"/>
      <point x="369" y="-219" type="curve" smooth="yes"/>
      <point x="369" y="-186"/>
      <point x="397" y="-172"/>
      <point x="410" y="-166" type="curve" smooth="yes"/>
      <point x="440" y="-150"/>
      <point x="518" y="-111"/>
      <point x="545" y="0" type="curve"/>
      <point x="444" y="0"/>
      <point x="410" y="72"/>
      <point x="410" y="129" type="curve" smooth="yes"/>
      <point x="410" y="199"/>
      <point x="463" y="256"/>
      <point x="537" y="256" type="curve" smooth="yes"/>
      <point x="614" y="256"/>
      <point x="676" y="190"/>
    </contour>
    <component base="period" yOffset="627"/>
  </outline>
</glyph>
<glyph name="less" format="2">
  <advance width="1075"/>
  <unicode hex="003C"/>
  <outline>
    <contour>
      <point x="958" y="186" type="curve" smooth="yes"/>
      <point x="958" y="139"/>
      <point x="920" y="115"/>
      <point x="887" y="115" type="curve" smooth="yes"/>
      <point x="868" y="115"/>
      <point x="862" y="117"/>
      <point x="834" y="135" type="curve" smooth="yes"/>
      <point x="152" y="563" type="line"/>
      <point x="131" y="578"/>
      <point x="115" y="600"/>
      <point x="115" y="627" type="curve" smooth="yes"/>
      <point x="115" y="666"/>
      <point x="141" y="682"/>
      <point x="160" y="694" type="curve" smooth="yes"/>
      <point x="834" y="1118" type="line" smooth="yes"/>
      <point x="862" y="1137"/>
      <point x="868" y="1139"/>
      <point x="887" y="1139" type="curve" smooth="yes"/>
      <point x="920" y="1139"/>
      <point x="958" y="1114"/>
      <point x="958" y="1067" type="curve" smooth="yes"/>
      <point x="958" y="1028"/>
      <point x="932" y="1012"/>
      <point x="909" y="997" type="curve" smooth="yes"/>
      <point x="322" y="627" type="line"/>
      <point x="909" y="256" type="line" smooth="yes"/>
      <point x="932" y="242"/>
      <point x="958" y="225"/>
    </contour>
  </outline>
</glyph>
<glyph name="equal" format="2">
  <advance width="1075"/>
  <unicode hex="003D"/>
  <outline>
    <contour>
      <point x="995" y="471" type="curve" smooth="yes"/>
      <point x="995" y="399"/>
      <point x="920" y="399"/>
      <point x="891" y="399" type="curve" smooth="yes"/>
      <point x="182" y="399" type="line" smooth="yes"/>
      <point x="154" y="399"/>
      <point x="78" y="399"/>
      <point x="78" y="471" type="curve" smooth="yes"/>
      <point x="78" y="543"/>
      <point x="145" y="543"/>
      <point x="170" y="543" type="curve" smooth="yes"/>
      <point x="903" y="543" type="line" smooth="yes"/>
      <point x="928" y="543"/>
      <point x="995" y="543"/>
    </contour>
    <component base="minus" yOffset="156"/>
  </outline>
</glyph>
<glyph name="greater" format="2">
  <advance width="1075"/>
  <unicode hex="003E"/>
  <outline>
    <contour>
      <point x="958" y="627" type="curve" smooth="yes"/>
      <point x="958" y="588"/>
      <point x="932" y="571"/>
      <point x="913" y="559" type="curve" smooth="yes"/>
      <point x="240" y="135" type="line" smooth="yes"/>
      <point x="211" y="117"/>
      <point x="205" y="115"/>
      <point x="186" y="115" type="curve" smooth="yes"/>
      <point x="154" y="115"/>
      <point x="115" y="139"/>
      <point x="115" y="186" type="curve" smooth="yes"/>
      <point x="115" y="225"/>
      <point x="141" y="242"/>
      <point x="164" y="256" type="curve" smooth="yes"/>
      <point x="752" y="627" type="line"/>
      <point x="164" y="997" type="line" smooth="yes"/>
      <point x="141" y="1012"/>
      <point x="115" y="1028"/>
      <point x="115" y="1067" type="curve" smooth="yes"/>
      <point x="115" y="1114"/>
      <point x="154" y="1139"/>
      <point x="186" y="1139" type="curve" smooth="yes"/>
      <point x="205" y="1139"/>
      <point x="211" y="1137"/>
      <point x="240" y="1118" type="curve" smooth="yes"/>
      <point x="922" y="690" type="line"/>
      <point x="942" y="676"/>
      <point x="958" y="653"/>
    </contour>
  </outline>
</glyph>
<glyph name="question" format="2">
  <advance width="1075"/>
  <unicode hex="003F"/>
  <outline>
    <contour>
      <point x="946" y="1010" type="curve" smooth="yes"/>
      <point x="946" y="903"/>
      <point x="870" y="844"/>
      <point x="811" y="811" type="curve" smooth="yes"/>
      <point x="621" y="707"/>
      <point x="588" y="590"/>
      <point x="588" y="494" type="curve" smooth="yes"/>
      <point x="588" y="459" type="line" smooth="yes"/>
      <point x="588" y="389"/>
      <point x="567" y="377"/>
      <point x="506" y="377" type="curve" smooth="yes"/>
      <point x="424" y="377"/>
      <point x="424" y="403"/>
      <point x="424" y="483" type="curve" smooth="yes"/>
      <point x="424" y="565"/>
      <point x="424" y="748"/>
      <point x="721" y="911" type="curve" smooth="yes"/>
      <point x="760" y="932"/>
      <point x="805" y="956"/>
      <point x="805" y="1010" type="curve" smooth="yes"/>
      <point x="805" y="1073"/>
      <point x="725" y="1139"/>
      <point x="516" y="1139" type="curve" smooth="yes"/>
      <point x="436" y="1139"/>
      <point x="340" y="1124"/>
      <point x="289" y="1067" type="curve"/>
      <point x="299" y="1055"/>
      <point x="309" y="1034"/>
      <point x="309" y="1010" type="curve" smooth="yes"/>
      <point x="309" y="952"/>
      <point x="262" y="918"/>
      <point x="219" y="918" type="curve" smooth="yes"/>
      <point x="176" y="918"/>
      <point x="127" y="948"/>
      <point x="127" y="1014" type="curve" smooth="yes"/>
      <point x="127" y="1128"/>
      <point x="227" y="1264"/>
      <point x="516" y="1264" type="curve" smooth="yes"/>
      <point x="895" y="1264"/>
      <point x="946" y="1085"/>
    </contour>
    <component base="dotaccent" xOffset="-33" yOffset="-1034"/>
  </outline>
</glyph>
<glyph name="at" format="2">
  <advance width="1075"/>
  <unicode hex="0040"/>
  <outline>
    <contour>
      <point x="983" y="164" type="curve" smooth="yes"/>
      <point x="983" y="104"/>
      <point x="811" y="-12"/>
      <point x="627" y="-12" type="curve" smooth="yes"/>
      <point x="340" y="-12"/>
      <point x="90" y="260"/>
      <point x="90" y="627" type="curve" smooth="yes"/>
      <point x="90" y="995"/>
      <point x="344" y="1264"/>
      <point x="623" y="1264" type="curve" smooth="yes"/>
      <point x="983" y="1264"/>
      <point x="983" y="791"/>
      <point x="983" y="657" type="curve" smooth="yes"/>
      <point x="983" y="303"/>
      <point x="786" y="217"/>
      <point x="686" y="217" type="curve" smooth="yes"/>
      <point x="535" y="217"/>
      <point x="391" y="383"/>
      <point x="391" y="627" type="curve" smooth="yes"/>
      <point x="391" y="858"/>
      <point x="524" y="1034"/>
      <point x="688" y="1034" type="curve" smooth="yes"/>
      <point x="756" y="1034"/>
      <point x="813" y="997"/>
      <point x="819" y="993" type="curve"/>
      <point x="772" y="1118"/>
      <point x="680" y="1139"/>
      <point x="623" y="1139" type="curve" smooth="yes"/>
      <point x="412" y="1139"/>
      <point x="205" y="930"/>
      <point x="205" y="625" type="curve" smooth="yes"/>
      <point x="205" y="334"/>
      <point x="403" y="113"/>
      <point x="625" y="113" type="curve" smooth="yes"/>
      <point x="694" y="113"/>
      <point x="772" y="135"/>
      <point x="844" y="201" type="curve" smooth="yes"/>
      <point x="864" y="221"/>
      <point x="870" y="221"/>
      <point x="905" y="221" type="curve" smooth="yes"/>
      <point x="926" y="221"/>
      <point x="983" y="221"/>
    </contour>
    <contour>
      <point x="868" y="625" type="curve" smooth="yes"/>
      <point x="868" y="791"/>
      <point x="778" y="909"/>
      <point x="686" y="909" type="curve" smooth="yes"/>
      <point x="600" y="909"/>
      <point x="506" y="797"/>
      <point x="506" y="625" type="curve" smooth="yes"/>
      <point x="506" y="465"/>
      <point x="592" y="342"/>
      <point x="688" y="342" type="curve" smooth="yes"/>
      <point x="776" y="342"/>
      <point x="868" y="459"/>
    </contour>
  </outline>
</glyph>
<glyph name="A" format="2">
  <advance width="1075"/>
  <unicode hex="0041"/>
  <outline>
    <contour>
      <point x="1018" y="61" type="curve" smooth="yes"/>
      <point x="1018" y="0"/>
      <point x="965" y="0"/>
      <point x="930" y="0" type="curve" smooth="yes"/>
      <point x="721" y="0" type="line" smooth="yes"/>
      <point x="684" y="0"/>
      <point x="635" y="0"/>
      <point x="635" y="61" type="curve" smooth="yes"/>
      <point x="635" y="125"/>
      <point x="676" y="125"/>
      <point x="750" y="125" type="curve"/>
      <point x="702" y="338" type="line"/>
      <point x="371" y="338" type="line"/>
      <point x="324" y="125" type="line"/>
      <point x="397" y="125"/>
      <point x="438" y="125"/>
      <point x="438" y="61" type="curve" smooth="yes"/>
      <point x="438" y="0"/>
      <point x="389" y="0"/>
      <point x="352" y="0" type="curve" smooth="yes"/>
      <point x="143" y="0" type="line" smooth="yes"/>
      <point x="109" y="0"/>
      <point x="55" y="0"/>
      <point x="55" y="61" type="curve" smooth="yes"/>
      <point x="55" y="88"/>
      <point x="68" y="109"/>
      <point x="90" y="121" type="curve"/>
      <point x="102" y="125"/>
      <point x="150" y="125"/>
      <point x="178" y="125" type="curve"/>
      <point x="426" y="1198" type="line" smooth="yes"/>
      <point x="444" y="1276"/>
      <point x="477" y="1276"/>
      <point x="537" y="1276" type="curve" smooth="yes"/>
      <point x="600" y="1276"/>
      <point x="629" y="1274"/>
      <point x="647" y="1196" type="curve" smooth="yes"/>
      <point x="895" y="125" type="line"/>
      <point x="926" y="125"/>
      <point x="971" y="125"/>
      <point x="983" y="119" type="curve"/>
      <point x="1008" y="109"/>
      <point x="1018" y="88"/>
    </contour>
    <contour>
      <point x="672" y="463" type="line"/>
      <point x="537" y="1106" type="line"/>
      <point x="401" y="463" type="line"/>
    </contour>
  </outline>
</glyph>
<glyph name="B" format="2">
  <advance width="1075"/>
  <unicode hex="0042"/>
  <outline>
    <contour>
      <point x="987" y="342" type="curve" smooth="yes"/>
      <point x="987" y="182"/>
      <point x="864" y="0"/>
      <point x="633" y="0" type="curve" smooth="yes"/>
      <point x="129" y="0" type="line" smooth="yes"/>
      <point x="100" y="0"/>
      <point x="47" y="0"/>
      <point x="47" y="61" type="curve" smooth="yes"/>
      <point x="47" y="125"/>
      <point x="98" y="125"/>
      <point x="131" y="125" type="curve" smooth="yes"/>
      <point x="186" y="125" type="line"/>
      <point x="186" y="1126" type="line"/>
      <point x="131" y="1126" type="line" smooth="yes"/>
      <point x="98" y="1126"/>
      <point x="47" y="1126"/>
      <point x="47" y="1190" type="curve" smooth="yes"/>
      <point x="47" y="1251"/>
      <point x="100" y="1251"/>
      <point x="129" y="1251" type="curve" smooth="yes"/>
      <point x="592" y="1251" type="line" smooth="yes"/>
      <point x="819" y="1251"/>
      <point x="944" y="1083"/>
      <point x="944" y="934" type="curve" smooth="yes"/>
      <point x="944" y="807"/>
      <point x="854" y="700"/>
      <point x="723" y="655" type="curve"/>
      <point x="889" y="616"/>
      <point x="987" y="483"/>
    </contour>
    <contour>
      <point x="803" y="932" type="curve" smooth="yes"/>
      <point x="803" y="999"/>
      <point x="758" y="1126"/>
      <point x="584" y="1126" type="curve" smooth="yes"/>
      <point x="328" y="1126" type="line"/>
      <point x="328" y="713" type="line"/>
      <point x="539" y="713" type="line" smooth="yes"/>
      <point x="737" y="713"/>
      <point x="803" y="848"/>
    </contour>
    <contour>
      <point x="846" y="346" type="curve" smooth="yes"/>
      <point x="846" y="438"/>
      <point x="784" y="588"/>
      <point x="610" y="588" type="curve" smooth="yes"/>
      <point x="328" y="588" type="line"/>
      <point x="328" y="125" type="line"/>
      <point x="588" y="125" type="line" smooth="yes"/>
      <point x="766" y="125"/>
      <point x="846" y="246"/>
    </contour>
  </outline>
</glyph>
<glyph name="C" format="2">
  <advance width="1075"/>
  <unicode hex="0043"/>
  <outline>
    <contour>
      <point x="991" y="344" type="curve" smooth="yes"/>
      <point x="991" y="160"/>
      <point x="815" y="-23"/>
      <point x="578" y="-23" type="curve" smooth="yes"/>
      <point x="311" y="-23"/>
      <point x="82" y="252"/>
      <point x="82" y="627" type="curve" smooth="yes"/>
      <point x="82" y="999"/>
      <point x="311" y="1274"/>
      <point x="575" y="1274" type="curve" smooth="yes"/>
      <point x="680" y="1274"/>
      <point x="774" y="1233"/>
      <point x="842" y="1176" type="curve"/>
      <point x="868" y="1227"/>
      <point x="868" y="1231"/>
      <point x="872" y="1239" type="curve"/>
      <point x="883" y="1253"/>
      <point x="893" y="1274"/>
      <point x="930" y="1274" type="curve" smooth="yes"/>
      <point x="991" y="1274"/>
      <point x="991" y="1223"/>
      <point x="991" y="1190" type="curve" smooth="yes"/>
      <point x="991" y="905" type="line" smooth="yes"/>
      <point x="991" y="864"/>
      <point x="991" y="821"/>
      <point x="920" y="821" type="curve" smooth="yes"/>
      <point x="858" y="821"/>
      <point x="854" y="854"/>
      <point x="848" y="889" type="curve" smooth="yes"/>
      <point x="819" y="1055"/>
      <point x="707" y="1149"/>
      <point x="584" y="1149" type="curve" smooth="yes"/>
      <point x="401" y="1149"/>
      <point x="223" y="932"/>
      <point x="223" y="627" type="curve" smooth="yes"/>
      <point x="223" y="319"/>
      <point x="399" y="102"/>
      <point x="586" y="102" type="curve" smooth="yes"/>
      <point x="670" y="102"/>
      <point x="836" y="152"/>
      <point x="850" y="352" type="curve" smooth="yes"/>
      <point x="854" y="412"/>
      <point x="901" y="412"/>
      <point x="920" y="412" type="curve" smooth="yes"/>
      <point x="942" y="412"/>
      <point x="991" y="412"/>
    </contour>
  </outline>
</glyph>
<glyph name="D" format="2">
  <advance width="1075"/>
  <unicode hex="0044"/>
  <outline>
    <contour>
      <point x="993" y="616" type="curve" smooth="yes"/>
      <point x="993" y="287"/>
      <point x="813" y="0"/>
      <point x="545" y="0" type="curve" smooth="yes"/>
      <point x="123" y="0" type="line" smooth="yes"/>
      <point x="92" y="0"/>
      <point x="39" y="0"/>
      <point x="39" y="61" type="curve" smooth="yes"/>
      <point x="39" y="125"/>
      <point x="90" y="125"/>
      <point x="123" y="125" type="curve" smooth="yes"/>
      <point x="168" y="125" type="line"/>
      <point x="168" y="1126" type="line"/>
      <point x="123" y="1126" type="line" smooth="yes"/>
      <point x="92" y="1126"/>
      <point x="39" y="1126"/>
      <point x="39" y="1188" type="curve" smooth="yes"/>
      <point x="39" y="1251"/>
      <point x="90" y="1251"/>
      <point x="123" y="1251" type="curve" smooth="yes"/>
      <point x="545" y="1251" type="line" smooth="yes"/>
      <point x="817" y="1251"/>
      <point x="993" y="944"/>
    </contour>
    <contour>
      <point x="852" y="616" type="curve" smooth="yes"/>
      <point x="852" y="854"/>
      <point x="737" y="1126"/>
      <point x="506" y="1126" type="curve" smooth="yes"/>
      <point x="309" y="1126" type="line"/>
      <point x="309" y="125" type="line"/>
      <point x="506" y="125" type="line" smooth="yes"/>
      <point x="733" y="125"/>
      <point x="852" y="377"/>
    </contour>
  </outline>
</glyph>
<glyph name="E" format="2">
  <advance width="1075"/>
  <unicode hex="0045"/>
  <outline>
    <contour>
      <point x="1028" y="84" type="line" smooth="yes"/>
      <point x="1028" y="18"/>
      <point x="1014" y="0"/>
      <point x="946" y="0" type="curve" smooth="yes"/>
      <point x="137" y="0" type="line" smooth="yes"/>
      <point x="106" y="0"/>
      <point x="53" y="0"/>
      <point x="53" y="61" type="curve" smooth="yes"/>
      <point x="53" y="125"/>
      <point x="104" y="125"/>
      <point x="137" y="125" type="curve" smooth="yes"/>
      <point x="199" y="125" type="line"/>
      <point x="199" y="1126" type="line"/>
      <point x="137" y="1126" type="line" smooth="yes"/>
      <point x="106" y="1126"/>
      <point x="53" y="1126"/>
      <point x="53" y="1190" type="curve" smooth="yes"/>
      <point x="53" y="1251"/>
      <point x="106" y="1251"/>
      <point x="137" y="1251" type="curve" smooth="yes"/>
      <point x="901" y="1251" type="line" smooth="yes"/>
      <point x="971" y="1251"/>
      <point x="983" y="1231"/>
      <point x="983" y="1167" type="curve" smooth="yes"/>
      <point x="983" y="1018" type="line" smooth="yes"/>
      <point x="983" y="977"/>
      <point x="983" y="934"/>
      <point x="911" y="934" type="curve" smooth="yes"/>
      <point x="842" y="934"/>
      <point x="842" y="979"/>
      <point x="842" y="1018" type="curve" smooth="yes"/>
      <point x="842" y="1126" type="line"/>
      <point x="340" y="1126" type="line"/>
      <point x="340" y="711" type="line"/>
      <point x="608" y="711" type="line"/>
      <point x="608" y="795"/>
      <point x="608" y="827"/>
      <point x="680" y="827" type="curve" smooth="yes"/>
      <point x="750" y="827"/>
      <point x="750" y="782"/>
      <point x="750" y="743" type="curve" smooth="yes"/>
      <point x="750" y="553" type="line" smooth="yes"/>
      <point x="750" y="514"/>
      <point x="750" y="469"/>
      <point x="680" y="469" type="curve" smooth="yes"/>
      <point x="608" y="469"/>
      <point x="608" y="502"/>
      <point x="608" y="586" type="curve"/>
      <point x="340" y="586" type="line"/>
      <point x="340" y="125" type="line"/>
      <point x="887" y="125" type="line"/>
      <point x="887" y="266" type="line" smooth="yes"/>
      <point x="887" y="307"/>
      <point x="887" y="350"/>
      <point x="958" y="350" type="curve" smooth="yes"/>
      <point x="1028" y="350"/>
      <point x="1028" y="305"/>
      <point x="1028" y="266" type="curve" smooth="yes"/>
    </contour>
  </outline>
</glyph>
<glyph name="F" format="2">
  <advance width="1075"/>
  <unicode hex="0046"/>
  <outline>
    <contour>
      <point x="1004" y="1018" type="line" smooth="yes"/>
      <point x="1004" y="977"/>
      <point x="1004" y="934"/>
      <point x="932" y="934" type="curve" smooth="yes"/>
      <point x="862" y="934"/>
      <point x="862" y="979"/>
      <point x="862" y="1018" type="curve" smooth="yes"/>
      <point x="862" y="1126" type="line"/>
      <point x="350" y="1126" type="line"/>
      <point x="350" y="688" type="line"/>
      <point x="629" y="688" type="line"/>
      <point x="629" y="772"/>
      <point x="629" y="805"/>
      <point x="700" y="805" type="curve" smooth="yes"/>
      <point x="770" y="805"/>
      <point x="770" y="760"/>
      <point x="770" y="721" type="curve" smooth="yes"/>
      <point x="770" y="530" type="line" smooth="yes"/>
      <point x="770" y="492"/>
      <point x="770" y="446"/>
      <point x="700" y="446" type="curve" smooth="yes"/>
      <point x="629" y="446"/>
      <point x="629" y="479"/>
      <point x="629" y="563" type="curve"/>
      <point x="350" y="563" type="line"/>
      <point x="350" y="125" type="line"/>
      <point x="457" y="125" type="line" smooth="yes"/>
      <point x="489" y="125"/>
      <point x="539" y="125"/>
      <point x="539" y="61" type="curve" smooth="yes"/>
      <point x="539" y="0"/>
      <point x="487" y="0"/>
      <point x="457" y="0" type="curve" smooth="yes"/>
      <point x="141" y="0" type="line" smooth="yes"/>
      <point x="111" y="0"/>
      <point x="57" y="0"/>
      <point x="57" y="61" type="curve" smooth="yes"/>
      <point x="57" y="125"/>
      <point x="109" y="125"/>
      <point x="141" y="125" type="curve" smooth="yes"/>
      <point x="209" y="125" type="line"/>
      <point x="209" y="1126" type="line"/>
      <point x="141" y="1126" type="line" smooth="yes"/>
      <point x="111" y="1126"/>
      <point x="57" y="1126"/>
      <point x="57" y="1188" type="curve" smooth="yes"/>
      <point x="57" y="1251"/>
      <point x="109" y="1251"/>
      <point x="141" y="1251" type="curve" smooth="yes"/>
      <point x="922" y="1251" type="line" smooth="yes"/>
      <point x="991" y="1251"/>
      <point x="1004" y="1231"/>
      <point x="1004" y="1167" type="curve" smooth="yes"/>
    </contour>
  </outline>
</glyph>
<glyph name="G" format="2">
  <advance width="1075"/>
  <unicode hex="0047"/>
  <outline>
    <contour>
      <point x="1016" y="492" type="curve" smooth="yes"/>
      <point x="1016" y="428"/>
      <point x="969" y="428"/>
      <point x="920" y="428" type="curve"/>
      <point x="920" y="84" type="line" smooth="yes"/>
      <point x="920" y="45"/>
      <point x="920" y="0"/>
      <point x="850" y="0" type="curve" smooth="yes"/>
      <point x="778" y="0"/>
      <point x="778" y="41"/>
      <point x="778" y="86" type="curve"/>
      <point x="737" y="39"/>
      <point x="651" y="-23"/>
      <point x="535" y="-23" type="curve" smooth="yes"/>
      <point x="291" y="-23"/>
      <point x="78" y="250"/>
      <point x="78" y="627" type="curve" smooth="yes"/>
      <point x="78" y="997"/>
      <point x="289" y="1274"/>
      <point x="535" y="1274" type="curve" smooth="yes"/>
      <point x="621" y="1274"/>
      <point x="702" y="1243"/>
      <point x="774" y="1182" type="curve"/>
      <point x="805" y="1251"/>
      <point x="815" y="1274"/>
      <point x="858" y="1274" type="curve" smooth="yes"/>
      <point x="920" y="1274"/>
      <point x="920" y="1223"/>
      <point x="920" y="1190" type="curve" smooth="yes"/>
      <point x="920" y="905" type="line" smooth="yes"/>
      <point x="920" y="864"/>
      <point x="920" y="821"/>
      <point x="848" y="821" type="curve" smooth="yes"/>
      <point x="795" y="821"/>
      <point x="782" y="846"/>
      <point x="778" y="881" type="curve" smooth="yes"/>
      <point x="743" y="1102"/>
      <point x="614" y="1149"/>
      <point x="543" y="1149" type="curve" smooth="yes"/>
      <point x="383" y="1149"/>
      <point x="219" y="938"/>
      <point x="219" y="625" type="curve" smooth="yes"/>
      <point x="219" y="324"/>
      <point x="375" y="102"/>
      <point x="541" y="102" type="curve" smooth="yes"/>
      <point x="649" y="102"/>
      <point x="750" y="199"/>
      <point x="774" y="428" type="curve"/>
      <point x="688" y="428" type="line" smooth="yes"/>
      <point x="655" y="428"/>
      <point x="606" y="428"/>
      <point x="606" y="492" type="curve" smooth="yes"/>
      <point x="606" y="553"/>
      <point x="657" y="553"/>
      <point x="688" y="553" type="curve" smooth="yes"/>
      <point x="932" y="553" type="line" smooth="yes"/>
      <point x="963" y="553"/>
      <point x="1016" y="553"/>
    </contour>
  </outline>
</glyph>
<glyph name="H" format="2">
  <advance width="1075"/>
  <unicode hex="0048"/>
  <outline>
    <contour>
      <point x="1028" y="61" type="curve" smooth="yes"/>
      <point x="1028" y="0"/>
      <point x="977" y="0"/>
      <point x="946" y="0" type="curve" smooth="yes"/>
      <point x="702" y="0" type="line" smooth="yes"/>
      <point x="670" y="0"/>
      <point x="621" y="0"/>
      <point x="621" y="63" type="curve" smooth="yes"/>
      <point x="621" y="125"/>
      <point x="672" y="125"/>
      <point x="702" y="125" type="curve" smooth="yes"/>
      <point x="754" y="125" type="line"/>
      <point x="754" y="588" type="line"/>
      <point x="319" y="588" type="line"/>
      <point x="319" y="125" type="line"/>
      <point x="371" y="125" type="line" smooth="yes"/>
      <point x="403" y="125"/>
      <point x="453" y="125"/>
      <point x="453" y="61" type="curve" smooth="yes"/>
      <point x="453" y="0"/>
      <point x="401" y="0"/>
      <point x="371" y="0" type="curve" smooth="yes"/>
      <point x="127" y="0" type="line" smooth="yes"/>
      <point x="96" y="0"/>
      <point x="45" y="0"/>
      <point x="45" y="61" type="curve" smooth="yes"/>
      <point x="45" y="125"/>
      <point x="94" y="125"/>
      <point x="127" y="125" type="curve" smooth="yes"/>
      <point x="178" y="125" type="line"/>
      <point x="178" y="1126" type="line"/>
      <point x="127" y="1126" type="line" smooth="yes"/>
      <point x="96" y="1126"/>
      <point x="45" y="1126"/>
      <point x="45" y="1188" type="curve" smooth="yes"/>
      <point x="45" y="1251"/>
      <point x="94" y="1251"/>
      <point x="127" y="1251" type="curve" smooth="yes"/>
      <point x="371" y="1251" type="line" smooth="yes"/>
      <point x="403" y="1251"/>
      <point x="453" y="1251"/>
      <point x="453" y="1188" type="curve" smooth="yes"/>
      <point x="453" y="1126"/>
      <point x="401" y="1126"/>
      <point x="371" y="1126" type="curve" smooth="yes"/>
      <point x="319" y="1126" type="line"/>
      <point x="319" y="713" type="line"/>
      <point x="754" y="713" type="line"/>
      <point x="754" y="1126" type="line"/>
      <point x="702" y="1126" type="line" smooth="yes"/>
      <point x="670" y="1126"/>
      <point x="621" y="1126"/>
      <point x="621" y="1190" type="curve" smooth="yes"/>
      <point x="621" y="1251"/>
      <point x="672" y="1251"/>
      <point x="702" y="1251" type="curve" smooth="yes"/>
      <point x="946" y="1251" type="line" smooth="yes"/>
      <point x="979" y="1251"/>
      <point x="1028" y="1251"/>
      <point x="1028" y="1188" type="curve" smooth="yes"/>
      <point x="1028" y="1126"/>
      <point x="977" y="1126"/>
      <point x="946" y="1126" type="curve" smooth="yes"/>
      <point x="895" y="1126" type="line"/>
      <point x="895" y="125" type="line"/>
      <point x="946" y="125" type="line" smooth="yes"/>
      <point x="979" y="125"/>
      <point x="1028" y="125"/>
    </contour>
  </outline>
</glyph>
<glyph name="I" format="2">
  <advance width="1075"/>
  <unicode hex="0049"/>
  <outline>
    <contour>
      <point x="913" y="61" type="curve" smooth="yes"/>
      <point x="913" y="0"/>
      <point x="860" y="0"/>
      <point x="829" y="0" type="curve" smooth="yes"/>
      <point x="246" y="0" type="line" smooth="yes"/>
      <point x="215" y="0"/>
      <point x="162" y="0"/>
      <point x="162" y="63" type="curve" smooth="yes"/>
      <point x="162" y="125"/>
      <point x="215" y="125"/>
      <point x="246" y="125" type="curve" smooth="yes"/>
      <point x="467" y="125" type="line"/>
      <point x="467" y="1126" type="line"/>
      <point x="246" y="1126" type="line" smooth="yes"/>
      <point x="215" y="1126"/>
      <point x="162" y="1126"/>
      <point x="162" y="1190" type="curve" smooth="yes"/>
      <point x="162" y="1251"/>
      <point x="215" y="1251"/>
      <point x="246" y="1251" type="curve" smooth="yes"/>
      <point x="829" y="1251" type="line" smooth="yes"/>
      <point x="860" y="1251"/>
      <point x="913" y="1251"/>
      <point x="913" y="1188" type="curve" smooth="yes"/>
      <point x="913" y="1126"/>
      <point x="860" y="1126"/>
      <point x="829" y="1126" type="curve" smooth="yes"/>
      <point x="608" y="1126" type="line"/>
      <point x="608" y="125" type="line"/>
      <point x="829" y="125" type="line" smooth="yes"/>
      <point x="860" y="125"/>
      <point x="913" y="125"/>
    </contour>
  </outline>
</glyph>
<glyph name="J" format="2">
  <advance width="1075"/>
  <unicode hex="004A"/>
  <outline>
    <contour>
      <point x="979" y="1190" type="curve" smooth="yes"/>
      <point x="979" y="1126"/>
      <point x="928" y="1126"/>
      <point x="895" y="1126" type="curve" smooth="yes"/>
      <point x="834" y="1126" type="line"/>
      <point x="834" y="274" type="line" smooth="yes"/>
      <point x="834" y="88"/>
      <point x="668" y="-23"/>
      <point x="485" y="-23" type="curve" smooth="yes"/>
      <point x="281" y="-23"/>
      <point x="145" y="74"/>
      <point x="145" y="203" type="curve" smooth="yes"/>
      <point x="145" y="268"/>
      <point x="190" y="299"/>
      <point x="238" y="299" type="curve" smooth="yes"/>
      <point x="289" y="299"/>
      <point x="328" y="258"/>
      <point x="328" y="209" type="curve" smooth="yes"/>
      <point x="328" y="176"/>
      <point x="319" y="166"/>
      <point x="311" y="156" type="curve"/>
      <point x="371" y="102"/>
      <point x="469" y="102"/>
      <point x="485" y="102" type="curve" smooth="yes"/>
      <point x="524" y="102"/>
      <point x="692" y="113"/>
      <point x="692" y="287" type="curve" smooth="yes"/>
      <point x="692" y="1126" type="line"/>
      <point x="524" y="1126" type="line" smooth="yes"/>
      <point x="494" y="1126"/>
      <point x="440" y="1126"/>
      <point x="440" y="1190" type="curve" smooth="yes"/>
      <point x="440" y="1251"/>
      <point x="494" y="1251"/>
      <point x="524" y="1251" type="curve" smooth="yes"/>
      <point x="895" y="1251" type="line" smooth="yes"/>
      <point x="926" y="1251"/>
      <point x="979" y="1251"/>
    </contour>
  </outline>
</glyph>
<glyph name="K" format="2">
  <advance width="1075"/>
  <unicode hex="004B"/>
  <outline>
    <contour>
      <point x="1014" y="61" type="curve" smooth="yes"/>
      <point x="1014" y="0"/>
      <point x="961" y="0"/>
      <point x="930" y="0" type="curve" smooth="yes"/>
      <point x="776" y="0" type="line" smooth="yes"/>
      <point x="743" y="0"/>
      <point x="692" y="0"/>
      <point x="692" y="63" type="curve" smooth="yes"/>
      <point x="692" y="125"/>
      <point x="745" y="125"/>
      <point x="774" y="125" type="curve"/>
      <point x="487" y="637" type="line"/>
      <point x="297" y="397" type="line"/>
      <point x="297" y="125" type="line"/>
      <point x="342" y="125" type="line" smooth="yes"/>
      <point x="375" y="125"/>
      <point x="426" y="125"/>
      <point x="426" y="61" type="curve" smooth="yes"/>
      <point x="426" y="0"/>
      <point x="373" y="0"/>
      <point x="342" y="0" type="curve" smooth="yes"/>
      <point x="137" y="0" type="line" smooth="yes"/>
      <point x="104" y="0"/>
      <point x="53" y="0"/>
      <point x="53" y="63" type="curve" smooth="yes"/>
      <point x="53" y="125"/>
      <point x="106" y="125"/>
      <point x="137" y="125" type="curve" smooth="yes"/>
      <point x="182" y="125" type="line"/>
      <point x="182" y="1126" type="line"/>
      <point x="137" y="1126" type="line" smooth="yes"/>
      <point x="104" y="1126"/>
      <point x="53" y="1126"/>
      <point x="53" y="1190" type="curve" smooth="yes"/>
      <point x="53" y="1251"/>
      <point x="106" y="1251"/>
      <point x="137" y="1251" type="curve" smooth="yes"/>
      <point x="342" y="1251" type="line" smooth="yes"/>
      <point x="375" y="1251"/>
      <point x="426" y="1251"/>
      <point x="426" y="1188" type="curve" smooth="yes"/>
      <point x="426" y="1126"/>
      <point x="373" y="1126"/>
      <point x="342" y="1126" type="curve" smooth="yes"/>
      <point x="297" y="1126" type="line"/>
      <point x="297" y="582" type="line"/>
      <point x="729" y="1126" type="line"/>
      <point x="700" y="1126"/>
      <point x="645" y="1126"/>
      <point x="645" y="1188" type="curve" smooth="yes"/>
      <point x="645" y="1251"/>
      <point x="698" y="1251"/>
      <point x="729" y="1251" type="curve" smooth="yes"/>
      <point x="909" y="1251" type="line" smooth="yes"/>
      <point x="938" y="1251"/>
      <point x="993" y="1251"/>
      <point x="993" y="1190" type="curve" smooth="yes"/>
      <point x="993" y="1126"/>
      <point x="950" y="1126"/>
      <point x="877" y="1126" type="curve"/>
      <point x="565" y="733" type="line"/>
      <point x="893" y="150" type="line" smooth="yes"/>
      <point x="895" y="145"/>
      <point x="903" y="133"/>
      <point x="907" y="125" type="curve"/>
      <point x="967" y="125"/>
      <point x="1014" y="125"/>
    </contour>
  </outline>
</glyph>
<glyph name="M" format="2">
  <advance width="1075"/>
  <unicode hex="004D"/>
  <outline>
    <contour>
      <point x="1038" y="61" type="curve" smooth="yes"/>
      <point x="1038" y="0"/>
      <point x="987" y="0"/>
      <point x="956" y="0" type="curve" smooth="yes"/>
      <point x="788" y="0" type="line" smooth="yes"/>
      <point x="758" y="0"/>
      <point x="707" y="0"/>
      <point x="707" y="61" type="curve" smooth="yes"/>
      <point x="707" y="125"/>
      <point x="750" y="125"/>
      <point x="815" y="125" type="curve"/>
      <point x="815" y="1102" type="line"/>
      <point x="813" y="1102" type="line"/>
      <point x="788" y="993"/>
      <point x="614" y="475"/>
      <point x="608" y="463" type="curve"/>
      <point x="592" y="434"/>
      <point x="563" y="418"/>
      <point x="537" y="418" type="curve" smooth="yes"/>
      <point x="512" y="418"/>
      <point x="487" y="432"/>
      <point x="475" y="449" type="curve" smooth="yes"/>
      <point x="465" y="463"/>
      <point x="438" y="541"/>
      <point x="422" y="588" type="curve" smooth="yes"/>
      <point x="414" y="614"/>
      <point x="283" y="1008"/>
      <point x="260" y="1102" type="curve"/>
      <point x="258" y="1102" type="line"/>
      <point x="258" y="125" type="line"/>
      <point x="324" y="125"/>
      <point x="367" y="125"/>
      <point x="367" y="61" type="curve" smooth="yes"/>
      <point x="367" y="0"/>
      <point x="315" y="0"/>
      <point x="285" y="0" type="curve" smooth="yes"/>
      <point x="117" y="0" type="line" smooth="yes"/>
      <point x="86" y="0"/>
      <point x="35" y="0"/>
      <point x="35" y="61" type="curve" smooth="yes"/>
      <point x="35" y="125"/>
      <point x="78" y="125"/>
      <point x="143" y="125" type="curve"/>
      <point x="143" y="1126" type="line"/>
      <point x="78" y="1126"/>
      <point x="35" y="1126"/>
      <point x="35" y="1190" type="curve" smooth="yes"/>
      <point x="35" y="1251"/>
      <point x="86" y="1251"/>
      <point x="117" y="1251" type="curve" smooth="yes"/>
      <point x="231" y="1251" type="line" smooth="yes"/>
      <point x="260" y="1251"/>
      <point x="311" y="1251"/>
      <point x="332" y="1202" type="curve"/>
      <point x="336" y="1190"/>
      <point x="516" y="659"/>
      <point x="537" y="563" type="curve"/>
      <point x="539" y="563" type="line"/>
      <point x="551" y="623"/>
      <point x="569" y="682"/>
      <point x="594" y="756" type="curve" smooth="yes"/>
      <point x="731" y="1169" type="line" smooth="yes"/>
      <point x="750" y="1223"/>
      <point x="758" y="1251"/>
      <point x="842" y="1251" type="curve" smooth="yes"/>
      <point x="956" y="1251" type="line" smooth="yes"/>
      <point x="987" y="1251"/>
      <point x="1038" y="1251"/>
      <point x="1038" y="1190" type="curve" smooth="yes"/>
      <point x="1038" y="1126"/>
      <point x="995" y="1126"/>
      <point x="930" y="1126" type="curve"/>
      <point x="930" y="125" type="line"/>
      <point x="995" y="125"/>
      <point x="1038" y="125"/>
    </contour>
  </outline>
</glyph>
<glyph name="N" format="2">
  <advance width="1075"/>
  <unicode hex="004E"/>
  <outline>
    <contour>
      <point x="1016" y="1188" type="curve" smooth="yes"/>
      <point x="1016" y="1126"/>
      <point x="965" y="1126"/>
      <point x="934" y="1126" type="curve" smooth="yes"/>
      <point x="883" y="1126" type="line"/>
      <point x="883" y="84" type="line" smooth="yes"/>
      <point x="883" y="6"/>
      <point x="858" y="0"/>
      <point x="797" y="0" type="curve" smooth="yes"/>
      <point x="743" y="0"/>
      <point x="711" y="2"/>
      <point x="684" y="74" type="curve" smooth="yes"/>
      <point x="307" y="1098" type="line"/>
      <point x="305" y="1098" type="line"/>
      <point x="305" y="125" type="line"/>
      <point x="356" y="125" type="line" smooth="yes"/>
      <point x="389" y="125"/>
      <point x="438" y="125"/>
      <point x="438" y="61" type="curve" smooth="yes"/>
      <point x="438" y="0"/>
      <point x="387" y="0"/>
      <point x="356" y="0" type="curve" smooth="yes"/>
      <point x="139" y="0" type="line" smooth="yes"/>
      <point x="106" y="0"/>
      <point x="57" y="0"/>
      <point x="57" y="63" type="curve" smooth="yes"/>
      <point x="57" y="125"/>
      <point x="109" y="125"/>
      <point x="139" y="125" type="curve" smooth="yes"/>
      <point x="190" y="125" type="line"/>
      <point x="190" y="1126" type="line"/>
      <point x="139" y="1126" type="line" smooth="yes"/>
      <point x="106" y="1126"/>
      <point x="57" y="1126"/>
      <point x="57" y="1190" type="curve" smooth="yes"/>
      <point x="57" y="1251"/>
      <point x="109" y="1251"/>
      <point x="139" y="1251" type="curve" smooth="yes"/>
      <point x="279" y="1251" type="line" smooth="yes"/>
      <point x="334" y="1251"/>
      <point x="365" y="1245"/>
      <point x="389" y="1178" type="curve" smooth="yes"/>
      <point x="766" y="154" type="line"/>
      <point x="768" y="154" type="line"/>
      <point x="768" y="1126" type="line"/>
      <point x="717" y="1126" type="line" smooth="yes"/>
      <point x="686" y="1126"/>
      <point x="635" y="1126"/>
      <point x="635" y="1188" type="curve" smooth="yes"/>
      <point x="635" y="1251"/>
      <point x="684" y="1251"/>
      <point x="717" y="1251" type="curve" smooth="yes"/>
      <point x="934" y="1251" type="line" smooth="yes"/>
      <point x="967" y="1251"/>
      <point x="1016" y="1251"/>
    </contour>
  </outline>
</glyph>
<glyph name="O" format="2">
  <advance width="1075"/>
  <unicode hex="004F"/>
  <outline>
    <contour>
      <point x="958" y="625" type="curve" smooth="yes"/>
      <point x="958" y="33"/>
      <point x="913" y="-23"/>
      <point x="537" y="-23" type="curve" smooth="yes"/>
      <point x="158" y="-23"/>
      <point x="115" y="33"/>
      <point x="115" y="625" type="curve" smooth="yes"/>
      <point x="115" y="1219"/>
      <point x="158" y="1274"/>
      <point x="537" y="1274" type="curve" smooth="yes"/>
      <point x="915" y="1274"/>
      <point x="958" y="1217"/>
    </contour>
    <contour>
      <point x="817" y="643" type="curve" smooth="yes"/>
      <point x="817" y="768"/>
      <point x="817" y="922"/>
      <point x="793" y="1018" type="curve" smooth="yes"/>
      <point x="762" y="1130"/>
      <point x="690" y="1149"/>
      <point x="537" y="1149" type="curve" smooth="yes"/>
      <point x="369" y="1149"/>
      <point x="305" y="1124"/>
      <point x="279" y="1004" type="curve" smooth="yes"/>
      <point x="256" y="909"/>
      <point x="256" y="770"/>
      <point x="256" y="643" type="curve" smooth="yes"/>
      <point x="256" y="530"/>
      <point x="256" y="352"/>
      <point x="281" y="248" type="curve" smooth="yes"/>
      <point x="305" y="145"/>
      <point x="356" y="102"/>
      <point x="537" y="102" type="curve" smooth="yes"/>
      <point x="719" y="102"/>
      <point x="772" y="145"/>
      <point x="795" y="260" type="curve" smooth="yes"/>
      <point x="817" y="371"/>
      <point x="817" y="516"/>
    </contour>
  </outline>
</glyph>
<glyph name="P" format="2">
  <advance width="1075"/>
  <unicode hex="0050"/>
  <outline>
    <contour>
      <point x="983" y="877" type="curve" smooth="yes"/>
      <point x="983" y="686"/>
      <point x="834" y="502"/>
      <point x="596" y="502" type="curve" smooth="yes"/>
      <point x="340" y="502" type="line"/>
      <point x="340" y="125" type="line"/>
      <point x="401" y="125" type="line" smooth="yes"/>
      <point x="432" y="125"/>
      <point x="485" y="125"/>
      <point x="485" y="61" type="curve" smooth="yes"/>
      <point x="485" y="0"/>
      <point x="432" y="0"/>
      <point x="401" y="0" type="curve" smooth="yes"/>
      <point x="137" y="0" type="line" smooth="yes"/>
      <point x="106" y="0"/>
      <point x="53" y="0"/>
      <point x="53" y="61" type="curve" smooth="yes"/>
      <point x="53" y="125"/>
      <point x="104" y="125"/>
      <point x="137" y="125" type="curve" smooth="yes"/>
      <point x="199" y="125" type="line"/>
      <point x="199" y="1126" type="line"/>
      <point x="137" y="1126" type="line" smooth="yes"/>
      <point x="106" y="1126"/>
      <point x="53" y="1126"/>
      <point x="53" y="1190" type="curve" smooth="yes"/>
      <point x="53" y="1251"/>
      <point x="106" y="1251"/>
      <point x="137" y="1251" type="curve" smooth="yes"/>
      <point x="596" y="1251" type="line" smooth="yes"/>
      <point x="831" y="1251"/>
      <point x="983" y="1067"/>
    </contour>
    <contour>
      <point x="842" y="877" type="curve" smooth="yes"/>
      <point x="842" y="985"/>
      <point x="754" y="1126"/>
      <point x="557" y="1126" type="curve" smooth="yes"/>
      <point x="340" y="1126" type="line"/>
      <point x="340" y="627" type="line"/>
      <point x="557" y="627" type="line" smooth="yes"/>
      <point x="754" y="627"/>
      <point x="842" y="768"/>
    </contour>
  </outline>
</glyph>
<glyph name="Q" format="2">
  <advance width="1075"/>
  <unicode hex="0051"/>
  <outline>
    <contour>
      <point x="958" y="625" type="curve" smooth="yes"/>
      <point x="958" y="530"/>
      <point x="958" y="393"/>
      <point x="946" y="283" type="curve" smooth="yes"/>
      <point x="928" y="117"/>
      <point x="891" y="45"/>
      <point x="801" y="8" type="curve"/>
      <point x="815" y="-18"/>
      <point x="852" y="-88"/>
      <point x="868" y="-115" type="curve"/>
      <point x="891" y="-160"/>
      <point x="932" y="-233"/>
      <point x="932" y="-246" type="curve" smooth="yes"/>
      <point x="932" y="-285"/>
      <point x="897" y="-285"/>
      <point x="866" y="-285" type="curve" smooth="yes"/>
      <point x="848" y="-285" type="line" smooth="yes"/>
      <point x="815" y="-285"/>
      <point x="793" y="-285"/>
      <point x="776" y="-260" type="curve"/>
      <point x="651" y="-20" type="line"/>
      <point x="629" y="-23"/>
      <point x="563" y="-23"/>
      <point x="537" y="-23" type="curve" smooth="yes"/>
      <point x="158" y="-23"/>
      <point x="115" y="33"/>
      <point x="115" y="625" type="curve" smooth="yes"/>
      <point x="115" y="1219"/>
      <point x="158" y="1274"/>
      <point x="537" y="1274" type="curve" smooth="yes"/>
      <point x="915" y="1274"/>
      <point x="958" y="1217"/>
    </contour>
    <contour>
      <point x="817" y="627" type="curve" smooth="yes"/>
      <point x="817" y="737"/>
      <point x="817" y="877"/>
      <point x="799" y="981" type="curve" smooth="yes"/>
      <point x="776" y="1114"/>
      <point x="719" y="1149"/>
      <point x="537" y="1149" type="curve" smooth="yes"/>
      <point x="348" y="1149"/>
      <point x="303" y="1108"/>
      <point x="276" y="995" type="curve" smooth="yes"/>
      <point x="256" y="897"/>
      <point x="256" y="739"/>
      <point x="256" y="625" type="curve" smooth="yes"/>
      <point x="256" y="514"/>
      <point x="256" y="375"/>
      <point x="274" y="270" type="curve" smooth="yes"/>
      <point x="295" y="160"/>
      <point x="336" y="102"/>
      <point x="520" y="102" type="curve" smooth="yes"/>
      <point x="586" y="102" type="line"/>
      <point x="492" y="285" type="line"/>
      <point x="485" y="295"/>
      <point x="483" y="301"/>
      <point x="483" y="311" type="curve" smooth="yes"/>
      <point x="483" y="350"/>
      <point x="520" y="350"/>
      <point x="549" y="350" type="curve" smooth="yes"/>
      <point x="571" y="350" type="line" smooth="yes"/>
      <point x="612" y="350"/>
      <point x="614" y="348"/>
      <point x="633" y="317" type="curve" smooth="yes"/>
      <point x="731" y="139" type="line"/>
      <point x="776" y="170"/>
      <point x="817" y="199"/>
    </contour>
  </outline>
</glyph>
<glyph name="R" format="2">
  <advance width="1075"/>
  <unicode hex="0052"/>
  <outline>
    <contour>
      <point x="1069" y="190" type="curve" smooth="yes"/>
      <point x="1069" y="113"/>
      <point x="1020" y="-23"/>
      <point x="891" y="-23" type="curve" smooth="yes"/>
      <point x="821" y="-23"/>
      <point x="764" y="10"/>
      <point x="729" y="72" type="curve" smooth="yes"/>
      <point x="690" y="137"/>
      <point x="690" y="199"/>
      <point x="690" y="332" type="curve" smooth="yes"/>
      <point x="690" y="418"/>
      <point x="690" y="463"/>
      <point x="645" y="506" type="curve" smooth="yes"/>
      <point x="580" y="563"/>
      <point x="518" y="563"/>
      <point x="479" y="563" type="curve" smooth="yes"/>
      <point x="319" y="563" type="line"/>
      <point x="319" y="125" type="line"/>
      <point x="371" y="125" type="line" smooth="yes"/>
      <point x="403" y="125"/>
      <point x="453" y="125"/>
      <point x="453" y="61" type="curve" smooth="yes"/>
      <point x="453" y="0"/>
      <point x="401" y="0"/>
      <point x="371" y="0" type="curve" smooth="yes"/>
      <point x="127" y="0" type="line" smooth="yes"/>
      <point x="96" y="0"/>
      <point x="45" y="0"/>
      <point x="45" y="61" type="curve" smooth="yes"/>
      <point x="45" y="125"/>
      <point x="94" y="125"/>
      <point x="127" y="125" type="curve" smooth="yes"/>
      <point x="178" y="125" type="line"/>
      <point x="178" y="1126" type="line"/>
      <point x="127" y="1126" type="line" smooth="yes"/>
      <point x="96" y="1126"/>
      <point x="45" y="1126"/>
      <point x="45" y="1188" type="curve" smooth="yes"/>
      <point x="45" y="1251"/>
      <point x="94" y="1251"/>
      <point x="127" y="1251" type="curve" smooth="yes"/>
      <point x="489" y="1251" type="line" smooth="yes"/>
      <point x="731" y="1251"/>
      <point x="887" y="1083"/>
      <point x="887" y="907" type="curve" smooth="yes"/>
      <point x="887" y="823"/>
      <point x="848" y="698"/>
      <point x="713" y="623" type="curve"/>
      <point x="741" y="600"/>
      <point x="788" y="557"/>
      <point x="813" y="498" type="curve" smooth="yes"/>
      <point x="831" y="451"/>
      <point x="831" y="434"/>
      <point x="831" y="305" type="curve" smooth="yes"/>
      <point x="831" y="197"/>
      <point x="831" y="102"/>
      <point x="889" y="102" type="curve" smooth="yes"/>
      <point x="924" y="102"/>
      <point x="928" y="178"/>
      <point x="928" y="195" type="curve" smooth="yes"/>
      <point x="930" y="256"/>
      <point x="977" y="256"/>
      <point x="997" y="256" type="curve" smooth="yes"/>
      <point x="1020" y="256"/>
      <point x="1069" y="256"/>
    </contour>
    <contour>
      <point x="745" y="907" type="curve" smooth="yes"/>
      <point x="745" y="1006"/>
      <point x="655" y="1126"/>
      <point x="467" y="1126" type="curve" smooth="yes"/>
      <point x="319" y="1126" type="line"/>
      <point x="319" y="688" type="line"/>
      <point x="467" y="688" type="line" smooth="yes"/>
      <point x="653" y="688"/>
      <point x="745" y="807"/>
    </contour>
  </outline>
</glyph>
<glyph name="T" format="2">
  <advance width="1075"/>
  <unicode hex="0054"/>
  <outline>
    <contour>
      <point x="1020" y="1018" type="line" smooth="yes"/>
      <point x="1020" y="977"/>
      <point x="1020" y="934"/>
      <point x="948" y="934" type="curve" smooth="yes"/>
      <point x="879" y="934"/>
      <point x="879" y="979"/>
      <point x="879" y="1018" type="curve" smooth="yes"/>
      <point x="879" y="1126" type="line"/>
      <point x="608" y="1126" type="line"/>
      <point x="608" y="125" type="line"/>
      <point x="715" y="125" type="line" smooth="yes"/>
      <point x="748" y="125"/>
      <point x="797" y="125"/>
      <point x="797" y="61" type="curve" smooth="yes"/>
      <point x="797" y="0"/>
      <point x="745" y="0"/>
      <point x="715" y="0" type="curve" smooth="yes"/>
      <point x="360" y="0" type="line" smooth="yes"/>
      <point x="328" y="0"/>
      <point x="279" y="0"/>
      <point x="279" y="63" type="curve" smooth="yes"/>
      <point x="279" y="125"/>
      <point x="330" y="125"/>
      <point x="360" y="125" type="curve" smooth="yes"/>
      <point x="467" y="125" type="line"/>
      <point x="467" y="1126" type="line"/>
      <point x="195" y="1126" type="line"/>
      <point x="195" y="1018" type="line" smooth="yes"/>
      <point x="195" y="977"/>
      <point x="195" y="934"/>
      <point x="123" y="934" type="curve" smooth="yes"/>
      <point x="53" y="934"/>
      <point x="53" y="979"/>
      <point x="53" y="1018" type="curve" smooth="yes"/>
      <point x="53" y="1167" type="line" smooth="yes"/>
      <point x="53" y="1235"/>
      <point x="70" y="1251"/>
      <point x="137" y="1251" type="curve" smooth="yes"/>
      <point x="938" y="1251" type="line" smooth="yes"/>
      <point x="1008" y="1251"/>
      <point x="1020" y="1231"/>
      <point x="1020" y="1167" type="curve" smooth="yes"/>
    </contour>
  </outline>
</glyph>
<glyph name="U" format="2">
  <advance width="1075"/>
  <unicode hex="0055"/>
  <outline>
    <contour>
      <point x="1065" y="1190" type="curve" smooth="yes"/>
      <point x="1065" y="1126"/>
      <point x="1014" y="1126"/>
      <point x="981" y="1126" type="curve" smooth="yes"/>
      <point x="920" y="1126" type="line"/>
      <point x="920" y="418" type="line" smooth="yes"/>
      <point x="920" y="166"/>
      <point x="741" y="-23"/>
      <point x="537" y="-23" type="curve" smooth="yes"/>
      <point x="332" y="-23"/>
      <point x="154" y="166"/>
      <point x="154" y="418" type="curve" smooth="yes"/>
      <point x="154" y="1126" type="line"/>
      <point x="92" y="1126" type="line" smooth="yes"/>
      <point x="61" y="1126"/>
      <point x="8" y="1126"/>
      <point x="8" y="1190" type="curve" smooth="yes"/>
      <point x="8" y="1251"/>
      <point x="61" y="1251"/>
      <point x="92" y="1251" type="curve" smooth="yes"/>
      <point x="356" y="1251" type="line" smooth="yes"/>
      <point x="387" y="1251"/>
      <point x="440" y="1251"/>
      <point x="440" y="1190" type="curve" smooth="yes"/>
      <point x="440" y="1126"/>
      <point x="387" y="1126"/>
      <point x="356" y="1126" type="curve" smooth="yes"/>
      <point x="295" y="1126" type="line"/>
      <point x="295" y="428" type="line" smooth="yes"/>
      <point x="295" y="209"/>
      <point x="428" y="102"/>
      <point x="537" y="102" type="curve" smooth="yes"/>
      <point x="643" y="102"/>
      <point x="778" y="209"/>
      <point x="778" y="428" type="curve" smooth="yes"/>
      <point x="778" y="1126" type="line"/>
      <point x="717" y="1126" type="line" smooth="yes"/>
      <point x="686" y="1126"/>
      <point x="633" y="1126"/>
      <point x="633" y="1190" type="curve" smooth="yes"/>
      <point x="633" y="1251"/>
      <point x="686" y="1251"/>
      <point x="717" y="1251" type="curve" smooth="yes"/>
      <point x="981" y="1251" type="line" smooth="yes"/>
      <point x="1012" y="1251"/>
      <point x="1065" y="1251"/>
    </contour>
  </outline>
</glyph>
<glyph name="V" format="2">
  <advance width="1075"/>
  <unicode hex="0056"/>
  <outline>
    <contour>
      <point x="1036" y="1190" type="curve" smooth="yes"/>
      <point x="1036" y="1126"/>
      <point x="993" y="1126"/>
      <point x="920" y="1126" type="curve"/>
      <point x="649" y="59" type="line" smooth="yes"/>
      <point x="631" y="-16"/>
      <point x="592" y="-16"/>
      <point x="537" y="-16" type="curve" smooth="yes"/>
      <point x="477" y="-16"/>
      <point x="444" y="-16"/>
      <point x="424" y="61" type="curve" smooth="yes"/>
      <point x="154" y="1126" type="line"/>
      <point x="80" y="1126"/>
      <point x="37" y="1126"/>
      <point x="37" y="1190" type="curve" smooth="yes"/>
      <point x="37" y="1251"/>
      <point x="90" y="1251"/>
      <point x="121" y="1251" type="curve" smooth="yes"/>
      <point x="330" y="1251" type="line" smooth="yes"/>
      <point x="360" y="1251"/>
      <point x="414" y="1251"/>
      <point x="414" y="1190" type="curve" smooth="yes"/>
      <point x="414" y="1126"/>
      <point x="371" y="1126"/>
      <point x="299" y="1126" type="curve"/>
      <point x="498" y="330" type="line" smooth="yes"/>
      <point x="516" y="254"/>
      <point x="524" y="219"/>
      <point x="535" y="147" type="curve"/>
      <point x="537" y="147" type="line"/>
      <point x="551" y="236"/>
      <point x="590" y="391"/>
      <point x="616" y="500" type="curve" smooth="yes"/>
      <point x="774" y="1126" type="line"/>
      <point x="702" y="1126"/>
      <point x="659" y="1126"/>
      <point x="659" y="1190" type="curve" smooth="yes"/>
      <point x="659" y="1251"/>
      <point x="713" y="1251"/>
      <point x="743" y="1251" type="curve" smooth="yes"/>
      <point x="952" y="1251" type="line" smooth="yes"/>
      <point x="983" y="1251"/>
      <point x="1036" y="1251"/>
    </contour>
  </outline>
</glyph>
<glyph name="W" format="2">
  <advance width="1075"/>
  <unicode hex="0057"/>
  <outline>
    <contour>
      <point x="1051" y="1188" type="curve" smooth="yes"/>
      <point x="1051" y="1126"/>
      <point x="995" y="1126"/>
      <point x="973" y="1126" type="curve"/>
      <point x="825" y="55" type="line" smooth="yes"/>
      <point x="815" y="-16"/>
      <point x="766" y="-16"/>
      <point x="741" y="-16" type="curve" smooth="yes"/>
      <point x="727" y="-16"/>
      <point x="674" y="-16"/>
      <point x="659" y="35" type="curve"/>
      <point x="657" y="39"/>
      <point x="547" y="508"/>
      <point x="539" y="600" type="curve"/>
      <point x="537" y="600" type="line"/>
      <point x="528" y="518"/>
      <point x="418" y="39"/>
      <point x="412" y="25" type="curve"/>
      <point x="391" y="-16"/>
      <point x="350" y="-16"/>
      <point x="332" y="-16" type="curve" smooth="yes"/>
      <point x="307" y="-16"/>
      <point x="258" y="-16"/>
      <point x="248" y="55" type="curve" smooth="yes"/>
      <point x="100" y="1126" type="line"/>
      <point x="98" y="1126" type="line" smooth="yes"/>
      <point x="80" y="1126"/>
      <point x="23" y="1126"/>
      <point x="23" y="1188" type="curve" smooth="yes"/>
      <point x="23" y="1251"/>
      <point x="76" y="1251"/>
      <point x="106" y="1251" type="curve" smooth="yes"/>
      <point x="268" y="1251" type="line" smooth="yes"/>
      <point x="301" y="1251"/>
      <point x="350" y="1251"/>
      <point x="350" y="1188" type="curve" smooth="yes"/>
      <point x="350" y="1126"/>
      <point x="299" y="1126"/>
      <point x="268" y="1126" type="curve" smooth="yes"/>
      <point x="217" y="1126" type="line"/>
      <point x="324" y="315" type="line" smooth="yes"/>
      <point x="338" y="205"/>
      <point x="340" y="166"/>
      <point x="340" y="156" type="curve"/>
      <point x="342" y="156" type="line"/>
      <point x="352" y="283"/>
      <point x="449" y="692"/>
      <point x="455" y="707" type="curve" smooth="yes"/>
      <point x="475" y="752"/>
      <point x="516" y="752"/>
      <point x="537" y="752" type="curve" smooth="yes"/>
      <point x="555" y="752"/>
      <point x="602" y="752"/>
      <point x="621" y="705" type="curve"/>
      <point x="623" y="692"/>
      <point x="719" y="287"/>
      <point x="731" y="156" type="curve"/>
      <point x="733" y="156" type="line"/>
      <point x="735" y="213"/>
      <point x="750" y="319"/>
      <point x="766" y="444" type="curve" smooth="yes"/>
      <point x="856" y="1126" type="line"/>
      <point x="805" y="1126" type="line" smooth="yes"/>
      <point x="774" y="1126"/>
      <point x="723" y="1126"/>
      <point x="723" y="1188" type="curve" smooth="yes"/>
      <point x="723" y="1251"/>
      <point x="772" y="1251"/>
      <point x="805" y="1251" type="curve" smooth="yes"/>
      <point x="967" y="1251" type="line" smooth="yes"/>
      <point x="997" y="1251"/>
      <point x="1051" y="1251"/>
    </contour>
  </outline>
</glyph>
<glyph name="X" format="2">
  <advance width="1075"/>
  <unicode hex="0058"/>
  <outline>
    <contour>
      <point x="1016" y="61" type="curve" smooth="yes"/>
      <point x="1016" y="0"/>
      <point x="963" y="0"/>
      <point x="932" y="0" type="curve" smooth="yes"/>
      <point x="719" y="0" type="line" smooth="yes"/>
      <point x="688" y="0"/>
      <point x="637" y="0"/>
      <point x="637" y="61" type="curve" smooth="yes"/>
      <point x="637" y="125"/>
      <point x="682" y="125"/>
      <point x="729" y="125" type="curve"/>
      <point x="526" y="522" type="line"/>
      <point x="338" y="125" type="line"/>
      <point x="385" y="125"/>
      <point x="434" y="125"/>
      <point x="434" y="61" type="curve" smooth="yes"/>
      <point x="434" y="0"/>
      <point x="381" y="0"/>
      <point x="350" y="0" type="curve" smooth="yes"/>
      <point x="137" y="0" type="line" smooth="yes"/>
      <point x="106" y="0"/>
      <point x="55" y="0"/>
      <point x="55" y="61" type="curve" smooth="yes"/>
      <point x="55" y="125"/>
      <point x="104" y="125"/>
      <point x="137" y="125" type="curve" smooth="yes"/>
      <point x="182" y="125" type="line"/>
      <point x="455" y="666" type="line"/>
      <point x="209" y="1126" type="line"/>
      <point x="162" y="1126" type="line" smooth="yes"/>
      <point x="131" y="1126"/>
      <point x="78" y="1126"/>
      <point x="78" y="1190" type="curve" smooth="yes"/>
      <point x="78" y="1251"/>
      <point x="131" y="1251"/>
      <point x="162" y="1251" type="curve" smooth="yes"/>
      <point x="375" y="1251" type="line" smooth="yes"/>
      <point x="406" y="1251"/>
      <point x="457" y="1251"/>
      <point x="457" y="1190" type="curve" smooth="yes"/>
      <point x="457" y="1126"/>
      <point x="410" y="1126"/>
      <point x="369" y="1126" type="curve"/>
      <point x="526" y="827" type="line"/>
      <point x="672" y="1126" type="line"/>
      <point x="625" y="1126"/>
      <point x="578" y="1126"/>
      <point x="578" y="1190" type="curve" smooth="yes"/>
      <point x="578" y="1251"/>
      <point x="629" y="1251"/>
      <point x="659" y="1251" type="curve" smooth="yes"/>
      <point x="872" y="1251" type="line" smooth="yes"/>
      <point x="903" y="1251"/>
      <point x="956" y="1251"/>
      <point x="956" y="1188" type="curve" smooth="yes"/>
      <point x="956" y="1126"/>
      <point x="903" y="1126"/>
      <point x="872" y="1126" type="curve" smooth="yes"/>
      <point x="827" y="1126" type="line"/>
      <point x="596" y="668" type="line"/>
      <point x="885" y="125" type="line"/>
      <point x="932" y="125" type="line" smooth="yes"/>
      <point x="963" y="125"/>
      <point x="1016" y="125"/>
    </contour>
  </outline>
</glyph>
<glyph name="Y" format="2">
  <advance width="1075"/>
  <unicode hex="0059"/>
  <outline>
    <contour>
      <point x="1034" y="1188" type="curve" smooth="yes"/>
      <point x="1034" y="1126"/>
      <point x="983" y="1126"/>
      <point x="952" y="1126" type="curve" smooth="yes"/>
      <point x="909" y="1126" type="line"/>
      <point x="608" y="500" type="line"/>
      <point x="608" y="125" type="line"/>
      <point x="659" y="125" type="line" smooth="yes"/>
      <point x="692" y="125"/>
      <point x="741" y="125"/>
      <point x="741" y="61" type="curve" smooth="yes"/>
      <point x="741" y="0"/>
      <point x="690" y="0"/>
      <point x="659" y="0" type="curve" smooth="yes"/>
      <point x="416" y="0" type="line" smooth="yes"/>
      <point x="383" y="0"/>
      <point x="334" y="0"/>
      <point x="334" y="63" type="curve" smooth="yes"/>
      <point x="334" y="125"/>
      <point x="385" y="125"/>
      <point x="416" y="125" type="curve" smooth="yes"/>
      <point x="467" y="125" type="line"/>
      <point x="467" y="500" type="line"/>
      <point x="164" y="1126" type="line"/>
      <point x="121" y="1126" type="line" smooth="yes"/>
      <point x="88" y="1126"/>
      <point x="39" y="1126"/>
      <point x="39" y="1190" type="curve" smooth="yes"/>
      <point x="39" y="1251"/>
      <point x="90" y="1251"/>
      <point x="121" y="1251" type="curve" smooth="yes"/>
      <point x="334" y="1251" type="line" smooth="yes"/>
      <point x="365" y="1251"/>
      <point x="416" y="1251"/>
      <point x="416" y="1190" type="curve" smooth="yes"/>
      <point x="416" y="1126"/>
      <point x="371" y="1126"/>
      <point x="322" y="1126" type="curve"/>
      <point x="342" y="1083"/>
      <point x="508" y="748"/>
      <point x="537" y="643" type="curve"/>
      <point x="752" y="1126" type="line"/>
      <point x="702" y="1126"/>
      <point x="657" y="1126"/>
      <point x="657" y="1190" type="curve" smooth="yes"/>
      <point x="657" y="1251"/>
      <point x="709" y="1251"/>
      <point x="739" y="1251" type="curve" smooth="yes"/>
      <point x="952" y="1251" type="line" smooth="yes"/>
      <point x="985" y="1251"/>
      <point x="1034" y="1251"/>
    </contour>
  </outline>
</glyph>
<glyph name="Z" format="2">
  <advance width="1075"/>
  <unicode hex="005A"/>
  <outline>
    <contour>
      <point x="985" y="84" type="line" smooth="yes"/>
      <point x="985" y="18"/>
      <point x="971" y="0"/>
      <point x="903" y="0" type="curve" smooth="yes"/>
      <point x="182" y="0" type="line" smooth="yes"/>
      <point x="143" y="0"/>
      <point x="98" y="0"/>
      <point x="98" y="70" type="curve" smooth="yes"/>
      <point x="98" y="90"/>
      <point x="98" y="102"/>
      <point x="119" y="133" type="curve" smooth="yes"/>
      <point x="793" y="1126" type="line"/>
      <point x="264" y="1126" type="line"/>
      <point x="264" y="1018" type="line" smooth="yes"/>
      <point x="264" y="977"/>
      <point x="264" y="934"/>
      <point x="193" y="934" type="curve" smooth="yes"/>
      <point x="123" y="934"/>
      <point x="123" y="979"/>
      <point x="123" y="1018" type="curve" smooth="yes"/>
      <point x="123" y="1167" type="line" smooth="yes"/>
      <point x="123" y="1235"/>
      <point x="139" y="1251"/>
      <point x="207" y="1251" type="curve" smooth="yes"/>
      <point x="891" y="1251" type="line" smooth="yes"/>
      <point x="930" y="1251"/>
      <point x="975" y="1251"/>
      <point x="975" y="1182" type="curve" smooth="yes"/>
      <point x="975" y="1161"/>
      <point x="975" y="1149"/>
      <point x="954" y="1118" type="curve" smooth="yes"/>
      <point x="281" y="125" type="line"/>
      <point x="844" y="125" type="line"/>
      <point x="844" y="272" type="line" smooth="yes"/>
      <point x="844" y="313"/>
      <point x="844" y="356"/>
      <point x="915" y="356" type="curve" smooth="yes"/>
      <point x="985" y="356"/>
      <point x="985" y="311"/>
      <point x="985" y="272" type="curve" smooth="yes"/>
    </contour>
  </outline>
</glyph>
<glyph name="bracketleft" format="2">
  <advance width="1075"/>
  <unicode hex="005B"/>
  <outline>
    <contour>
      <point x="989" y="-109" type="curve" smooth="yes"/>
      <point x="989" y="-170"/>
      <point x="938" y="-170"/>
      <point x="907" y="-170" type="curve" smooth="yes"/>
      <point x="537" y="-170" type="line" smooth="yes"/>
      <point x="467" y="-170"/>
      <point x="455" y="-150"/>
      <point x="455" y="-86" type="curve" smooth="yes"/>
      <point x="455" y="1337" type="line" smooth="yes"/>
      <point x="455" y="1403"/>
      <point x="469" y="1421"/>
      <point x="537" y="1421" type="curve" smooth="yes"/>
      <point x="907" y="1421" type="line" smooth="yes"/>
      <point x="940" y="1421"/>
      <point x="989" y="1421"/>
      <point x="989" y="1358" type="curve" smooth="yes"/>
      <point x="989" y="1296"/>
      <point x="938" y="1296"/>
      <point x="907" y="1296" type="curve" smooth="yes"/>
      <point x="596" y="1296" type="line"/>
      <point x="596" y="-45" type="line"/>
      <point x="907" y="-45" type="line" smooth="yes"/>
      <point x="940" y="-45"/>
      <point x="989" y="-45"/>
    </contour>
  </outline>
</glyph>
<glyph name="backslash" format="2">
  <advance width="1075"/>
  <unicode hex="005C"/>
  <outline>
    <contour>
      <point x="954" y="-98" type="curve" smooth="yes"/>
      <point x="954" y="-135"/>
      <point x="924" y="-170"/>
      <point x="883" y="-170" type="curve" smooth="yes"/>
      <point x="838" y="-170"/>
      <point x="821" y="-135"/>
      <point x="811" y="-115" type="curve" smooth="yes"/>
      <point x="133" y="1300" type="line" smooth="yes"/>
      <point x="127" y="1313"/>
      <point x="119" y="1333"/>
      <point x="119" y="1350" type="curve" smooth="yes"/>
      <point x="119" y="1386"/>
      <point x="150" y="1421"/>
      <point x="190" y="1421" type="curve" smooth="yes"/>
      <point x="236" y="1421"/>
      <point x="252" y="1386"/>
      <point x="262" y="1366" type="curve" smooth="yes"/>
      <point x="940" y="-49" type="line" smooth="yes"/>
      <point x="946" y="-61"/>
      <point x="954" y="-82"/>
    </contour>
  </outline>
</glyph>
<glyph name="bracketright" format="2">
  <advance width="1075"/>
  <unicode hex="005D"/>
  <outline>
    <contour>
      <point x="618" y="-86" type="line" smooth="yes"/>
      <point x="618" y="-152"/>
      <point x="604" y="-170"/>
      <point x="537" y="-170" type="curve" smooth="yes"/>
      <point x="166" y="-170" type="line" smooth="yes"/>
      <point x="133" y="-170"/>
      <point x="84" y="-170"/>
      <point x="84" y="-106" type="curve" smooth="yes"/>
      <point x="84" y="-45"/>
      <point x="135" y="-45"/>
      <point x="166" y="-45" type="curve" smooth="yes"/>
      <point x="477" y="-45" type="line"/>
      <point x="477" y="1296" type="line"/>
      <point x="166" y="1296" type="line" smooth="yes"/>
      <point x="133" y="1296"/>
      <point x="84" y="1296"/>
      <point x="84" y="1360" type="curve" smooth="yes"/>
      <point x="84" y="1421"/>
      <point x="135" y="1421"/>
      <point x="166" y="1421" type="curve" smooth="yes"/>
      <point x="537" y="1421" type="line" smooth="yes"/>
      <point x="606" y="1421"/>
      <point x="618" y="1401"/>
      <point x="618" y="1337" type="curve" smooth="yes"/>
    </contour>
  </outline>
</glyph>
<glyph name="asciicircum" format="2">
  <advance width="1075"/>
  <unicode hex="005E"/>
  <outline>
    <contour>
      <point x="895" y="1112" type="line" smooth="yes"/>
      <point x="967" y="1077"/>
      <point x="918" y="971"/>
      <point x="846" y="1001" type="curve" smooth="yes"/>
      <point x="537" y="1135" type="line"/>
      <point x="227" y="1001" type="line" smooth="yes"/>
      <point x="158" y="971"/>
      <point x="109" y="1077"/>
      <point x="180" y="1112" type="curve" smooth="yes"/>
      <point x="514" y="1274" type="line" smooth="yes"/>
      <point x="528" y="1280"/>
      <point x="547" y="1280"/>
      <point x="561" y="1274" type="curve" smooth="yes"/>
    </contour>
  </outline>
</glyph>
<glyph name="grave" format="2">
  <advance width="1075"/>
  <unicode hex="0060"/>
  <outline>
    <contour>
      <point x="754" y="1081" type="curve" smooth="yes"/>
      <point x="754" y="1065"/>
      <point x="739" y="999"/>
      <point x="686" y="999" type="curve" smooth="yes"/>
      <point x="672" y="999"/>
      <point x="662" y="1004"/>
      <point x="649" y="1010" type="curve" smooth="yes"/>
      <point x="377" y="1130" type="line" smooth="yes"/>
      <point x="328" y="1153"/>
      <point x="319" y="1180"/>
      <point x="319" y="1202" type="curve" smooth="yes"/>
      <point x="319" y="1243"/>
      <point x="350" y="1274"/>
      <point x="391" y="1274" type="curve"/>
      <point x="391" y="1274"/>
      <point x="408" y="1274"/>
      <point x="430" y="1264" type="curve" smooth="yes"/>
      <point x="702" y="1141" type="line" smooth="yes"/>
      <point x="731" y="1128"/>
      <point x="754" y="1118"/>
    </contour>
  </outline>
</glyph>
<glyph name="a" format="2">
  <advance width="1075"/>
  <unicode hex="0061"/>
  <outline>
    <contour>
      <point x="1063" y="63" type="curve" smooth="yes"/>
      <point x="1063" y="0"/>
      <point x="1018" y="0"/>
      <point x="961" y="0" type="curve" smooth="yes"/>
      <point x="883" y="0"/>
      <point x="784" y="2"/>
      <point x="739" y="66" type="curve"/>
      <point x="643" y="2"/>
      <point x="516" y="-12"/>
      <point x="440" y="-12" type="curve" smooth="yes"/>
      <point x="231" y="-12"/>
      <point x="102" y="121"/>
      <point x="102" y="262" type="curve" smooth="yes"/>
      <point x="102" y="459"/>
      <point x="354" y="561"/>
      <point x="717" y="567" type="curve"/>
      <point x="717" y="713"/>
      <point x="610" y="776"/>
      <point x="455" y="776" type="curve" smooth="yes"/>
      <point x="436" y="776"/>
      <point x="410" y="776"/>
      <point x="381" y="774" type="curve" smooth="yes"/>
      <point x="340" y="770"/>
      <point x="338" y="768"/>
      <point x="338" y="752" type="curve"/>
      <point x="336" y="676"/>
      <point x="279" y="657"/>
      <point x="248" y="657" type="curve" smooth="yes"/>
      <point x="199" y="657"/>
      <point x="156" y="690"/>
      <point x="156" y="752" type="curve" smooth="yes"/>
      <point x="156" y="901"/>
      <point x="365" y="901"/>
      <point x="453" y="901" type="curve" smooth="yes"/>
      <point x="748" y="901"/>
      <point x="858" y="729"/>
      <point x="858" y="584" type="curve" smooth="yes"/>
      <point x="858" y="141" type="line"/>
      <point x="874" y="135"/>
      <point x="895" y="125"/>
      <point x="981" y="125" type="curve" smooth="yes"/>
      <point x="1012" y="125"/>
      <point x="1063" y="125"/>
    </contour>
    <contour>
      <point x="717" y="274" type="curve" smooth="yes"/>
      <point x="717" y="446" type="line"/>
      <point x="420" y="438"/>
      <point x="244" y="362"/>
      <point x="244" y="262" type="curve" smooth="yes"/>
      <point x="244" y="182"/>
      <point x="328" y="113"/>
      <point x="455" y="113" type="curve" smooth="yes"/>
      <point x="471" y="113"/>
      <point x="563" y="113"/>
      <point x="637" y="147" type="curve" smooth="yes"/>
      <point x="717" y="184"/>
      <point x="717" y="227"/>
    </contour>
  </outline>
</glyph>
<glyph name="c" format="2">
  <advance width="1075"/>
  <unicode hex="0063"/>
  <outline>
    <contour>
      <point x="954" y="223" type="curve" smooth="yes"/>
      <point x="954" y="188"/>
      <point x="885" y="-12"/>
      <point x="600" y="-12" type="curve" smooth="yes"/>
      <point x="342" y="-12"/>
      <point x="150" y="197"/>
      <point x="150" y="442" type="curve" smooth="yes"/>
      <point x="150" y="623"/>
      <point x="272" y="901"/>
      <point x="625" y="901" type="curve" smooth="yes"/>
      <point x="717" y="901"/>
      <point x="930" y="901"/>
      <point x="930" y="752" type="curve" smooth="yes"/>
      <point x="930" y="692"/>
      <point x="887" y="657"/>
      <point x="838" y="657" type="curve" smooth="yes"/>
      <point x="788" y="657"/>
      <point x="750" y="686"/>
      <point x="748" y="758" type="curve" smooth="yes"/>
      <point x="748" y="776"/>
      <point x="668" y="776"/>
      <point x="625" y="776" type="curve" smooth="yes"/>
      <point x="348" y="776"/>
      <point x="291" y="541"/>
      <point x="291" y="442" type="curve" smooth="yes"/>
      <point x="291" y="256"/>
      <point x="438" y="113"/>
      <point x="612" y="113" type="curve" smooth="yes"/>
      <point x="764" y="113"/>
      <point x="803" y="209"/>
      <point x="815" y="236" type="curve"/>
      <point x="829" y="276"/>
      <point x="850" y="281"/>
      <point x="883" y="281" type="curve" smooth="yes"/>
      <point x="895" y="281"/>
      <point x="954" y="281"/>
    </contour>
  </outline>
</glyph>
<glyph name="d" format="2">
  <advance width="1075"/>
  <unicode hex="0064"/>
  <outline>
    <contour>
      <point x="1049" y="63" type="curve" smooth="yes"/>
      <point x="1049" y="0"/>
      <point x="997" y="0"/>
      <point x="965" y="0" type="curve" smooth="yes"/>
      <point x="815" y="0" type="line" smooth="yes"/>
      <point x="733" y="0"/>
      <point x="733" y="29"/>
      <point x="733" y="102" type="curve"/>
      <point x="676" y="43"/>
      <point x="590" y="-12"/>
      <point x="475" y="-12" type="curve" smooth="yes"/>
      <point x="258" y="-12"/>
      <point x="74" y="186"/>
      <point x="74" y="440" type="curve" smooth="yes"/>
      <point x="74" y="700"/>
      <point x="270" y="895"/>
      <point x="494" y="895" type="curve" smooth="yes"/>
      <point x="582" y="895"/>
      <point x="666" y="862"/>
      <point x="733" y="803" type="curve"/>
      <point x="733" y="1126" type="line"/>
      <point x="641" y="1126" type="line" smooth="yes"/>
      <point x="612" y="1126"/>
      <point x="559" y="1126"/>
      <point x="559" y="1188" type="curve" smooth="yes"/>
      <point x="559" y="1251"/>
      <point x="610" y="1251"/>
      <point x="643" y="1251" type="curve" smooth="yes"/>
      <point x="793" y="1251" type="line" smooth="yes"/>
      <point x="862" y="1251"/>
      <point x="874" y="1231"/>
      <point x="874" y="1167" type="curve" smooth="yes"/>
      <point x="874" y="125" type="line"/>
      <point x="967" y="125" type="line" smooth="yes"/>
      <point x="995" y="125"/>
      <point x="1049" y="125"/>
    </contour>
    <contour>
      <point x="733" y="397" type="curve" smooth="yes"/>
      <point x="733" y="543" type="line" smooth="yes"/>
      <point x="733" y="655"/>
      <point x="633" y="770"/>
      <point x="502" y="770" type="curve" smooth="yes"/>
      <point x="358" y="770"/>
      <point x="215" y="637"/>
      <point x="215" y="440" type="curve" smooth="yes"/>
      <point x="215" y="258"/>
      <point x="338" y="113"/>
      <point x="483" y="113" type="curve" smooth="yes"/>
      <point x="641" y="113"/>
      <point x="733" y="283"/>
    </contour>
  </outline>
</glyph>
<glyph name="e" format="2">
  <advance width="1075"/>
  <unicode hex="0065"/>
  <outline>
    <contour>
      <point x="950" y="223" type="curve" smooth="yes"/>
      <point x="950" y="172"/>
      <point x="854" y="-12"/>
      <point x="584" y="-12" type="curve" smooth="yes"/>
      <point x="319" y="-12"/>
      <point x="113" y="195"/>
      <point x="113" y="444" type="curve" smooth="yes"/>
      <point x="113" y="696"/>
      <point x="309" y="901"/>
      <point x="553" y="901" type="curve" smooth="yes"/>
      <point x="819" y="901"/>
      <point x="950" y="700"/>
      <point x="950" y="467" type="curve" smooth="yes"/>
      <point x="950" y="391"/>
      <point x="911" y="391"/>
      <point x="868" y="391" type="curve" smooth="yes"/>
      <point x="258" y="391" type="line"/>
      <point x="291" y="215"/>
      <point x="444" y="113"/>
      <point x="598" y="113" type="curve" smooth="yes"/>
      <point x="655" y="113"/>
      <point x="766" y="131"/>
      <point x="811" y="236" type="curve"/>
      <point x="825" y="274"/>
      <point x="842" y="281"/>
      <point x="879" y="281" type="curve" smooth="yes"/>
      <point x="891" y="281"/>
      <point x="950" y="281"/>
    </contour>
    <contour>
      <point x="805" y="514" type="line"/>
      <point x="786" y="725"/>
      <point x="659" y="776"/>
      <point x="553" y="776" type="curve" smooth="yes"/>
      <point x="410" y="776"/>
      <point x="289" y="664"/>
      <point x="260" y="514" type="curve"/>
    </contour>
  </outline>
</glyph>
<glyph name="f" format="2">
  <advance width="1075"/>
  <unicode hex="0066"/>
  <outline>
    <contour>
      <point x="895" y="1141" type="curve" smooth="yes"/>
      <point x="895" y="1083"/>
      <point x="848" y="1051"/>
      <point x="807" y="1051" type="curve" smooth="yes"/>
      <point x="735" y="1051"/>
      <point x="717" y="1130"/>
      <point x="717" y="1139" type="curve"/>
      <point x="655" y="1139"/>
      <point x="518" y="1139"/>
      <point x="518" y="979" type="curve" smooth="yes"/>
      <point x="518" y="883" type="line"/>
      <point x="768" y="883" type="line" smooth="yes"/>
      <point x="801" y="883"/>
      <point x="850" y="883"/>
      <point x="850" y="819" type="curve" smooth="yes"/>
      <point x="850" y="758"/>
      <point x="799" y="758"/>
      <point x="768" y="758" type="curve" smooth="yes"/>
      <point x="518" y="758" type="line"/>
      <point x="518" y="125" type="line"/>
      <point x="725" y="125" type="line" smooth="yes"/>
      <point x="756" y="125"/>
      <point x="809" y="125"/>
      <point x="809" y="61" type="curve" smooth="yes"/>
      <point x="809" y="0"/>
      <point x="756" y="0"/>
      <point x="725" y="0" type="curve" smooth="yes"/>
      <point x="170" y="0" type="line" smooth="yes"/>
      <point x="139" y="0"/>
      <point x="86" y="0"/>
      <point x="86" y="63" type="curve" smooth="yes"/>
      <point x="86" y="125"/>
      <point x="139" y="125"/>
      <point x="170" y="125" type="curve" smooth="yes"/>
      <point x="377" y="125" type="line"/>
      <point x="377" y="758" type="line"/>
      <point x="170" y="758" type="line" smooth="yes"/>
      <point x="139" y="758"/>
      <point x="88" y="758"/>
      <point x="88" y="819" type="curve" smooth="yes"/>
      <point x="88" y="883"/>
      <point x="139" y="883"/>
      <point x="172" y="883" type="curve" smooth="yes"/>
      <point x="377" y="883" type="line"/>
      <point x="377" y="991" type="line" smooth="yes"/>
      <point x="377" y="1169"/>
      <point x="535" y="1264"/>
      <point x="698" y="1264" type="curve" smooth="yes"/>
      <point x="731" y="1264"/>
      <point x="895" y="1264"/>
    </contour>
  </outline>
</glyph>
<glyph name="g" format="2">
  <advance width="1075"/>
  <unicode hex="0067"/>
  <outline>
    <contour>
      <point x="1042" y="795" type="curve" smooth="yes"/>
      <point x="1042" y="735"/>
      <point x="995" y="711"/>
      <point x="961" y="711" type="curve" smooth="yes"/>
      <point x="940" y="711"/>
      <point x="893" y="725"/>
      <point x="881" y="780" type="curve"/>
      <point x="854" y="778"/>
      <point x="805" y="770"/>
      <point x="762" y="745" type="curve"/>
      <point x="797" y="688"/>
      <point x="815" y="629"/>
      <point x="815" y="567" type="curve" smooth="yes"/>
      <point x="815" y="385"/>
      <point x="666" y="238"/>
      <point x="477" y="238" type="curve" smooth="yes"/>
      <point x="377" y="238"/>
      <point x="299" y="285"/>
      <point x="293" y="289" type="curve"/>
      <point x="285" y="268"/>
      <point x="281" y="240"/>
      <point x="281" y="231" type="curve"/>
      <point x="281" y="231"/>
      <point x="283" y="186"/>
      <point x="305" y="158" type="curve" smooth="yes"/>
      <point x="330" y="129"/>
      <point x="342" y="129"/>
      <point x="373" y="129" type="curve"/>
      <point x="389" y="125"/>
      <point x="416" y="125"/>
      <point x="432" y="125" type="curve" smooth="yes"/>
      <point x="575" y="125" type="line" smooth="yes"/>
      <point x="760" y="125"/>
      <point x="846" y="80"/>
      <point x="872" y="66" type="curve" smooth="yes"/>
      <point x="977" y="10"/>
      <point x="1014" y="-92"/>
      <point x="1014" y="-168" type="curve" smooth="yes"/>
      <point x="1014" y="-342"/>
      <point x="799" y="-469"/>
      <point x="537" y="-469" type="curve" smooth="yes"/>
      <point x="274" y="-469"/>
      <point x="59" y="-344"/>
      <point x="59" y="-168" type="curve" smooth="yes"/>
      <point x="59" y="-145"/>
      <point x="59" y="-6"/>
      <point x="211" y="86" type="curve"/>
      <point x="193" y="111"/>
      <point x="164" y="162"/>
      <point x="164" y="233" type="curve" smooth="yes"/>
      <point x="164" y="295"/>
      <point x="182" y="340"/>
      <point x="205" y="373" type="curve"/>
      <point x="174" y="412"/>
      <point x="139" y="479"/>
      <point x="139" y="567" type="curve" smooth="yes"/>
      <point x="139" y="741"/>
      <point x="285" y="895"/>
      <point x="477" y="895" type="curve" smooth="yes"/>
      <point x="571" y="895"/>
      <point x="643" y="856"/>
      <point x="676" y="834" type="curve"/>
      <point x="770" y="903"/>
      <point x="870" y="905"/>
      <point x="893" y="905" type="curve" smooth="yes"/>
      <point x="1004" y="905"/>
      <point x="1042" y="842"/>
    </contour>
    <contour>
      <point x="674" y="567" type="curve" smooth="yes"/>
      <point x="674" y="676"/>
      <point x="588" y="772"/>
      <point x="477" y="772" type="curve" smooth="yes"/>
      <point x="371" y="772"/>
      <point x="281" y="682"/>
      <point x="281" y="565" type="curve" smooth="yes"/>
      <point x="281" y="457"/>
      <point x="367" y="360"/>
      <point x="477" y="360" type="curve" smooth="yes"/>
      <point x="584" y="360"/>
      <point x="674" y="451"/>
    </contour>
    <contour>
      <point x="895" y="-168" type="curve" smooth="yes"/>
      <point x="895" y="8"/>
      <point x="664" y="8"/>
      <point x="481" y="8" type="curve" smooth="yes"/>
      <point x="332" y="8"/>
      <point x="313" y="8"/>
      <point x="262" y="-25" type="curve" smooth="yes"/>
      <point x="197" y="-66"/>
      <point x="178" y="-131"/>
      <point x="178" y="-168" type="curve" smooth="yes"/>
      <point x="178" y="-258"/>
      <point x="332" y="-346"/>
      <point x="537" y="-346" type="curve" smooth="yes"/>
      <point x="741" y="-346"/>
      <point x="895" y="-258"/>
    </contour>
  </outline>
</glyph>
<glyph name="h" format="2">
  <advance width="1075"/>
  <unicode hex="0068"/>
  <outline>
    <contour>
      <point x="1049" y="61" type="curve" smooth="yes"/>
      <point x="1049" y="0"/>
      <point x="995" y="0"/>
      <point x="967" y="0" type="curve" smooth="yes"/>
      <point x="653" y="0" type="line" smooth="yes"/>
      <point x="625" y="0"/>
      <point x="569" y="0"/>
      <point x="569" y="61" type="curve" smooth="yes"/>
      <point x="569" y="125"/>
      <point x="621" y="125"/>
      <point x="653" y="125" type="curve" smooth="yes"/>
      <point x="733" y="125" type="line"/>
      <point x="733" y="590" type="line" smooth="yes"/>
      <point x="733" y="713"/>
      <point x="705" y="770"/>
      <point x="596" y="770" type="curve" smooth="yes"/>
      <point x="492" y="770"/>
      <point x="340" y="692"/>
      <point x="340" y="487" type="curve" smooth="yes"/>
      <point x="340" y="125" type="line"/>
      <point x="430" y="125" type="line" smooth="yes"/>
      <point x="463" y="125"/>
      <point x="514" y="125"/>
      <point x="514" y="61" type="curve" smooth="yes"/>
      <point x="514" y="0"/>
      <point x="461" y="0"/>
      <point x="432" y="0" type="curve" smooth="yes"/>
      <point x="106" y="0" type="line" smooth="yes"/>
      <point x="78" y="0"/>
      <point x="25" y="0"/>
      <point x="25" y="61" type="curve" smooth="yes"/>
      <point x="25" y="125"/>
      <point x="76" y="125"/>
      <point x="109" y="125" type="curve" smooth="yes"/>
      <point x="199" y="125" type="line"/>
      <point x="199" y="1126" type="line"/>
      <point x="106" y="1126" type="line" smooth="yes"/>
      <point x="78" y="1126"/>
      <point x="25" y="1126"/>
      <point x="25" y="1188" type="curve" smooth="yes"/>
      <point x="25" y="1251"/>
      <point x="76" y="1251"/>
      <point x="109" y="1251" type="curve" smooth="yes"/>
      <point x="258" y="1251" type="line" smooth="yes"/>
      <point x="328" y="1251"/>
      <point x="340" y="1231"/>
      <point x="340" y="1167" type="curve" smooth="yes"/>
      <point x="340" y="786" type="line"/>
      <point x="379" y="825"/>
      <point x="471" y="895"/>
      <point x="608" y="895" type="curve" smooth="yes"/>
      <point x="770" y="895"/>
      <point x="874" y="807"/>
      <point x="874" y="600" type="curve" smooth="yes"/>
      <point x="874" y="125" type="line"/>
      <point x="965" y="125" type="line" smooth="yes"/>
      <point x="997" y="125"/>
      <point x="1049" y="125"/>
    </contour>
  </outline>
</glyph>
<glyph name="k" format="2">
  <advance width="1075"/>
  <unicode hex="006B"/>
  <outline>
    <contour>
      <point x="1040" y="61" type="curve" smooth="yes"/>
      <point x="1040" y="0"/>
      <point x="987" y="0"/>
      <point x="956" y="0" type="curve" smooth="yes"/>
      <point x="715" y="0" type="line" smooth="yes"/>
      <point x="684" y="0"/>
      <point x="633" y="0"/>
      <point x="633" y="61" type="curve" smooth="yes"/>
      <point x="633" y="125"/>
      <point x="674" y="125"/>
      <point x="748" y="125" type="curve"/>
      <point x="504" y="442" type="line"/>
      <point x="340" y="291" type="line"/>
      <point x="340" y="125" type="line"/>
      <point x="440" y="125" type="line" smooth="yes"/>
      <point x="473" y="125"/>
      <point x="522" y="125"/>
      <point x="522" y="61" type="curve" smooth="yes"/>
      <point x="522" y="0"/>
      <point x="471" y="0"/>
      <point x="440" y="0" type="curve" smooth="yes"/>
      <point x="125" y="0" type="line" smooth="yes"/>
      <point x="92" y="0"/>
      <point x="43" y="0"/>
      <point x="43" y="63" type="curve" smooth="yes"/>
      <point x="43" y="125"/>
      <point x="94" y="125"/>
      <point x="125" y="125" type="curve" smooth="yes"/>
      <point x="225" y="125" type="line"/>
      <point x="225" y="1126" type="line"/>
      <point x="125" y="1126" type="line" smooth="yes"/>
      <point x="92" y="1126"/>
      <point x="43" y="1126"/>
      <point x="43" y="1190" type="curve" smooth="yes"/>
      <point x="43" y="1251"/>
      <point x="94" y="1251"/>
      <point x="125" y="1251" type="curve" smooth="yes"/>
      <point x="258" y="1251" type="line" smooth="yes"/>
      <point x="328" y="1251"/>
      <point x="340" y="1231"/>
      <point x="340" y="1167" type="curve" smooth="yes"/>
      <point x="340" y="446" type="line"/>
      <point x="672" y="758" type="line"/>
      <point x="596" y="758" type="line" smooth="yes"/>
      <point x="565" y="758"/>
      <point x="514" y="758"/>
      <point x="514" y="819" type="curve" smooth="yes"/>
      <point x="514" y="883"/>
      <point x="563" y="883"/>
      <point x="596" y="883" type="curve" smooth="yes"/>
      <point x="911" y="883" type="line" smooth="yes"/>
      <point x="942" y="883"/>
      <point x="995" y="883"/>
      <point x="995" y="819" type="curve" smooth="yes"/>
      <point x="995" y="758"/>
      <point x="942" y="758"/>
      <point x="911" y="758" type="curve" smooth="yes"/>
      <point x="840" y="758" type="line"/>
      <point x="588" y="522" type="line"/>
      <point x="893" y="125" type="line"/>
      <point x="956" y="125" type="line" smooth="yes"/>
      <point x="987" y="125"/>
      <point x="1040" y="125"/>
    </contour>
  </outline>
</glyph>
<glyph name="l" format="2">
  <advance width="1075"/>
  <unicode hex="006C"/>
  <outline>
    <contour>
      <point x="956" y="61" type="curve" smooth="yes"/>
      <point x="956" y="0"/>
      <point x="905" y="0"/>
      <point x="874" y="0" type="curve" smooth="yes"/>
      <point x="201" y="0" type="line" smooth="yes"/>
      <point x="172" y="0"/>
      <point x="119" y="0"/>
      <point x="119" y="61" type="curve" smooth="yes"/>
      <point x="119" y="125"/>
      <point x="170" y="125"/>
      <point x="203" y="125" type="curve" smooth="yes"/>
      <point x="467" y="125" type="line"/>
      <point x="467" y="1126" type="line"/>
      <point x="201" y="1126" type="line" smooth="yes"/>
      <point x="172" y="1126"/>
      <point x="119" y="1126"/>
      <point x="119" y="1188" type="curve" smooth="yes"/>
      <point x="119" y="1251"/>
      <point x="170" y="1251"/>
      <point x="203" y="1251" type="curve" smooth="yes"/>
      <point x="526" y="1251" type="line" smooth="yes"/>
      <point x="596" y="1251"/>
      <point x="608" y="1231"/>
      <point x="608" y="1167" type="curve" smooth="yes"/>
      <point x="608" y="125" type="line"/>
      <point x="874" y="125" type="line" smooth="yes"/>
      <point x="907" y="125"/>
      <point x="956" y="125"/>
    </contour>
  </outline>
</glyph>
<glyph name="m" format="2">
  <advance width="1075"/>
  <unicode hex="006D"/>
  <outline>
    <contour>
      <point x="1057" y="61" type="curve" smooth="yes"/>
      <point x="1057" y="0"/>
      <point x="1004" y="0"/>
      <point x="973" y="0" type="curve" smooth="yes"/>
      <point x="819" y="0" type="line" smooth="yes"/>
      <point x="791" y="0"/>
      <point x="735" y="0"/>
      <point x="735" y="61" type="curve" smooth="yes"/>
      <point x="735" y="125"/>
      <point x="786" y="125"/>
      <point x="825" y="125" type="curve"/>
      <point x="825" y="602" type="line" smooth="yes"/>
      <point x="825" y="735"/>
      <point x="797" y="770"/>
      <point x="750" y="770" type="curve" smooth="yes"/>
      <point x="666" y="770"/>
      <point x="582" y="674"/>
      <point x="582" y="492" type="curve" smooth="yes"/>
      <point x="582" y="125" type="line"/>
      <point x="655" y="125"/>
      <point x="698" y="125"/>
      <point x="698" y="61" type="curve" smooth="yes"/>
      <point x="698" y="0"/>
      <point x="645" y="0"/>
      <point x="614" y="0" type="curve" smooth="yes"/>
      <point x="461" y="0" type="line" smooth="yes"/>
      <point x="432" y="0"/>
      <point x="377" y="0"/>
      <point x="377" y="61" type="curve" smooth="yes"/>
      <point x="377" y="125"/>
      <point x="428" y="125"/>
      <point x="467" y="125" type="curve"/>
      <point x="467" y="602" type="line" smooth="yes"/>
      <point x="467" y="735"/>
      <point x="438" y="770"/>
      <point x="391" y="770" type="curve" smooth="yes"/>
      <point x="307" y="770"/>
      <point x="223" y="674"/>
      <point x="223" y="492" type="curve" smooth="yes"/>
      <point x="223" y="125" type="line"/>
      <point x="297" y="125"/>
      <point x="340" y="125"/>
      <point x="340" y="61" type="curve" smooth="yes"/>
      <point x="340" y="0"/>
      <point x="287" y="0"/>
      <point x="256" y="0" type="curve" smooth="yes"/>
      <point x="76" y="0" type="line" smooth="yes"/>
      <point x="47" y="0"/>
      <point x="-8" y="0"/>
      <point x="-8" y="61" type="curve" smooth="yes"/>
      <point x="-8" y="125"/>
      <point x="35" y="125"/>
      <point x="109" y="125" type="curve"/>
      <point x="109" y="758" type="line"/>
      <point x="35" y="758"/>
      <point x="-8" y="758"/>
      <point x="-8" y="821" type="curve" smooth="yes"/>
      <point x="-8" y="883"/>
      <point x="45" y="883"/>
      <point x="76" y="883" type="curve" smooth="yes"/>
      <point x="141" y="883" type="line" smooth="yes"/>
      <point x="178" y="883"/>
      <point x="219" y="883"/>
      <point x="223" y="821" type="curve"/>
      <point x="272" y="866"/>
      <point x="334" y="895"/>
      <point x="399" y="895" type="curve" smooth="yes"/>
      <point x="467" y="895"/>
      <point x="524" y="858"/>
      <point x="555" y="788" type="curve"/>
      <point x="612" y="868"/>
      <point x="696" y="895"/>
      <point x="758" y="895" type="curve" smooth="yes"/>
      <point x="940" y="895"/>
      <point x="940" y="662"/>
      <point x="940" y="621" type="curve" smooth="yes"/>
      <point x="940" y="125" type="line"/>
      <point x="1014" y="125"/>
      <point x="1057" y="125"/>
    </contour>
  </outline>
</glyph>
<glyph name="n" format="2">
  <advance width="1075"/>
  <unicode hex="006E"/>
  <outline>
    <contour>
      <point x="1049" y="61" type="curve" smooth="yes"/>
      <point x="1049" y="0"/>
      <point x="995" y="0"/>
      <point x="967" y="0" type="curve" smooth="yes"/>
      <point x="653" y="0" type="line" smooth="yes"/>
      <point x="625" y="0"/>
      <point x="569" y="0"/>
      <point x="569" y="61" type="curve" smooth="yes"/>
      <point x="569" y="125"/>
      <point x="621" y="125"/>
      <point x="653" y="125" type="curve" smooth="yes"/>
      <point x="733" y="125" type="line"/>
      <point x="733" y="590" type="line" smooth="yes"/>
      <point x="733" y="713"/>
      <point x="705" y="770"/>
      <point x="596" y="770" type="curve" smooth="yes"/>
      <point x="492" y="770"/>
      <point x="340" y="692"/>
      <point x="340" y="487" type="curve" smooth="yes"/>
      <point x="340" y="125" type="line"/>
      <point x="430" y="125" type="line" smooth="yes"/>
      <point x="463" y="125"/>
      <point x="514" y="125"/>
      <point x="514" y="61" type="curve" smooth="yes"/>
      <point x="514" y="0"/>
      <point x="461" y="0"/>
      <point x="432" y="0" type="curve" smooth="yes"/>
      <point x="106" y="0" type="line" smooth="yes"/>
      <point x="78" y="0"/>
      <point x="25" y="0"/>
      <point x="25" y="61" type="curve" smooth="yes"/>
      <point x="25" y="125"/>
      <point x="76" y="125"/>
      <point x="109" y="125" type="curve" smooth="yes"/>
      <point x="199" y="125" type="line"/>
      <point x="199" y="758" type="line"/>
      <point x="106" y="758" type="line" smooth="yes"/>
      <point x="78" y="758"/>
      <point x="25" y="758"/>
      <point x="25" y="819" type="curve" smooth="yes"/>
      <point x="25" y="883"/>
      <point x="76" y="883"/>
      <point x="109" y="883" type="curve" smooth="yes"/>
      <point x="258" y="883" type="line" smooth="yes"/>
      <point x="340" y="883"/>
      <point x="340" y="852"/>
      <point x="340" y="786" type="curve"/>
      <point x="379" y="825"/>
      <point x="471" y="895"/>
      <point x="608" y="895" type="curve" smooth="yes"/>
      <point x="770" y="895"/>
      <point x="874" y="807"/>
      <point x="874" y="600" type="curve" smooth="yes"/>
      <point x="874" y="125" type="line"/>
      <point x="965" y="125" type="line" smooth="yes"/>
      <point x="997" y="125"/>
      <point x="1049" y="125"/>
    </contour>
  </outline>
</glyph>
<glyph name="o" format="2">
  <advance width="1075"/>
  <unicode hex="006F"/>
  <outline>
    <contour>
      <point x="956" y="442" type="curve" smooth="yes"/>
      <point x="956" y="184"/>
      <point x="762" y="-12"/>
      <point x="537" y="-12" type="curve" smooth="yes"/>
      <point x="311" y="-12"/>
      <point x="117" y="182"/>
      <point x="117" y="442" type="curve" smooth="yes"/>
      <point x="117" y="698"/>
      <point x="307" y="901"/>
      <point x="537" y="901" type="curve" smooth="yes"/>
      <point x="766" y="901"/>
      <point x="956" y="698"/>
    </contour>
    <contour>
      <point x="815" y="457" type="curve" smooth="yes"/>
      <point x="815" y="643"/>
      <point x="684" y="776"/>
      <point x="537" y="776" type="curve" smooth="yes"/>
      <point x="391" y="776"/>
      <point x="258" y="643"/>
      <point x="258" y="457" type="curve" smooth="yes"/>
      <point x="258" y="266"/>
      <point x="385" y="113"/>
      <point x="537" y="113" type="curve" smooth="yes"/>
      <point x="688" y="113"/>
      <point x="815" y="266"/>
    </contour>
  </outline>
</glyph>
<glyph name="q" format="2">
  <advance width="1075"/>
  <unicode hex="0071"/>
  <outline>
    <contour>
      <point x="1100" y="-393" type="curve" smooth="yes"/>
      <point x="1100" y="-455"/>
      <point x="1049" y="-455"/>
      <point x="1018" y="-455" type="curve" smooth="yes"/>
      <point x="676" y="-455" type="line" smooth="yes"/>
      <point x="643" y="-455"/>
      <point x="594" y="-455"/>
      <point x="594" y="-391" type="curve" smooth="yes"/>
      <point x="594" y="-330"/>
      <point x="645" y="-330"/>
      <point x="676" y="-330" type="curve" smooth="yes"/>
      <point x="776" y="-330" type="line"/>
      <point x="776" y="111" type="line"/>
      <point x="733" y="63"/>
      <point x="639" y="-12"/>
      <point x="500" y="-12" type="curve" smooth="yes"/>
      <point x="274" y="-12"/>
      <point x="82" y="186"/>
      <point x="82" y="440" type="curve" smooth="yes"/>
      <point x="82" y="700"/>
      <point x="291" y="895"/>
      <point x="520" y="895" type="curve" smooth="yes"/>
      <point x="637" y="895"/>
      <point x="721" y="842"/>
      <point x="776" y="782" type="curve"/>
      <point x="776" y="860"/>
      <point x="776" y="895"/>
      <point x="848" y="895" type="curve" smooth="yes"/>
      <point x="918" y="895"/>
      <point x="918" y="850"/>
      <point x="918" y="811" type="curve" smooth="yes"/>
      <point x="918" y="-330" type="line"/>
      <point x="1018" y="-330" type="line" smooth="yes"/>
      <point x="1051" y="-330"/>
      <point x="1100" y="-330"/>
    </contour>
    <contour>
      <point x="776" y="397" type="curve" smooth="yes"/>
      <point x="776" y="477" type="line" smooth="yes"/>
      <point x="776" y="612"/>
      <point x="684" y="770"/>
      <point x="530" y="770" type="curve" smooth="yes"/>
      <point x="367" y="770"/>
      <point x="223" y="629"/>
      <point x="223" y="440" type="curve" smooth="yes"/>
      <point x="223" y="256"/>
      <point x="356" y="113"/>
      <point x="508" y="113" type="curve" smooth="yes"/>
      <point x="676" y="113"/>
      <point x="776" y="281"/>
    </contour>
  </outline>
</glyph>
<glyph name="r" format="2">
  <advance width="1075"/>
  <unicode hex="0072"/>
  <outline>
    <contour>
      <point x="997" y="768" type="curve" smooth="yes"/>
      <point x="997" y="713"/>
      <point x="956" y="680"/>
      <point x="911" y="680" type="curve" smooth="yes"/>
      <point x="860" y="680"/>
      <point x="825" y="721"/>
      <point x="823" y="770" type="curve"/>
      <point x="575" y="770"/>
      <point x="455" y="573"/>
      <point x="455" y="381" type="curve" smooth="yes"/>
      <point x="455" y="125" type="line"/>
      <point x="682" y="125" type="line" smooth="yes"/>
      <point x="713" y="125"/>
      <point x="766" y="125"/>
      <point x="766" y="61" type="curve" smooth="yes"/>
      <point x="766" y="0"/>
      <point x="713" y="0"/>
      <point x="682" y="0" type="curve" smooth="yes"/>
      <point x="147" y="0" type="line" smooth="yes"/>
      <point x="115" y="0"/>
      <point x="66" y="0"/>
      <point x="66" y="63" type="curve" smooth="yes"/>
      <point x="66" y="125"/>
      <point x="117" y="125"/>
      <point x="147" y="125" type="curve" smooth="yes"/>
      <point x="313" y="125" type="line"/>
      <point x="313" y="758" type="line"/>
      <point x="147" y="758" type="line" smooth="yes"/>
      <point x="115" y="758"/>
      <point x="66" y="758"/>
      <point x="66" y="821" type="curve" smooth="yes"/>
      <point x="66" y="883"/>
      <point x="117" y="883"/>
      <point x="147" y="883" type="curve" smooth="yes"/>
      <point x="373" y="883" type="line" smooth="yes"/>
      <point x="442" y="883"/>
      <point x="455" y="862"/>
      <point x="455" y="799" type="curve" smooth="yes"/>
      <point x="455" y="729" type="line"/>
      <point x="567" y="858"/>
      <point x="698" y="895"/>
      <point x="803" y="895" type="curve" smooth="yes"/>
      <point x="973" y="895"/>
      <point x="997" y="809"/>
    </contour>
  </outline>
</glyph>
<glyph name="t" format="2">
  <advance width="1075"/>
  <unicode hex="0074"/>
  <outline>
    <contour>
      <point x="920" y="258" type="curve" smooth="yes"/>
      <point x="920" y="76"/>
      <point x="754" y="-12"/>
      <point x="602" y="-12" type="curve" smooth="yes"/>
      <point x="453" y="-12"/>
      <point x="313" y="61"/>
      <point x="313" y="258" type="curve" smooth="yes"/>
      <point x="313" y="758" type="line"/>
      <point x="133" y="758" type="line" smooth="yes"/>
      <point x="102" y="758"/>
      <point x="51" y="758"/>
      <point x="51" y="819" type="curve" smooth="yes"/>
      <point x="51" y="883"/>
      <point x="102" y="883"/>
      <point x="135" y="883" type="curve" smooth="yes"/>
      <point x="313" y="883" type="line"/>
      <point x="313" y="1051" type="line" smooth="yes"/>
      <point x="313" y="1092"/>
      <point x="313" y="1135"/>
      <point x="385" y="1135" type="curve" smooth="yes"/>
      <point x="455" y="1135"/>
      <point x="455" y="1090"/>
      <point x="455" y="1051" type="curve" smooth="yes"/>
      <point x="455" y="883" type="line"/>
      <point x="791" y="883" type="line" smooth="yes"/>
      <point x="823" y="883"/>
      <point x="872" y="883"/>
      <point x="872" y="819" type="curve" smooth="yes"/>
      <point x="872" y="758"/>
      <point x="821" y="758"/>
      <point x="791" y="758" type="curve" smooth="yes"/>
      <point x="455" y="758" type="line"/>
      <point x="455" y="270" type="line" smooth="yes"/>
      <point x="455" y="219"/>
      <point x="455" y="113"/>
      <point x="612" y="113" type="curve" smooth="yes"/>
      <point x="659" y="113"/>
      <point x="776" y="133"/>
      <point x="778" y="260" type="curve" smooth="yes"/>
      <point x="778" y="295"/>
      <point x="780" y="338"/>
      <point x="848" y="338" type="curve" smooth="yes"/>
      <point x="920" y="338"/>
      <point x="920" y="295"/>
    </contour>
  </outline>
</glyph>
<glyph name="u" format="2">
  <advance width="1075"/>
  <unicode hex="0075"/>
  <outline>
    <contour>
      <point x="1049" y="63" type="curve" smooth="yes"/>
      <point x="1049" y="0"/>
      <point x="997" y="0"/>
      <point x="965" y="0" type="curve" smooth="yes"/>
      <point x="815" y="0" type="line" smooth="yes"/>
      <point x="778" y="0"/>
      <point x="735" y="0"/>
      <point x="733" y="66" type="curve"/>
      <point x="657" y="8"/>
      <point x="573" y="-12"/>
      <point x="489" y="-12" type="curve" smooth="yes"/>
      <point x="340" y="-12"/>
      <point x="199" y="37"/>
      <point x="199" y="233" type="curve" smooth="yes"/>
      <point x="199" y="758" type="line"/>
      <point x="106" y="758" type="line" smooth="yes"/>
      <point x="78" y="758"/>
      <point x="25" y="758"/>
      <point x="25" y="819" type="curve" smooth="yes"/>
      <point x="25" y="883"/>
      <point x="76" y="883"/>
      <point x="109" y="883" type="curve" smooth="yes"/>
      <point x="258" y="883" type="line" smooth="yes"/>
      <point x="328" y="883"/>
      <point x="340" y="862"/>
      <point x="340" y="799" type="curve" smooth="yes"/>
      <point x="340" y="246" type="line" smooth="yes"/>
      <point x="340" y="180"/>
      <point x="340" y="113"/>
      <point x="502" y="113" type="curve" smooth="yes"/>
      <point x="567" y="113"/>
      <point x="733" y="137"/>
      <point x="733" y="322" type="curve" smooth="yes"/>
      <point x="733" y="758" type="line"/>
      <point x="641" y="758" type="line" smooth="yes"/>
      <point x="612" y="758"/>
      <point x="559" y="758"/>
      <point x="559" y="819" type="curve" smooth="yes"/>
      <point x="559" y="883"/>
      <point x="610" y="883"/>
      <point x="643" y="883" type="curve" smooth="yes"/>
      <point x="793" y="883" type="line" smooth="yes"/>
      <point x="862" y="883"/>
      <point x="874" y="862"/>
      <point x="874" y="799" type="curve" smooth="yes"/>
      <point x="874" y="125" type="line"/>
      <point x="967" y="125" type="line" smooth="yes"/>
      <point x="995" y="125"/>
      <point x="1049" y="125"/>
    </contour>
  </outline>
</glyph>
<glyph name="v" format="2">
  <advance width="1075"/>
  <unicode hex="0076"/>
  <outline>
    <contour>
      <point x="1024" y="819" type="curve" smooth="yes"/>
      <point x="1024" y="758"/>
      <point x="973" y="758"/>
      <point x="942" y="758" type="curve" smooth="yes"/>
      <point x="881" y="758" type="line"/>
      <point x="645" y="59" type="line" smooth="yes"/>
      <point x="623" y="-8"/>
      <point x="575" y="-8"/>
      <point x="537" y="-8" type="curve" smooth="yes"/>
      <point x="494" y="-8"/>
      <point x="453" y="-8"/>
      <point x="428" y="61" type="curve" smooth="yes"/>
      <point x="193" y="758" type="line"/>
      <point x="131" y="758" type="line" smooth="yes"/>
      <point x="100" y="758"/>
      <point x="49" y="758"/>
      <point x="49" y="819" type="curve" smooth="yes"/>
      <point x="49" y="883"/>
      <point x="98" y="883"/>
      <point x="131" y="883" type="curve" smooth="yes"/>
      <point x="371" y="883" type="line" smooth="yes"/>
      <point x="403" y="883"/>
      <point x="453" y="883"/>
      <point x="453" y="819" type="curve" smooth="yes"/>
      <point x="453" y="758"/>
      <point x="401" y="758"/>
      <point x="371" y="758" type="curve" smooth="yes"/>
      <point x="313" y="758" type="line"/>
      <point x="537" y="98" type="line"/>
      <point x="760" y="758" type="line"/>
      <point x="702" y="758" type="line" smooth="yes"/>
      <point x="670" y="758"/>
      <point x="621" y="758"/>
      <point x="621" y="821" type="curve" smooth="yes"/>
      <point x="621" y="883"/>
      <point x="672" y="883"/>
      <point x="702" y="883" type="curve" smooth="yes"/>
      <point x="942" y="883" type="line" smooth="yes"/>
      <point x="975" y="883"/>
      <point x="1024" y="883"/>
    </contour>
  </outline>
</glyph>
<glyph name="w" format="2">
  <advance width="1075"/>
  <unicode hex="0077"/>
  <outline>
    <contour>
      <point x="1040" y="821" type="curve" smooth="yes"/>
      <point x="1040" y="758"/>
      <point x="997" y="758"/>
      <point x="936" y="758" type="curve"/>
      <point x="813" y="70" type="line" smooth="yes"/>
      <point x="805" y="25"/>
      <point x="799" y="-8"/>
      <point x="723" y="-8" type="curve" smooth="yes"/>
      <point x="698" y="-8"/>
      <point x="662" y="-8"/>
      <point x="637" y="27" type="curve"/>
      <point x="629" y="43"/>
      <point x="553" y="283"/>
      <point x="543" y="389" type="curve"/>
      <point x="541" y="389" type="line"/>
      <point x="535" y="344"/>
      <point x="532" y="315"/>
      <point x="481" y="135" type="curve" smooth="yes"/>
      <point x="444" y="10"/>
      <point x="438" y="-8"/>
      <point x="356" y="-8" type="curve" smooth="yes"/>
      <point x="274" y="-8"/>
      <point x="268" y="23"/>
      <point x="260" y="70" type="curve" smooth="yes"/>
      <point x="137" y="758" type="line"/>
      <point x="76" y="758"/>
      <point x="33" y="758"/>
      <point x="33" y="821" type="curve" smooth="yes"/>
      <point x="33" y="883"/>
      <point x="82" y="883"/>
      <point x="119" y="883" type="curve" smooth="yes"/>
      <point x="354" y="883" type="line" smooth="yes"/>
      <point x="393" y="883"/>
      <point x="440" y="883"/>
      <point x="440" y="819" type="curve" smooth="yes"/>
      <point x="440" y="758"/>
      <point x="391" y="758"/>
      <point x="354" y="758" type="curve" smooth="yes"/>
      <point x="254" y="758" type="line"/>
      <point x="360" y="147" type="line"/>
      <point x="362" y="147" type="line"/>
      <point x="371" y="188"/>
      <point x="453" y="471"/>
      <point x="459" y="485" type="curve"/>
      <point x="481" y="530"/>
      <point x="520" y="530"/>
      <point x="541" y="530" type="curve" smooth="yes"/>
      <point x="612" y="530"/>
      <point x="618" y="508"/>
      <point x="655" y="379" type="curve" smooth="yes"/>
      <point x="680" y="295"/>
      <point x="707" y="201"/>
      <point x="715" y="147" type="curve"/>
      <point x="717" y="147" type="line"/>
      <point x="819" y="758" type="line"/>
      <point x="719" y="758" type="line" smooth="yes"/>
      <point x="680" y="758"/>
      <point x="633" y="758"/>
      <point x="633" y="821" type="curve" smooth="yes"/>
      <point x="633" y="883"/>
      <point x="682" y="883"/>
      <point x="719" y="883" type="curve" smooth="yes"/>
      <point x="954" y="883" type="line" smooth="yes"/>
      <point x="991" y="883"/>
      <point x="1040" y="883"/>
    </contour>
  </outline>
</glyph>
<glyph name="x" format="2">
  <advance width="1075"/>
  <unicode hex="0078"/>
  <outline>
    <contour>
      <point x="1016" y="61" type="curve" smooth="yes"/>
      <point x="1016" y="0"/>
      <point x="961" y="0"/>
      <point x="932" y="0" type="curve" smooth="yes"/>
      <point x="692" y="0" type="line" smooth="yes"/>
      <point x="662" y="0"/>
      <point x="610" y="0"/>
      <point x="610" y="61" type="curve" smooth="yes"/>
      <point x="610" y="125"/>
      <point x="655" y="125"/>
      <point x="713" y="125" type="curve"/>
      <point x="530" y="377" type="line"/>
      <point x="354" y="125" type="line"/>
      <point x="418" y="125"/>
      <point x="461" y="125"/>
      <point x="461" y="61" type="curve" smooth="yes"/>
      <point x="461" y="0"/>
      <point x="410" y="0"/>
      <point x="379" y="0" type="curve" smooth="yes"/>
      <point x="139" y="0" type="line" smooth="yes"/>
      <point x="111" y="0"/>
      <point x="55" y="0"/>
      <point x="55" y="61" type="curve" smooth="yes"/>
      <point x="55" y="125"/>
      <point x="109" y="125"/>
      <point x="139" y="125" type="curve" smooth="yes"/>
      <point x="221" y="125" type="line"/>
      <point x="475" y="455" type="line"/>
      <point x="233" y="758" type="line"/>
      <point x="152" y="758" type="line" smooth="yes"/>
      <point x="123" y="758"/>
      <point x="68" y="758"/>
      <point x="68" y="819" type="curve" smooth="yes"/>
      <point x="68" y="883"/>
      <point x="121" y="883"/>
      <point x="152" y="883" type="curve" smooth="yes"/>
      <point x="391" y="883" type="line" smooth="yes"/>
      <point x="422" y="883"/>
      <point x="473" y="883"/>
      <point x="473" y="821" type="curve" smooth="yes"/>
      <point x="473" y="758"/>
      <point x="428" y="758"/>
      <point x="375" y="758" type="curve"/>
      <point x="530" y="551" type="line"/>
      <point x="682" y="758" type="line"/>
      <point x="627" y="758"/>
      <point x="582" y="758"/>
      <point x="582" y="821" type="curve" smooth="yes"/>
      <point x="582" y="883"/>
      <point x="633" y="883"/>
      <point x="664" y="883" type="curve" smooth="yes"/>
      <point x="903" y="883" type="line" smooth="yes"/>
      <point x="934" y="883"/>
      <point x="987" y="883"/>
      <point x="987" y="819" type="curve" smooth="yes"/>
      <point x="987" y="758"/>
      <point x="932" y="758"/>
      <point x="903" y="758" type="curve" smooth="yes"/>
      <point x="821" y="758" type="line"/>
      <point x="588" y="455" type="line"/>
      <point x="850" y="125" type="line"/>
      <point x="932" y="125" type="line" smooth="yes"/>
      <point x="963" y="125"/>
      <point x="1016" y="125"/>
    </contour>
  </outline>
</glyph>
<glyph name="z" format="2">
  <advance width="1075"/>
  <unicode hex="007A"/>
  <outline>
    <contour>
      <point x="973" y="84" type="line" smooth="yes"/>
      <point x="973" y="53"/>
      <point x="973" y="12"/>
      <point x="928" y="0" type="curve"/>
      <point x="152" y="0" type="line" smooth="yes"/>
      <point x="113" y="0"/>
      <point x="68" y="0"/>
      <point x="68" y="70" type="curve" smooth="yes"/>
      <point x="68" y="104"/>
      <point x="70" y="111"/>
      <point x="113" y="152" type="curve" smooth="yes"/>
      <point x="752" y="758" type="line"/>
      <point x="242" y="758" type="line"/>
      <point x="242" y="705" type="line" smooth="yes"/>
      <point x="242" y="664"/>
      <point x="242" y="621"/>
      <point x="170" y="621" type="curve" smooth="yes"/>
      <point x="100" y="621"/>
      <point x="100" y="666"/>
      <point x="100" y="705" type="curve" smooth="yes"/>
      <point x="100" y="799" type="line" smooth="yes"/>
      <point x="100" y="866"/>
      <point x="117" y="883"/>
      <point x="184" y="883" type="curve" smooth="yes"/>
      <point x="881" y="883" type="line" smooth="yes"/>
      <point x="920" y="883"/>
      <point x="965" y="883"/>
      <point x="965" y="813" type="curve" smooth="yes"/>
      <point x="965" y="778"/>
      <point x="963" y="772"/>
      <point x="920" y="731" type="curve" smooth="yes"/>
      <point x="281" y="125" type="line"/>
      <point x="831" y="125" type="line"/>
      <point x="831" y="203" type="line" smooth="yes"/>
      <point x="831" y="244"/>
      <point x="831" y="287"/>
      <point x="903" y="287" type="curve" smooth="yes"/>
      <point x="973" y="287"/>
      <point x="973" y="242"/>
      <point x="973" y="203" type="curve" smooth="yes"/>
    </contour>
  </outline>
</glyph>
<glyph name="braceleft" format="2">
  <advance width="1075"/>
  <unicode hex="007B"/>
  <outline>
    <contour>
      <point x="956" y="-106" type="curve" smooth="yes"/>
      <point x="956" y="-170"/>
      <point x="907" y="-170"/>
      <point x="870" y="-170" type="curve" smooth="yes"/>
      <point x="772" y="-170"/>
      <point x="659" y="-156"/>
      <point x="573" y="-109" type="curve" smooth="yes"/>
      <point x="467" y="-49"/>
      <point x="467" y="43"/>
      <point x="467" y="104" type="curve" smooth="yes"/>
      <point x="467" y="444" type="line"/>
      <point x="463" y="555"/>
      <point x="240" y="561"/>
      <point x="186" y="563" type="curve" smooth="yes"/>
      <point x="166" y="563"/>
      <point x="117" y="565"/>
      <point x="117" y="627" type="curve" smooth="yes"/>
      <point x="117" y="676"/>
      <point x="158" y="688"/>
      <point x="170" y="688" type="curve" smooth="yes"/>
      <point x="217" y="688"/>
      <point x="319" y="690"/>
      <point x="393" y="721" type="curve" smooth="yes"/>
      <point x="467" y="754"/>
      <point x="467" y="784"/>
      <point x="467" y="858" type="curve" smooth="yes"/>
      <point x="467" y="1042" type="line" smooth="yes"/>
      <point x="467" y="1100"/>
      <point x="467" y="1202"/>
      <point x="469" y="1214" type="curve" smooth="yes"/>
      <point x="504" y="1395"/>
      <point x="727" y="1421"/>
      <point x="870" y="1421" type="curve" smooth="yes"/>
      <point x="907" y="1421"/>
      <point x="956" y="1421"/>
      <point x="956" y="1358" type="curve" smooth="yes"/>
      <point x="956" y="1309"/>
      <point x="915" y="1296"/>
      <point x="903" y="1296" type="curve" smooth="yes"/>
      <point x="831" y="1296"/>
      <point x="651" y="1292"/>
      <point x="614" y="1214" type="curve"/>
      <point x="608" y="1198"/>
      <point x="608" y="1116"/>
      <point x="608" y="1065" type="curve" smooth="yes"/>
      <point x="608" y="795" type="line"/>
      <point x="606" y="743"/>
      <point x="575" y="676"/>
      <point x="489" y="625" type="curve"/>
      <point x="602" y="563"/>
      <point x="608" y="479"/>
      <point x="608" y="428" type="curve" smooth="yes"/>
      <point x="608" y="98" type="line" smooth="yes"/>
      <point x="608" y="35"/>
      <point x="608" y="-39"/>
      <point x="887" y="-45" type="curve" smooth="yes"/>
      <point x="905" y="-45"/>
      <point x="956" y="-47"/>
    </contour>
  </outline>
</glyph>
<glyph name="bar" format="2">
  <advance width="1075"/>
  <unicode hex="007C"/>
  <outline>
    <contour>
      <point x="608" y="-74" type="line" smooth="yes"/>
      <point x="608" y="-98"/>
      <point x="608" y="-170"/>
      <point x="537" y="-170" type="curve" smooth="yes"/>
      <point x="465" y="-170"/>
      <point x="465" y="-98"/>
      <point x="465" y="-74" type="curve" smooth="yes"/>
      <point x="465" y="1325" type="line" smooth="yes"/>
      <point x="465" y="1350"/>
      <point x="465" y="1421"/>
      <point x="537" y="1421" type="curve" smooth="yes"/>
      <point x="608" y="1421"/>
      <point x="608" y="1350"/>
      <point x="608" y="1325" type="curve" smooth="yes"/>
    </contour>
  </outline>
</glyph>
<glyph name="braceright" format="2">
  <advance width="1075"/>
  <unicode hex="007D"/>
  <outline>
    <contour>
      <point x="956" y="625" type="curve" smooth="yes"/>
      <point x="956" y="575"/>
      <point x="915" y="563"/>
      <point x="903" y="563" type="curve" smooth="yes"/>
      <point x="854" y="563"/>
      <point x="756" y="561"/>
      <point x="682" y="530" type="curve" smooth="yes"/>
      <point x="608" y="498"/>
      <point x="608" y="467"/>
      <point x="608" y="393" type="curve" smooth="yes"/>
      <point x="608" y="209" type="line" smooth="yes"/>
      <point x="608" y="152"/>
      <point x="608" y="49"/>
      <point x="606" y="37" type="curve" smooth="yes"/>
      <point x="575" y="-129"/>
      <point x="381" y="-170"/>
      <point x="203" y="-170" type="curve" smooth="yes"/>
      <point x="168" y="-170"/>
      <point x="117" y="-170"/>
      <point x="117" y="-106" type="curve" smooth="yes"/>
      <point x="117" y="-57"/>
      <point x="158" y="-45"/>
      <point x="170" y="-45" type="curve" smooth="yes"/>
      <point x="467" y="-41"/>
      <point x="467" y="33"/>
      <point x="467" y="92" type="curve" smooth="yes"/>
      <point x="467" y="457" type="line" smooth="yes"/>
      <point x="467" y="465"/>
      <point x="471" y="561"/>
      <point x="586" y="627" type="curve"/>
      <point x="498" y="674"/>
      <point x="467" y="739"/>
      <point x="467" y="821" type="curve" smooth="yes"/>
      <point x="467" y="1151" type="line" smooth="yes"/>
      <point x="467" y="1219"/>
      <point x="467" y="1292"/>
      <point x="184" y="1296" type="curve" smooth="yes"/>
      <point x="156" y="1296"/>
      <point x="117" y="1305"/>
      <point x="117" y="1358" type="curve" smooth="yes"/>
      <point x="117" y="1421"/>
      <point x="168" y="1421"/>
      <point x="203" y="1421" type="curve" smooth="yes"/>
      <point x="274" y="1421"/>
      <point x="403" y="1413"/>
      <point x="502" y="1360" type="curve" smooth="yes"/>
      <point x="608" y="1300"/>
      <point x="608" y="1208"/>
      <point x="608" y="1151" type="curve" smooth="yes"/>
      <point x="608" y="809" type="line"/>
      <point x="612" y="694"/>
      <point x="838" y="690"/>
      <point x="887" y="688" type="curve" smooth="yes"/>
      <point x="907" y="688"/>
      <point x="956" y="686"/>
    </contour>
  </outline>
</glyph>
<glyph name="asciitilde" format="2">
  <advance width="1075"/>
  <unicode hex="007E"/>
  <outline>
    <contour>
      <point x="897" y="684" type="curve" smooth="yes"/>
      <point x="897" y="647"/>
      <point x="838" y="602"/>
      <point x="797" y="571" type="curve" smooth="yes"/>
      <point x="750" y="537"/>
      <point x="692" y="504"/>
      <point x="637" y="504" type="curve" smooth="yes"/>
      <point x="567" y="504"/>
      <point x="526" y="547"/>
      <point x="500" y="573" type="curve" smooth="yes"/>
      <point x="473" y="598"/>
      <point x="457" y="616"/>
      <point x="436" y="616" type="curve" smooth="yes"/>
      <point x="408" y="616"/>
      <point x="354" y="584"/>
      <point x="293" y="526" type="curve" smooth="yes"/>
      <point x="279" y="514"/>
      <point x="266" y="504"/>
      <point x="244" y="504" type="curve" smooth="yes"/>
      <point x="211" y="504"/>
      <point x="180" y="537"/>
      <point x="180" y="569" type="curve" smooth="yes"/>
      <point x="180" y="606"/>
      <point x="240" y="651"/>
      <point x="281" y="682" type="curve" smooth="yes"/>
      <point x="328" y="717"/>
      <point x="385" y="750"/>
      <point x="440" y="750" type="curve" smooth="yes"/>
      <point x="510" y="750"/>
      <point x="551" y="707"/>
      <point x="578" y="680" type="curve" smooth="yes"/>
      <point x="604" y="655"/>
      <point x="621" y="637"/>
      <point x="641" y="637" type="curve" smooth="yes"/>
      <point x="670" y="637"/>
      <point x="723" y="670"/>
      <point x="784" y="727" type="curve" smooth="yes"/>
      <point x="799" y="739"/>
      <point x="811" y="750"/>
      <point x="834" y="750" type="curve" smooth="yes"/>
      <point x="866" y="750"/>
      <point x="897" y="717"/>
    </contour>
  </outline>
</glyph>
<glyph name="exclamdown" format="2">
  <advance width="1075"/>
  <unicode hex="00A1"/>
  <outline>
    <contour>
      <point x="639" y="-360" type="line" smooth="yes"/>
      <point x="639" y="-469"/>
      <point x="555" y="-477"/>
      <point x="537" y="-477" type="curve" smooth="yes"/>
      <point x="518" y="-477"/>
      <point x="434" y="-469"/>
      <point x="434" y="-360" type="curve" smooth="yes"/>
      <point x="434" y="-252"/>
      <point x="442" y="-139"/>
      <point x="444" y="-33" type="curve" smooth="yes"/>
      <point x="453" y="322" type="line" smooth="yes"/>
      <point x="457" y="403"/>
      <point x="465" y="420"/>
      <point x="537" y="420" type="curve" smooth="yes"/>
      <point x="561" y="420"/>
      <point x="616" y="420"/>
      <point x="618" y="369" type="curve" smooth="yes"/>
      <point x="625" y="119" type="line"/>
    </contour>
    <component base="dotaccent" xOffset="-2" yOffset="-442"/>
  </outline>
</glyph>
<glyph name="cent" format="2">
  <advance width="1075"/>
  <unicode hex="00A2"/>
  <outline>
    <contour>
      <point x="954" y="223" type="curve" smooth="yes"/>
      <point x="954" y="190"/>
      <point x="893" y="14"/>
      <point x="655" y="-10" type="curve"/>
      <point x="655" y="-127" type="line" smooth="yes"/>
      <point x="655" y="-162"/>
      <point x="627" y="-190"/>
      <point x="592" y="-190" type="curve" smooth="yes"/>
      <point x="557" y="-190"/>
      <point x="528" y="-162"/>
      <point x="528" y="-127" type="curve" smooth="yes"/>
      <point x="528" y="-6" type="line"/>
      <point x="307" y="29"/>
      <point x="150" y="219"/>
      <point x="150" y="442" type="curve" smooth="yes"/>
      <point x="150" y="604"/>
      <point x="250" y="848"/>
      <point x="528" y="893" type="curve"/>
      <point x="528" y="1010" type="line" smooth="yes"/>
      <point x="528" y="1044"/>
      <point x="557" y="1073"/>
      <point x="592" y="1073" type="curve" smooth="yes"/>
      <point x="627" y="1073"/>
      <point x="655" y="1044"/>
      <point x="655" y="1010" type="curve" smooth="yes"/>
      <point x="655" y="901" type="line"/>
      <point x="756" y="899"/>
      <point x="930" y="887"/>
      <point x="930" y="752" type="curve" smooth="yes"/>
      <point x="930" y="692"/>
      <point x="887" y="657"/>
      <point x="838" y="657" type="curve" smooth="yes"/>
      <point x="788" y="657"/>
      <point x="750" y="686"/>
      <point x="748" y="758" type="curve" smooth="yes"/>
      <point x="748" y="772"/>
      <point x="696" y="776"/>
      <point x="655" y="776" type="curve"/>
      <point x="655" y="115" type="line"/>
      <point x="772" y="131"/>
      <point x="805" y="211"/>
      <point x="815" y="236" type="curve"/>
      <point x="829" y="276"/>
      <point x="850" y="281"/>
      <point x="883" y="281" type="curve" smooth="yes"/>
      <point x="895" y="281"/>
      <point x="954" y="281"/>
    </contour>
    <contour>
      <point x="528" y="125" type="curve"/>
      <point x="528" y="766" type="line"/>
      <point x="334" y="717"/>
      <point x="291" y="528"/>
      <point x="291" y="442" type="curve" smooth="yes"/>
      <point x="291" y="287"/>
      <point x="393" y="162"/>
    </contour>
  </outline>
</glyph>
<glyph name="sterling" format="2">
  <advance width="1075"/>
  <unicode hex="00A3"/>
  <outline>
    <contour>
      <point x="1038" y="295" type="curve" smooth="yes"/>
      <point x="1038" y="133"/>
      <point x="952" y="-23"/>
      <point x="807" y="-23" type="curve" smooth="yes"/>
      <point x="698" y="-23"/>
      <point x="612" y="51"/>
      <point x="526" y="115" type="curve"/>
      <point x="473" y="29"/>
      <point x="356" y="-23"/>
      <point x="233" y="-23" type="curve" smooth="yes"/>
      <point x="125" y="-23"/>
      <point x="37" y="61"/>
      <point x="37" y="168" type="curve" smooth="yes"/>
      <point x="37" y="289"/>
      <point x="164" y="360"/>
      <point x="295" y="360" type="curve" smooth="yes"/>
      <point x="332" y="360"/>
      <point x="365" y="352"/>
      <point x="395" y="340" type="curve"/>
      <point x="375" y="414"/>
      <point x="338" y="483"/>
      <point x="303" y="555" type="curve"/>
      <point x="170" y="555" type="line" smooth="yes"/>
      <point x="131" y="555"/>
      <point x="98" y="586"/>
      <point x="98" y="627" type="curve" smooth="yes"/>
      <point x="98" y="666"/>
      <point x="131" y="698"/>
      <point x="170" y="698" type="curve" smooth="yes"/>
      <point x="236" y="698" type="line"/>
      <point x="213" y="756"/>
      <point x="197" y="817"/>
      <point x="197" y="883" type="curve" smooth="yes"/>
      <point x="197" y="1085"/>
      <point x="360" y="1251"/>
      <point x="565" y="1251" type="curve" smooth="yes"/>
      <point x="760" y="1251"/>
      <point x="932" y="1112"/>
      <point x="932" y="924" type="curve" smooth="yes"/>
      <point x="932" y="874"/>
      <point x="891" y="834"/>
      <point x="842" y="834" type="curve" smooth="yes"/>
      <point x="793" y="834"/>
      <point x="752" y="874"/>
      <point x="752" y="924" type="curve" smooth="yes"/>
      <point x="752" y="948"/>
      <point x="762" y="969"/>
      <point x="776" y="985" type="curve"/>
      <point x="745" y="1061"/>
      <point x="657" y="1108"/>
      <point x="565" y="1108" type="curve" smooth="yes"/>
      <point x="440" y="1108"/>
      <point x="340" y="1006"/>
      <point x="340" y="883" type="curve" smooth="yes"/>
      <point x="340" y="817"/>
      <point x="356" y="756"/>
      <point x="379" y="698" type="curve"/>
      <point x="709" y="698" type="line" smooth="yes"/>
      <point x="748" y="698"/>
      <point x="780" y="666"/>
      <point x="780" y="627" type="curve" smooth="yes"/>
      <point x="780" y="586"/>
      <point x="748" y="555"/>
      <point x="709" y="555" type="curve" smooth="yes"/>
      <point x="446" y="555" type="line"/>
      <point x="498" y="453"/>
      <point x="551" y="350"/>
      <point x="555" y="238" type="curve"/>
      <point x="633" y="178"/>
      <point x="709" y="121"/>
      <point x="807" y="121" type="curve" smooth="yes"/>
      <point x="879" y="121"/>
      <point x="895" y="211"/>
      <point x="895" y="295" type="curve" smooth="yes"/>
      <point x="895" y="334"/>
      <point x="928" y="367"/>
      <point x="967" y="367" type="curve" smooth="yes"/>
      <point x="1008" y="367"/>
      <point x="1038" y="334"/>
    </contour>
    <contour>
      <point x="408" y="190" type="curve"/>
      <point x="373" y="207"/>
      <point x="336" y="217"/>
      <point x="295" y="217" type="curve" smooth="yes"/>
      <point x="242" y="217"/>
      <point x="180" y="215"/>
      <point x="180" y="168" type="curve" smooth="yes"/>
      <point x="180" y="141"/>
      <point x="205" y="121"/>
      <point x="233" y="121" type="curve" smooth="yes"/>
      <point x="307" y="121"/>
      <point x="385" y="139"/>
    </contour>
  </outline>
</glyph>
<glyph name="currency" format="2">
  <advance width="1075"/>
  <unicode hex="00A4"/>
  <outline>
    <contour>
      <point x="862" y="301" type="curve" smooth="yes"/>
      <point x="811" y="250"/>
      <point x="762" y="301"/>
      <point x="743" y="317" type="curve"/>
      <point x="696" y="367" type="line"/>
      <point x="649" y="338"/>
      <point x="596" y="322"/>
      <point x="539" y="322" type="curve" smooth="yes"/>
      <point x="479" y="322"/>
      <point x="424" y="338"/>
      <point x="379" y="367" type="curve"/>
      <point x="332" y="319" type="line"/>
      <point x="313" y="303"/>
      <point x="262" y="252"/>
      <point x="213" y="303" type="curve" smooth="yes"/>
      <point x="162" y="352"/>
      <point x="213" y="403"/>
      <point x="229" y="422" type="curve"/>
      <point x="276" y="469" type="line"/>
      <point x="250" y="514"/>
      <point x="233" y="569"/>
      <point x="233" y="627" type="curve" smooth="yes"/>
      <point x="233" y="684"/>
      <point x="250" y="739"/>
      <point x="276" y="784" type="curve"/>
      <point x="227" y="834" type="line"/>
      <point x="211" y="852"/>
      <point x="160" y="901"/>
      <point x="211" y="952" type="curve" smooth="yes"/>
      <point x="262" y="1004"/>
      <point x="311" y="952"/>
      <point x="330" y="936" type="curve"/>
      <point x="379" y="887" type="line"/>
      <point x="424" y="915"/>
      <point x="479" y="932"/>
      <point x="539" y="932" type="curve" smooth="yes"/>
      <point x="596" y="932"/>
      <point x="649" y="915"/>
      <point x="696" y="887" type="curve"/>
      <point x="741" y="934" type="line"/>
      <point x="760" y="950"/>
      <point x="811" y="1001"/>
      <point x="860" y="950" type="curve" smooth="yes"/>
      <point x="911" y="901"/>
      <point x="860" y="850"/>
      <point x="844" y="831" type="curve"/>
      <point x="797" y="786" type="line"/>
      <point x="825" y="739"/>
      <point x="842" y="686"/>
      <point x="842" y="627" type="curve" smooth="yes"/>
      <point x="842" y="567"/>
      <point x="825" y="514"/>
      <point x="797" y="467" type="curve"/>
      <point x="846" y="420" type="line"/>
      <point x="862" y="401"/>
      <point x="913" y="352"/>
    </contour>
    <contour>
      <point x="698" y="627" type="curve" smooth="yes"/>
      <point x="698" y="715"/>
      <point x="627" y="788"/>
      <point x="539" y="788" type="curve" smooth="yes"/>
      <point x="449" y="788"/>
      <point x="377" y="715"/>
      <point x="377" y="627" type="curve" smooth="yes"/>
      <point x="377" y="539"/>
      <point x="449" y="465"/>
      <point x="539" y="465" type="curve" smooth="yes"/>
      <point x="627" y="465"/>
      <point x="698" y="539"/>
    </contour>
  </outline>
</glyph>
<glyph name="yen" format="2">
  <advance width="1075"/>
  <unicode hex="00A5"/>
  <outline>
    <contour>
      <point x="1034" y="1188" type="curve" smooth="yes"/>
      <point x="1034" y="1126"/>
      <point x="983" y="1126"/>
      <point x="952" y="1126" type="curve" smooth="yes"/>
      <point x="909" y="1126" type="line"/>
      <point x="780" y="858" type="line"/>
      <point x="860" y="858" type="line" smooth="yes"/>
      <point x="899" y="858"/>
      <point x="932" y="825"/>
      <point x="932" y="786" type="curve" smooth="yes"/>
      <point x="932" y="745"/>
      <point x="899" y="715"/>
      <point x="860" y="715" type="curve" smooth="yes"/>
      <point x="711" y="715" type="line"/>
      <point x="627" y="539" type="line"/>
      <point x="860" y="539" type="line" smooth="yes"/>
      <point x="899" y="539"/>
      <point x="932" y="508"/>
      <point x="932" y="467" type="curve" smooth="yes"/>
      <point x="932" y="428"/>
      <point x="899" y="395"/>
      <point x="860" y="395" type="curve" smooth="yes"/>
      <point x="608" y="395" type="line"/>
      <point x="608" y="125" type="line"/>
      <point x="659" y="125" type="line" smooth="yes"/>
      <point x="692" y="125"/>
      <point x="741" y="125"/>
      <point x="741" y="61" type="curve" smooth="yes"/>
      <point x="741" y="0"/>
      <point x="690" y="0"/>
      <point x="659" y="0" type="curve" smooth="yes"/>
      <point x="416" y="0" type="line" smooth="yes"/>
      <point x="383" y="0"/>
      <point x="334" y="0"/>
      <point x="334" y="63" type="curve" smooth="yes"/>
      <point x="334" y="125"/>
      <point x="385" y="125"/>
      <point x="416" y="125" type="curve" smooth="yes"/>
      <point x="467" y="125" type="line"/>
      <point x="467" y="395" type="line"/>
      <point x="215" y="395" type="line" smooth="yes"/>
      <point x="176" y="395"/>
      <point x="143" y="428"/>
      <point x="143" y="467" type="curve" smooth="yes"/>
      <point x="143" y="508"/>
      <point x="176" y="539"/>
      <point x="215" y="539" type="curve" smooth="yes"/>
      <point x="449" y="539" type="line"/>
      <point x="362" y="715" type="line"/>
      <point x="215" y="715" type="line" smooth="yes"/>
      <point x="176" y="715"/>
      <point x="143" y="745"/>
      <point x="143" y="786" type="curve" smooth="yes"/>
      <point x="143" y="825"/>
      <point x="176" y="858"/>
      <point x="215" y="858" type="curve" smooth="yes"/>
      <point x="293" y="858" type="line"/>
      <point x="164" y="1126" type="line"/>
      <point x="121" y="1126" type="line" smooth="yes"/>
      <point x="88" y="1126"/>
      <point x="39" y="1126"/>
      <point x="39" y="1190" type="curve" smooth="yes"/>
      <point x="39" y="1251"/>
      <point x="90" y="1251"/>
      <point x="121" y="1251" type="curve" smooth="yes"/>
      <point x="334" y="1251" type="line" smooth="yes"/>
      <point x="365" y="1251"/>
      <point x="416" y="1251"/>
      <point x="416" y="1190" type="curve" smooth="yes"/>
      <point x="416" y="1126"/>
      <point x="371" y="1126"/>
      <point x="322" y="1126" type="curve"/>
      <point x="449" y="858" type="line"/>
      <point x="633" y="858" type="line"/>
      <point x="752" y="1126" type="line"/>
      <point x="702" y="1126"/>
      <point x="657" y="1126"/>
      <point x="657" y="1190" type="curve" smooth="yes"/>
      <point x="657" y="1251"/>
      <point x="709" y="1251"/>
      <point x="739" y="1251" type="curve" smooth="yes"/>
      <point x="952" y="1251" type="line" smooth="yes"/>
      <point x="985" y="1251"/>
      <point x="1034" y="1251"/>
    </contour>
    <contour>
      <point x="569" y="715" type="line"/>
      <point x="512" y="715" type="line"/>
      <point x="522" y="686"/>
      <point x="532" y="662"/>
      <point x="537" y="643" type="curve"/>
    </contour>
  </outline>
</glyph>
<glyph name="brokenbar" format="2">
  <advance width="1075"/>
  <unicode hex="00A6"/>
  <outline>
    <contour>
      <point x="608" y="834" type="line" smooth="yes"/>
      <point x="608" y="797"/>
      <point x="575" y="770"/>
      <point x="537" y="770" type="curve" smooth="yes"/>
      <point x="498" y="770"/>
      <point x="465" y="797"/>
      <point x="465" y="834" type="curve" smooth="yes"/>
      <point x="465" y="1325" type="line" smooth="yes"/>
      <point x="465" y="1350"/>
      <point x="465" y="1421"/>
      <point x="537" y="1421" type="curve" smooth="yes"/>
      <point x="608" y="1421"/>
      <point x="608" y="1350"/>
      <point x="608" y="1325" type="curve" smooth="yes"/>
    </contour>
    <contour>
      <point x="608" y="-74" type="line" smooth="yes"/>
      <point x="608" y="-98"/>
      <point x="608" y="-170"/>
      <point x="537" y="-170" type="curve" smooth="yes"/>
      <point x="465" y="-170"/>
      <point x="465" y="-98"/>
      <point x="465" y="-74" type="curve" smooth="yes"/>
      <point x="465" y="418" type="line" smooth="yes"/>
      <point x="465" y="455"/>
      <point x="498" y="481"/>
      <point x="537" y="481" type="curve" smooth="yes"/>
      <point x="575" y="481"/>
      <point x="608" y="455"/>
      <point x="608" y="418" type="curve" smooth="yes"/>
    </contour>
  </outline>
</glyph>
<glyph name="section" format="2">
  <advance width="1075"/>
  <unicode hex="00A7"/>
  <outline>
    <contour>
      <point x="1004" y="397" type="curve" smooth="yes"/>
      <point x="1004" y="309"/>
      <point x="956" y="233"/>
      <point x="887" y="188" type="curve"/>
      <point x="915" y="150"/>
      <point x="934" y="102"/>
      <point x="934" y="51" type="curve" smooth="yes"/>
      <point x="934" y="-135"/>
      <point x="741" y="-250"/>
      <point x="539" y="-250" type="curve" smooth="yes"/>
      <point x="342" y="-250"/>
      <point x="143" y="-164"/>
      <point x="143" y="10" type="curve" smooth="yes"/>
      <point x="143" y="59"/>
      <point x="184" y="100"/>
      <point x="233" y="100" type="curve" smooth="yes"/>
      <point x="283" y="100"/>
      <point x="324" y="59"/>
      <point x="324" y="10" type="curve" smooth="yes"/>
      <point x="324" y="-10"/>
      <point x="315" y="-31"/>
      <point x="305" y="-45" type="curve"/>
      <point x="344" y="-98"/>
      <point x="446" y="-106"/>
      <point x="539" y="-106" type="curve" smooth="yes"/>
      <point x="664" y="-106"/>
      <point x="791" y="-57"/>
      <point x="791" y="51" type="curve" smooth="yes"/>
      <point x="791" y="145"/>
      <point x="682" y="182"/>
      <point x="586" y="215" type="curve" smooth="yes"/>
      <point x="375" y="287" type="line" smooth="yes"/>
      <point x="213" y="342"/>
      <point x="74" y="463"/>
      <point x="74" y="627" type="curve" smooth="yes"/>
      <point x="74" y="713"/>
      <point x="121" y="791"/>
      <point x="190" y="834" type="curve"/>
      <point x="162" y="874"/>
      <point x="143" y="920"/>
      <point x="143" y="973" type="curve" smooth="yes"/>
      <point x="143" y="1159"/>
      <point x="336" y="1274"/>
      <point x="539" y="1274" type="curve" smooth="yes"/>
      <point x="735" y="1274"/>
      <point x="934" y="1188"/>
      <point x="934" y="1014" type="curve" smooth="yes"/>
      <point x="934" y="965"/>
      <point x="893" y="924"/>
      <point x="844" y="924" type="curve" smooth="yes"/>
      <point x="795" y="924"/>
      <point x="754" y="965"/>
      <point x="754" y="1014" type="curve" smooth="yes"/>
      <point x="754" y="1034"/>
      <point x="762" y="1055"/>
      <point x="772" y="1069" type="curve"/>
      <point x="733" y="1122"/>
      <point x="631" y="1130"/>
      <point x="539" y="1130" type="curve" smooth="yes"/>
      <point x="414" y="1130"/>
      <point x="287" y="1081"/>
      <point x="287" y="973" type="curve" smooth="yes"/>
      <point x="287" y="879"/>
      <point x="395" y="842"/>
      <point x="492" y="809" type="curve" smooth="yes"/>
      <point x="702" y="737" type="line" smooth="yes"/>
      <point x="864" y="682"/>
      <point x="1004" y="561"/>
    </contour>
    <contour>
      <point x="860" y="397" type="curve" smooth="yes"/>
      <point x="860" y="502"/>
      <point x="760" y="565"/>
      <point x="655" y="602" type="curve" smooth="yes"/>
      <point x="444" y="674" type="line" smooth="yes"/>
      <point x="393" y="690"/>
      <point x="344" y="713"/>
      <point x="299" y="739" type="curve"/>
      <point x="250" y="727"/>
      <point x="217" y="678"/>
      <point x="217" y="627" type="curve" smooth="yes"/>
      <point x="217" y="522"/>
      <point x="317" y="459"/>
      <point x="422" y="422" type="curve" smooth="yes"/>
      <point x="633" y="350" type="line" smooth="yes"/>
      <point x="684" y="332"/>
      <point x="733" y="309"/>
      <point x="778" y="283" type="curve"/>
      <point x="827" y="297"/>
      <point x="860" y="344"/>
    </contour>
  </outline>
</glyph>
<glyph name="dieresis" format="2">
  <advance width="1075"/>
  <unicode hex="00A8"/>
  <outline>
    <contour>
      <point x="461" y="1137" type="curve" smooth="yes"/>
      <point x="461" y="1085"/>
      <point x="420" y="1044"/>
      <point x="369" y="1044" type="curve" smooth="yes"/>
      <point x="317" y="1044"/>
      <point x="276" y="1085"/>
      <point x="276" y="1137" type="curve" smooth="yes"/>
      <point x="276" y="1190"/>
      <point x="317" y="1229"/>
      <point x="369" y="1229" type="curve" smooth="yes"/>
      <point x="420" y="1229"/>
      <point x="461" y="1190"/>
    </contour>
    <contour>
      <point x="799" y="1137" type="curve" smooth="yes"/>
      <point x="799" y="1085"/>
      <point x="758" y="1044"/>
      <point x="707" y="1044" type="curve" smooth="yes"/>
      <point x="655" y="1044"/>
      <point x="614" y="1085"/>
      <point x="614" y="1137" type="curve" smooth="yes"/>
      <point x="614" y="1190"/>
      <point x="655" y="1229"/>
      <point x="707" y="1229" type="curve" smooth="yes"/>
      <point x="758" y="1229"/>
      <point x="799" y="1190"/>
    </contour>
  </outline>
</glyph>
<glyph name="copyright" format="2">
  <advance width="1075"/>
  <unicode hex="00A9"/>
  <outline>
    <contour>
      <point x="741" y="385" type="curve" smooth="yes"/>
      <point x="741" y="287"/>
      <point x="647" y="188"/>
      <point x="518" y="188" type="curve" smooth="yes"/>
      <point x="375" y="188"/>
      <point x="252" y="336"/>
      <point x="252" y="539" type="curve" smooth="yes"/>
      <point x="252" y="739"/>
      <point x="375" y="887"/>
      <point x="518" y="887" type="curve" smooth="yes"/>
      <point x="573" y="887"/>
      <point x="625" y="866"/>
      <point x="662" y="834" type="curve"/>
      <point x="676" y="862"/>
      <point x="676" y="864"/>
      <point x="678" y="868" type="curve"/>
      <point x="684" y="877"/>
      <point x="688" y="887"/>
      <point x="709" y="887" type="curve" smooth="yes"/>
      <point x="741" y="887"/>
      <point x="741" y="860"/>
      <point x="741" y="842" type="curve" smooth="yes"/>
      <point x="741" y="688" type="line" smooth="yes"/>
      <point x="741" y="666"/>
      <point x="741" y="643"/>
      <point x="702" y="643" type="curve" smooth="yes"/>
      <point x="670" y="643"/>
      <point x="668" y="662"/>
      <point x="666" y="680" type="curve"/>
      <point x="649" y="770"/>
      <point x="588" y="819"/>
      <point x="522" y="819" type="curve" smooth="yes"/>
      <point x="424" y="819"/>
      <point x="328" y="702"/>
      <point x="328" y="539" type="curve" smooth="yes"/>
      <point x="328" y="373"/>
      <point x="422" y="256"/>
      <point x="522" y="256" type="curve" smooth="yes"/>
      <point x="569" y="256"/>
      <point x="657" y="283"/>
      <point x="666" y="389" type="curve" smooth="yes"/>
      <point x="668" y="422"/>
      <point x="694" y="422"/>
      <point x="702" y="422" type="curve" smooth="yes"/>
      <point x="715" y="422"/>
      <point x="741" y="422"/>
    </contour>
    <component base="bigcircle"/>
  </outline>
</glyph>
<glyph name="ordfeminine" format="2">
  <advance width="1075"/>
  <unicode hex="00AA"/>
  <outline>
    <contour>
      <point x="874" y="688" type="curve" smooth="yes"/>
      <point x="874" y="643"/>
      <point x="842" y="643"/>
      <point x="803" y="643" type="curve" smooth="yes"/>
      <point x="748" y="643"/>
      <point x="678" y="645"/>
      <point x="647" y="690" type="curve"/>
      <point x="580" y="645"/>
      <point x="492" y="635"/>
      <point x="438" y="635" type="curve" smooth="yes"/>
      <point x="291" y="635"/>
      <point x="201" y="727"/>
      <point x="201" y="827" type="curve" smooth="yes"/>
      <point x="201" y="965"/>
      <point x="377" y="1036"/>
      <point x="631" y="1040" type="curve"/>
      <point x="631" y="1143"/>
      <point x="557" y="1186"/>
      <point x="449" y="1186" type="curve" smooth="yes"/>
      <point x="397" y="1186" type="line"/>
      <point x="369" y="1182"/>
      <point x="367" y="1182"/>
      <point x="367" y="1169" type="curve"/>
      <point x="365" y="1116"/>
      <point x="326" y="1104"/>
      <point x="303" y="1104" type="curve" smooth="yes"/>
      <point x="268" y="1104"/>
      <point x="240" y="1126"/>
      <point x="240" y="1169" type="curve" smooth="yes"/>
      <point x="240" y="1274"/>
      <point x="385" y="1274"/>
      <point x="446" y="1274" type="curve" smooth="yes"/>
      <point x="653" y="1274"/>
      <point x="731" y="1153"/>
      <point x="731" y="1053" type="curve" smooth="yes"/>
      <point x="731" y="741" type="line"/>
      <point x="741" y="737"/>
      <point x="756" y="731"/>
      <point x="817" y="731" type="curve" smooth="yes"/>
      <point x="838" y="731"/>
      <point x="874" y="731"/>
    </contour>
    <contour>
      <point x="811" y="528" type="curve" smooth="yes"/>
      <point x="811" y="504"/>
      <point x="782" y="485"/>
      <point x="748" y="485" type="curve" smooth="yes"/>
      <point x="328" y="485" type="line" smooth="yes"/>
      <point x="293" y="485"/>
      <point x="264" y="504"/>
      <point x="264" y="528" type="curve" smooth="yes"/>
      <point x="264" y="553"/>
      <point x="293" y="573"/>
      <point x="328" y="573" type="curve" smooth="yes"/>
      <point x="748" y="573" type="line" smooth="yes"/>
      <point x="782" y="573"/>
      <point x="811" y="553"/>
    </contour>
    <contour>
      <point x="631" y="836" type="curve" smooth="yes"/>
      <point x="631" y="956" type="line"/>
      <point x="424" y="950"/>
      <point x="301" y="897"/>
      <point x="301" y="827" type="curve" smooth="yes"/>
      <point x="301" y="770"/>
      <point x="358" y="723"/>
      <point x="449" y="723" type="curve" smooth="yes"/>
      <point x="459" y="723"/>
      <point x="524" y="723"/>
      <point x="575" y="748" type="curve" smooth="yes"/>
      <point x="631" y="772"/>
      <point x="631" y="803"/>
    </contour>
  </outline>
</glyph>
<glyph name="guillemetleft" format="2">
  <advance width="1075"/>
  <unicode hex="00AB"/>
  <outline>
    <contour>
      <point x="647" y="231" type="curve" smooth="yes"/>
      <point x="647" y="188"/>
      <point x="625" y="166"/>
      <point x="602" y="166" type="curve" smooth="yes"/>
      <point x="592" y="166"/>
      <point x="586" y="168"/>
      <point x="565" y="184" type="curve" smooth="yes"/>
      <point x="119" y="569" type="line"/>
      <point x="106" y="582"/>
      <point x="96" y="602"/>
      <point x="96" y="627" type="curve" smooth="yes"/>
      <point x="96" y="662"/>
      <point x="113" y="676"/>
      <point x="125" y="688" type="curve"/>
      <point x="565" y="1069" type="line" smooth="yes"/>
      <point x="586" y="1085"/>
      <point x="592" y="1087"/>
      <point x="602" y="1087" type="curve" smooth="yes"/>
      <point x="625" y="1087"/>
      <point x="647" y="1065"/>
      <point x="647" y="1022" type="curve" smooth="yes"/>
      <point x="647" y="987"/>
      <point x="631" y="973"/>
      <point x="616" y="961" type="curve" smooth="yes"/>
      <point x="231" y="627" type="line"/>
      <point x="616" y="293" type="line" smooth="yes"/>
      <point x="631" y="281"/>
      <point x="647" y="266"/>
    </contour>
    <component base="guilsinglleft" xOffset="166"/>
  </outline>
</glyph>
<glyph name="logicalnot" format="2">
  <advance width="1075"/>
  <unicode hex="00AC"/>
  <outline>
    <contour>
      <point x="995" y="471" type="line" smooth="yes"/>
      <point x="995" y="432"/>
      <point x="963" y="399"/>
      <point x="924" y="399" type="curve" smooth="yes"/>
      <point x="885" y="399"/>
      <point x="852" y="432"/>
      <point x="852" y="471" type="curve" smooth="yes"/>
      <point x="852" y="711" type="line"/>
      <point x="150" y="711" type="line" smooth="yes"/>
      <point x="111" y="711"/>
      <point x="78" y="743"/>
      <point x="78" y="782" type="curve" smooth="yes"/>
      <point x="78" y="821"/>
      <point x="111" y="854"/>
      <point x="150" y="854" type="curve" smooth="yes"/>
      <point x="924" y="854" type="line" smooth="yes"/>
      <point x="963" y="854"/>
      <point x="995" y="821"/>
      <point x="995" y="782" type="curve" smooth="yes"/>
    </contour>
  </outline>
</glyph>
<glyph name="registered" format="2">
  <advance width="1075"/>
  <unicode hex="00AE"/>
  <outline>
    <contour>
      <point x="844" y="309" type="curve" smooth="yes"/>
      <point x="844" y="266"/>
      <point x="817" y="195"/>
      <point x="748" y="195" type="curve" smooth="yes"/>
      <point x="711" y="195"/>
      <point x="680" y="211"/>
      <point x="662" y="244" type="curve" smooth="yes"/>
      <point x="641" y="281"/>
      <point x="641" y="313"/>
      <point x="641" y="385" type="curve" smooth="yes"/>
      <point x="641" y="432"/>
      <point x="641" y="457"/>
      <point x="616" y="479" type="curve" smooth="yes"/>
      <point x="580" y="510"/>
      <point x="547" y="510"/>
      <point x="526" y="510" type="curve" smooth="yes"/>
      <point x="440" y="510" type="line"/>
      <point x="440" y="274" type="line"/>
      <point x="467" y="274" type="line" smooth="yes"/>
      <point x="485" y="274"/>
      <point x="512" y="274"/>
      <point x="512" y="240" type="curve" smooth="yes"/>
      <point x="512" y="207"/>
      <point x="483" y="207"/>
      <point x="467" y="207" type="curve" smooth="yes"/>
      <point x="336" y="207" type="line" smooth="yes"/>
      <point x="319" y="207"/>
      <point x="293" y="207"/>
      <point x="293" y="240" type="curve" smooth="yes"/>
      <point x="293" y="274"/>
      <point x="319" y="274"/>
      <point x="336" y="274" type="curve" smooth="yes"/>
      <point x="365" y="274" type="line"/>
      <point x="365" y="813" type="line"/>
      <point x="336" y="813" type="line" smooth="yes"/>
      <point x="319" y="813"/>
      <point x="293" y="813"/>
      <point x="293" y="848" type="curve" smooth="yes"/>
      <point x="293" y="881"/>
      <point x="319" y="881"/>
      <point x="336" y="881" type="curve" smooth="yes"/>
      <point x="532" y="881" type="line" smooth="yes"/>
      <point x="662" y="881"/>
      <point x="745" y="791"/>
      <point x="745" y="696" type="curve" smooth="yes"/>
      <point x="745" y="651"/>
      <point x="725" y="584"/>
      <point x="653" y="543" type="curve"/>
      <point x="668" y="530"/>
      <point x="692" y="506"/>
      <point x="707" y="475" type="curve"/>
      <point x="717" y="449"/>
      <point x="717" y="440"/>
      <point x="717" y="371" type="curve" smooth="yes"/>
      <point x="717" y="311"/>
      <point x="717" y="262"/>
      <point x="748" y="262" type="curve" smooth="yes"/>
      <point x="766" y="262"/>
      <point x="768" y="303"/>
      <point x="768" y="311" type="curve"/>
      <point x="770" y="344"/>
      <point x="795" y="344"/>
      <point x="807" y="344" type="curve" smooth="yes"/>
      <point x="817" y="344"/>
      <point x="844" y="344"/>
    </contour>
    <contour>
      <point x="670" y="696" type="curve" smooth="yes"/>
      <point x="670" y="750"/>
      <point x="621" y="813"/>
      <point x="520" y="813" type="curve" smooth="yes"/>
      <point x="440" y="813" type="line"/>
      <point x="440" y="578" type="line"/>
      <point x="520" y="578" type="line" smooth="yes"/>
      <point x="621" y="578"/>
      <point x="670" y="641"/>
    </contour>
    <component base="bigcircle"/>
  </outline>
</glyph>
<glyph name="macron" format="2">
  <advance width="1075"/>
  <unicode hex="00AF"/>
  <outline>
    <contour>
      <point x="926" y="1137" type="curve" smooth="yes"/>
      <point x="926" y="1073"/>
      <point x="877" y="1073"/>
      <point x="844" y="1073" type="curve" smooth="yes"/>
      <point x="236" y="1073" type="line" smooth="yes"/>
      <point x="201" y="1073"/>
      <point x="152" y="1073"/>
      <point x="152" y="1139" type="curve" smooth="yes"/>
      <point x="152" y="1202"/>
      <point x="201" y="1202"/>
      <point x="233" y="1202" type="curve" smooth="yes"/>
      <point x="844" y="1202" type="line" smooth="yes"/>
      <point x="879" y="1202"/>
      <point x="926" y="1202"/>
    </contour>
  </outline>
</glyph>
<glyph name="degree" format="2">
  <advance width="1075"/>
  <unicode hex="00B0"/>
  <outline>
    <contour>
      <point x="836" y="952" type="curve" smooth="yes"/>
      <point x="836" y="788"/>
      <point x="702" y="653"/>
      <point x="539" y="653" type="curve" smooth="yes"/>
      <point x="373" y="653"/>
      <point x="240" y="788"/>
      <point x="240" y="952" type="curve" smooth="yes"/>
      <point x="240" y="1118"/>
      <point x="373" y="1251"/>
      <point x="539" y="1251" type="curve" smooth="yes"/>
      <point x="702" y="1251"/>
      <point x="836" y="1118"/>
    </contour>
    <contour>
      <point x="692" y="952" type="curve" smooth="yes"/>
      <point x="692" y="1038"/>
      <point x="623" y="1108"/>
      <point x="539" y="1108" type="curve" smooth="yes"/>
      <point x="453" y="1108"/>
      <point x="383" y="1038"/>
      <point x="383" y="952" type="curve" smooth="yes"/>
      <point x="383" y="866"/>
      <point x="453" y="797"/>
      <point x="539" y="797" type="curve" smooth="yes"/>
      <point x="623" y="797"/>
      <point x="692" y="866"/>
    </contour>
  </outline>
</glyph>
<glyph name="plusminus" format="2">
  <advance width="1075"/>
  <unicode hex="00B1"/>
  <outline>
    <contour>
      <point x="995" y="72" type="curve" smooth="yes"/>
      <point x="995" y="0"/>
      <point x="924" y="0"/>
      <point x="899" y="0" type="curve" smooth="yes"/>
      <point x="174" y="0" type="line" smooth="yes"/>
      <point x="150" y="0"/>
      <point x="78" y="0"/>
      <point x="78" y="72" type="curve" smooth="yes"/>
      <point x="78" y="143"/>
      <point x="150" y="143"/>
      <point x="174" y="143" type="curve" smooth="yes"/>
      <point x="465" y="143" type="line"/>
      <point x="465" y="389" type="line"/>
      <point x="174" y="389" type="line" smooth="yes"/>
      <point x="150" y="389"/>
      <point x="78" y="389"/>
      <point x="78" y="461" type="curve" smooth="yes"/>
      <point x="78" y="532"/>
      <point x="150" y="532"/>
      <point x="174" y="532" type="curve" smooth="yes"/>
      <point x="465" y="532" type="line"/>
      <point x="465" y="825" type="line" smooth="yes"/>
      <point x="465" y="850"/>
      <point x="465" y="922"/>
      <point x="537" y="922" type="curve" smooth="yes"/>
      <point x="608" y="922"/>
      <point x="608" y="850"/>
      <point x="608" y="825" type="curve" smooth="yes"/>
      <point x="608" y="532" type="line"/>
      <point x="899" y="532" type="line" smooth="yes"/>
      <point x="924" y="532"/>
      <point x="995" y="532"/>
      <point x="995" y="461" type="curve" smooth="yes"/>
      <point x="995" y="389"/>
      <point x="924" y="389"/>
      <point x="899" y="389" type="curve" smooth="yes"/>
      <point x="608" y="389" type="line"/>
      <point x="608" y="143" type="line"/>
      <point x="899" y="143" type="line" smooth="yes"/>
      <point x="924" y="143"/>
      <point x="995" y="143"/>
    </contour>
  </outline>
</glyph>
